G04 (created by PCBNEW (2013-07-07 BZR 4022)-stable) date 18.12.2014 21:06:21*
%MOIN*%
G04 Gerber Fmt 3.4, Leading zero omitted, Abs format*
%FSLAX34Y34*%
G01*
G70*
G90*
G04 APERTURE LIST*
%ADD10C,0.00590551*%
%ADD11C,0.06*%
%ADD12C,0.1063*%
%ADD13R,0.0315X0.0394*%
%ADD14R,0.045X0.02*%
%ADD15R,0.08X0.06*%
%ADD16R,0.055X0.035*%
%ADD17R,0.035X0.055*%
%ADD18R,0.045X0.025*%
%ADD19R,0.025X0.045*%
%ADD20R,0.125984X0.0590551*%
%ADD21C,0.09*%
%ADD22R,0.0314961X0.011811*%
%ADD23R,0.011811X0.0314961*%
%ADD24R,0.0138X0.0551*%
%ADD25C,0.035*%
%ADD26C,0.015*%
%ADD27C,0.01*%
%ADD28C,0.04*%
G04 APERTURE END LIST*
G54D10*
G54D11*
X4149Y9339D03*
X4149Y10339D03*
X3362Y10339D03*
X3362Y9339D03*
G54D12*
X2299Y7477D03*
X2299Y12201D03*
G54D13*
X17250Y3917D03*
X17625Y4783D03*
X16875Y4783D03*
X17250Y13033D03*
X16875Y12167D03*
X17625Y12167D03*
G54D14*
X8225Y2429D03*
X8225Y2929D03*
X8225Y3429D03*
X8225Y3929D03*
X8225Y4429D03*
X8225Y4929D03*
X8225Y5429D03*
X8225Y5929D03*
X12225Y5929D03*
X12225Y5429D03*
X12225Y4929D03*
X12225Y4429D03*
X12225Y3929D03*
X12225Y3429D03*
X12225Y2929D03*
X12225Y2429D03*
G54D15*
X14550Y5550D03*
X14550Y6850D03*
X5975Y5429D03*
X5975Y6729D03*
G54D16*
X10549Y9414D03*
X10549Y8664D03*
X10549Y10014D03*
X10549Y10764D03*
X14499Y9564D03*
X14499Y8814D03*
X14449Y10214D03*
X14449Y10964D03*
G54D17*
X10299Y15414D03*
X11049Y15414D03*
X12399Y15414D03*
X11649Y15414D03*
G54D16*
X7949Y15414D03*
X7949Y16164D03*
G54D17*
X3625Y3650D03*
X4375Y3650D03*
G54D18*
X5600Y16000D03*
X5600Y15400D03*
X13699Y10189D03*
X13699Y10789D03*
X9749Y9439D03*
X9749Y8839D03*
X9749Y9989D03*
X9749Y10589D03*
G54D19*
X11649Y8239D03*
X12249Y8239D03*
G54D18*
X11399Y10189D03*
X11399Y10789D03*
G54D19*
X6699Y8989D03*
X7299Y8989D03*
X6699Y9839D03*
X7299Y9839D03*
X12474Y14564D03*
X11874Y14564D03*
X10224Y14564D03*
X10824Y14564D03*
G54D18*
X12350Y17900D03*
X12350Y17300D03*
X5499Y10139D03*
X5499Y9539D03*
X3399Y12839D03*
X3399Y13439D03*
X4199Y12839D03*
X4199Y13439D03*
X2600Y15950D03*
X2600Y15350D03*
X7075Y5429D03*
X7075Y6029D03*
X13375Y5429D03*
X13375Y6029D03*
X13375Y2929D03*
X13375Y2329D03*
X14325Y2929D03*
X14325Y2329D03*
X6150Y2950D03*
X6150Y2350D03*
X7100Y2950D03*
X7100Y2350D03*
X6449Y15389D03*
X6449Y15989D03*
X7149Y15389D03*
X7149Y15989D03*
X5400Y3650D03*
X5400Y4250D03*
X2299Y10139D03*
X2299Y9539D03*
X13699Y9589D03*
X13699Y8989D03*
G54D19*
X12449Y11789D03*
X13049Y11789D03*
X7550Y11300D03*
X8150Y11300D03*
G54D18*
X9399Y14039D03*
X9399Y14639D03*
X9399Y11939D03*
X9399Y12539D03*
G54D20*
X3600Y6376D03*
X3600Y4723D03*
G54D21*
X17616Y14311D03*
X17616Y15688D03*
X17616Y9150D03*
X17616Y10528D03*
X17616Y6394D03*
X17616Y7772D03*
G54D22*
X12034Y13409D03*
X12034Y13212D03*
X12034Y13015D03*
X12034Y12819D03*
X10813Y12819D03*
X10813Y13015D03*
X10813Y13212D03*
X10813Y13409D03*
G54D23*
X12644Y9179D03*
X12447Y9179D03*
X12250Y9179D03*
X12053Y9179D03*
X12053Y10399D03*
X12250Y10399D03*
X12447Y10399D03*
X12644Y10399D03*
X8694Y9029D03*
X8497Y9029D03*
X8300Y9029D03*
X8103Y9029D03*
X8103Y10249D03*
X8300Y10249D03*
X8497Y10249D03*
X8694Y10249D03*
G54D24*
X6203Y14571D03*
X6459Y14571D03*
X6715Y14571D03*
X6971Y14571D03*
X7227Y14571D03*
X7483Y14571D03*
X7739Y14571D03*
X7995Y14571D03*
X7995Y12307D03*
X7739Y12307D03*
X7483Y12307D03*
X7227Y12307D03*
X6971Y12307D03*
X6715Y12307D03*
X6459Y12307D03*
X6203Y12307D03*
G54D25*
X12550Y6400D03*
X11400Y16250D03*
X5850Y13900D03*
X9000Y10950D03*
X7700Y13050D03*
X13850Y11850D03*
X10000Y13600D03*
X4500Y2050D03*
X11500Y17150D03*
X12400Y16300D03*
X12950Y9900D03*
X8700Y7450D03*
X7050Y4850D03*
X8650Y15000D03*
X4900Y13850D03*
X5700Y13350D03*
X6750Y13100D03*
X11350Y14550D03*
X11150Y9700D03*
X10950Y11350D03*
X5500Y8550D03*
X4800Y8550D03*
X11400Y12350D03*
X6300Y7400D03*
X9100Y5950D03*
X6550Y11350D03*
X5000Y11350D03*
X5850Y11350D03*
X7950Y16800D03*
X6450Y16500D03*
X7150Y16600D03*
X14750Y11650D03*
X6100Y8550D03*
X8200Y1600D03*
X7100Y1600D03*
X6150Y1600D03*
X14400Y1700D03*
X13400Y1650D03*
X12250Y1650D03*
X11150Y1500D03*
X11150Y2350D03*
X15950Y4900D03*
X15950Y5350D03*
X15950Y3000D03*
X16550Y13550D03*
X3350Y16000D03*
X11500Y17750D03*
X4750Y15400D03*
X11400Y4400D03*
X11050Y4950D03*
X15900Y3950D03*
X15300Y3450D03*
X15950Y15000D03*
G54D26*
X11650Y16250D02*
X12350Y16950D01*
X12350Y16950D02*
X12350Y17300D01*
X11400Y16250D02*
X11650Y16250D01*
X6474Y13900D02*
X5850Y13900D01*
X6474Y13900D02*
X6474Y14489D01*
X6150Y13600D02*
X5850Y13900D01*
X6600Y13600D02*
X6150Y13600D01*
X6715Y13715D02*
X6600Y13600D01*
X6715Y14571D02*
X6715Y13715D01*
X8988Y10938D02*
X9000Y10950D01*
X8988Y10249D02*
X8988Y10938D01*
X7483Y12307D02*
X7483Y12833D01*
X7483Y12833D02*
X7700Y13050D01*
G54D27*
X7483Y12307D02*
X7483Y11966D01*
X8150Y11750D02*
X8150Y11300D01*
X8100Y11800D02*
X8150Y11750D01*
X7650Y11800D02*
X8100Y11800D01*
X7483Y11966D02*
X7650Y11800D01*
G54D26*
X5600Y15400D02*
X6438Y15400D01*
X6438Y15400D02*
X6449Y15389D01*
X13049Y11300D02*
X13300Y11300D01*
X13300Y11300D02*
X13850Y11850D01*
G54D27*
X10190Y13409D02*
X10813Y13409D01*
X10000Y13600D02*
X10190Y13409D01*
X13049Y11789D02*
X13049Y11300D01*
X13049Y11300D02*
X13049Y11289D01*
X12644Y10884D02*
X12644Y10399D01*
X13049Y11289D02*
X12644Y10884D01*
X9399Y14639D02*
X10149Y14639D01*
X10149Y14639D02*
X10224Y14564D01*
X13699Y10189D02*
X14424Y10189D01*
X14424Y10189D02*
X14449Y10214D01*
X12644Y10399D02*
X13038Y10399D01*
X13249Y10189D02*
X13699Y10189D01*
X13038Y10399D02*
X13249Y10189D01*
X10549Y10014D02*
X9774Y10014D01*
X9774Y10014D02*
X9749Y9989D01*
X8694Y10249D02*
X8988Y10249D01*
X9249Y9989D02*
X9749Y9989D01*
X8988Y10249D02*
X9249Y9989D01*
X10813Y13409D02*
X10778Y13409D01*
X10778Y13409D02*
X10324Y13864D01*
G54D26*
X10224Y13964D02*
X10224Y14564D01*
X10224Y13964D02*
X10324Y13864D01*
X10299Y15414D02*
X10299Y14639D01*
X10299Y14639D02*
X10224Y14564D01*
X6474Y14489D02*
X6474Y15364D01*
X6474Y15364D02*
X6449Y15389D01*
G54D28*
X6150Y2950D02*
X4400Y2950D01*
X4400Y2950D02*
X4375Y2925D01*
G54D26*
X3225Y2925D02*
X4375Y2925D01*
X4375Y2925D02*
X4375Y2900D01*
G54D28*
X4375Y3650D02*
X4375Y2900D01*
X4375Y2900D02*
X4375Y2175D01*
X4375Y2175D02*
X4500Y2050D01*
G54D26*
X3250Y2900D02*
X3225Y2925D01*
X3225Y2925D02*
X1100Y5050D01*
G54D27*
X8103Y10249D02*
X8103Y9864D01*
X8694Y9655D02*
X8694Y9029D01*
X8550Y9800D02*
X8694Y9655D01*
X8168Y9800D02*
X8550Y9800D01*
X8103Y9864D02*
X8168Y9800D01*
G54D26*
X12399Y15414D02*
X12399Y16299D01*
X10750Y16400D02*
X9200Y16400D01*
X11500Y17150D02*
X10750Y16400D01*
X12399Y16299D02*
X12400Y16300D01*
G54D27*
X12644Y9179D02*
X12644Y9594D01*
X12644Y9594D02*
X12950Y9900D01*
G54D26*
X2600Y15350D02*
X3250Y15350D01*
X3250Y15350D02*
X3575Y15025D01*
X1100Y12550D02*
X1100Y5050D01*
X1100Y12550D02*
X3575Y15025D01*
X3575Y15025D02*
X5750Y17200D01*
X8400Y17200D02*
X9200Y16400D01*
X5750Y17200D02*
X8400Y17200D01*
X9200Y16400D02*
X9200Y15600D01*
X7949Y15414D02*
X9014Y15414D01*
X9200Y15600D02*
X9014Y15414D01*
G54D27*
X8694Y7455D02*
X8694Y9029D01*
X8700Y7450D02*
X8694Y7455D01*
G54D26*
X7075Y4875D02*
X7075Y5429D01*
X7050Y4850D02*
X7075Y4875D01*
X7100Y2950D02*
X6150Y2950D01*
X7100Y2950D02*
X8204Y2950D01*
X8204Y2950D02*
X8225Y2929D01*
G54D27*
X5975Y5429D02*
X7075Y5429D01*
X7075Y5429D02*
X8225Y5429D01*
X14499Y9564D02*
X13724Y9564D01*
X13724Y9564D02*
X13699Y9589D01*
X12644Y9179D02*
X12838Y9179D01*
X13249Y9589D02*
X13699Y9589D01*
X12838Y9179D02*
X13249Y9589D01*
X10549Y9414D02*
X9774Y9414D01*
X9774Y9414D02*
X9749Y9439D01*
X8694Y9029D02*
X8838Y9029D01*
X8838Y9029D02*
X9249Y9439D01*
X9249Y9439D02*
X9749Y9439D01*
X12034Y13409D02*
X12069Y13409D01*
G54D26*
X12524Y14514D02*
X12474Y14564D01*
X12524Y13864D02*
X12524Y14514D01*
G54D27*
X12069Y13409D02*
X12524Y13864D01*
G54D26*
X12399Y15414D02*
X12399Y14639D01*
X12399Y14639D02*
X12474Y14564D01*
X7949Y15414D02*
X7174Y15414D01*
X7174Y15414D02*
X7149Y15389D01*
X6974Y15214D02*
X7149Y15389D01*
X6974Y14489D02*
X6974Y15214D01*
G54D28*
X3600Y6376D02*
X3600Y7800D01*
X4149Y8349D02*
X4149Y9339D01*
X3600Y7800D02*
X4149Y8349D01*
G54D27*
X7483Y14571D02*
X7483Y13866D01*
X8810Y12539D02*
X9399Y12539D01*
X7483Y13866D02*
X8810Y12539D01*
X9399Y12539D02*
X9399Y13015D01*
X10813Y13015D02*
X9399Y13015D01*
X13400Y8150D02*
X14900Y8150D01*
X12500Y7250D02*
X13400Y8150D01*
X12034Y13015D02*
X14634Y13015D01*
X8629Y4429D02*
X8225Y4429D01*
X9950Y7250D02*
X12300Y7250D01*
X9750Y7050D02*
X9950Y7250D01*
X9750Y5550D02*
X9750Y7050D01*
X8629Y4429D02*
X9750Y5550D01*
X12300Y7250D02*
X12500Y7250D01*
X15350Y12300D02*
X14634Y13015D01*
X15350Y8600D02*
X15350Y12300D01*
X14900Y8150D02*
X15350Y8600D01*
G54D28*
X17625Y4783D02*
X17625Y6385D01*
X17625Y6385D02*
X17616Y6394D01*
X16875Y4783D02*
X16875Y5575D01*
X16500Y6656D02*
X17616Y7772D01*
X16500Y5950D02*
X16500Y6656D01*
X16875Y5575D02*
X16500Y5950D01*
G54D27*
X7550Y11300D02*
X7550Y11000D01*
X8497Y10752D02*
X8400Y10850D01*
X8497Y10752D02*
X8497Y10249D01*
X7700Y10850D02*
X8400Y10850D01*
X7550Y11000D02*
X7700Y10850D01*
X7550Y11300D02*
X7550Y11500D01*
X7227Y11822D02*
X7227Y12307D01*
X7550Y11500D02*
X7227Y11822D01*
X5500Y4700D02*
X6550Y4700D01*
X5500Y4700D02*
X5150Y5050D01*
X5150Y5050D02*
X5150Y7050D01*
X5150Y7050D02*
X6000Y7900D01*
X6000Y7900D02*
X8200Y7900D01*
X8200Y7900D02*
X8497Y8197D01*
X8497Y9029D02*
X8497Y8197D01*
X7820Y3429D02*
X8225Y3429D01*
X7820Y3429D02*
X6550Y4700D01*
G54D28*
X16875Y12167D02*
X16875Y11375D01*
X16600Y10166D02*
X17616Y9150D01*
X16600Y11100D02*
X16600Y10166D01*
X16875Y11375D02*
X16600Y11100D01*
X17625Y12167D02*
X17625Y10537D01*
X17625Y10537D02*
X17616Y10528D01*
G54D27*
X8399Y11900D02*
X8450Y11900D01*
X11900Y11800D02*
X11900Y11789D01*
X10800Y11800D02*
X11900Y11800D01*
X10500Y11500D02*
X10800Y11800D01*
X8850Y11500D02*
X10500Y11500D01*
X8450Y11900D02*
X8850Y11500D01*
X11749Y11389D02*
X11749Y11739D01*
X11799Y11789D02*
X11900Y11789D01*
X11749Y11739D02*
X11799Y11789D01*
X12447Y10990D02*
X12447Y10399D01*
X12049Y11389D02*
X12447Y10990D01*
X11749Y11389D02*
X12049Y11389D01*
X11900Y11789D02*
X12449Y11789D01*
X8331Y12307D02*
X7995Y12307D01*
X8399Y12239D02*
X8331Y12307D01*
X8399Y11889D02*
X8399Y11900D01*
X8399Y11900D02*
X8399Y12239D01*
X8225Y4929D02*
X8729Y4929D01*
X12447Y8852D02*
X12800Y8500D01*
X12800Y8500D02*
X12800Y8000D01*
X12800Y8000D02*
X12350Y7550D01*
X12350Y7550D02*
X9800Y7550D01*
X12447Y8852D02*
X12447Y9179D01*
X9550Y7300D02*
X9800Y7550D01*
X9550Y5750D02*
X9550Y7300D01*
X8729Y4929D02*
X9550Y5750D01*
G54D26*
X4199Y12839D02*
X4199Y10389D01*
X4199Y10389D02*
X4149Y10339D01*
X4149Y10339D02*
X5299Y10339D01*
X5299Y10339D02*
X5499Y10139D01*
X3362Y10339D02*
X3362Y12802D01*
X3362Y12802D02*
X3399Y12839D01*
X3362Y10339D02*
X2499Y10339D01*
X2499Y10339D02*
X2299Y10139D01*
G54D27*
X9399Y14039D02*
X8789Y14039D01*
X7739Y13910D02*
X7739Y14571D01*
X8000Y13650D02*
X7739Y13910D01*
X8400Y13650D02*
X8000Y13650D01*
X8789Y14039D02*
X8400Y13650D01*
X9399Y14039D02*
X9399Y13212D01*
X10813Y13212D02*
X9399Y13212D01*
X13500Y7900D02*
X15050Y7900D01*
X12500Y6900D02*
X13500Y7900D01*
X8529Y3929D02*
X10000Y5400D01*
X10000Y5400D02*
X10000Y6450D01*
X10000Y6450D02*
X10450Y6900D01*
X8225Y3929D02*
X8529Y3929D01*
X10450Y6900D02*
X12500Y6900D01*
X14837Y13212D02*
X12034Y13212D01*
X15600Y12450D02*
X14837Y13212D01*
X15600Y8450D02*
X15600Y12450D01*
X15050Y7900D02*
X15600Y8450D01*
G54D26*
X7995Y14571D02*
X7995Y14895D01*
X8100Y15000D02*
X8650Y15000D01*
X7995Y14895D02*
X8100Y15000D01*
G54D27*
X6459Y12307D02*
X6459Y12790D01*
X4900Y13500D02*
X4900Y13850D01*
X5000Y13400D02*
X4900Y13500D01*
X5200Y13400D02*
X5000Y13400D01*
X5700Y12900D02*
X5200Y13400D01*
X6350Y12900D02*
X5700Y12900D01*
X6459Y12790D02*
X6350Y12900D01*
X5700Y13350D02*
X5950Y13100D01*
X6850Y13200D02*
X6971Y13200D01*
X6850Y13200D02*
X6750Y13100D01*
X6750Y13100D02*
X5950Y13100D01*
G54D26*
X6971Y12307D02*
X6971Y13200D01*
X6971Y13200D02*
X6971Y13371D01*
X7227Y13627D02*
X7227Y14571D01*
X6971Y13371D02*
X7227Y13627D01*
G54D27*
X12034Y12819D02*
X11680Y12819D01*
X11600Y14100D02*
X11350Y14100D01*
X11600Y12900D02*
X11600Y14100D01*
X11680Y12819D02*
X11600Y12900D01*
X10813Y12819D02*
X11219Y12819D01*
X11219Y12819D02*
X11350Y12950D01*
X11350Y12950D02*
X11350Y14100D01*
X11335Y14564D02*
X11350Y14550D01*
X11350Y14100D02*
X11350Y14550D01*
X11335Y14564D02*
X10824Y14564D01*
X11150Y9700D02*
X11250Y9700D01*
X11399Y9849D02*
X11399Y10189D01*
X11250Y9700D02*
X11399Y9849D01*
X10549Y10764D02*
X10549Y10949D01*
X10549Y10949D02*
X10950Y11350D01*
G54D26*
X5400Y4250D02*
X5350Y4250D01*
X4800Y4800D02*
X4800Y8550D01*
X5350Y4250D02*
X4800Y4800D01*
X6699Y8989D02*
X6699Y8750D01*
G54D27*
X8103Y8603D02*
X8103Y9029D01*
X8000Y8500D02*
X8103Y8603D01*
G54D26*
X6950Y8500D02*
X8000Y8500D01*
X6699Y8750D02*
X6950Y8500D01*
G54D27*
X11400Y12350D02*
X11800Y12350D01*
X10813Y12819D02*
X10813Y12436D01*
X10900Y12350D02*
X11400Y12350D01*
X10813Y12436D02*
X10900Y12350D01*
X12034Y12584D02*
X12034Y12819D01*
X11800Y12350D02*
X12034Y12584D01*
G54D26*
X5975Y6729D02*
X5975Y7075D01*
X5975Y7075D02*
X6300Y7400D01*
X8225Y5929D02*
X9079Y5929D01*
X9079Y5929D02*
X9100Y5950D01*
X6550Y11350D02*
X5850Y11350D01*
X6971Y11771D02*
X6550Y11350D01*
X6971Y12307D02*
X6971Y11771D01*
X7949Y16164D02*
X7949Y16799D01*
X7949Y16799D02*
X7950Y16800D01*
X6449Y15989D02*
X6449Y16499D01*
X6449Y16499D02*
X6450Y16500D01*
X7149Y15989D02*
X7149Y16599D01*
X7149Y16599D02*
X7150Y16600D01*
X14499Y8814D02*
X14614Y8814D01*
X14885Y10964D02*
X14449Y10964D01*
X15000Y10850D02*
X14885Y10964D01*
X15000Y9200D02*
X15000Y10850D01*
X14614Y8814D02*
X15000Y9200D01*
G54D27*
X10549Y8664D02*
X10885Y8664D01*
X11310Y8239D02*
X11649Y8239D01*
X10885Y8664D02*
X11310Y8239D01*
X12053Y9179D02*
X12053Y10399D01*
G54D26*
X14449Y10964D02*
X14449Y11349D01*
X14449Y11349D02*
X14750Y11650D01*
G54D27*
X10824Y14564D02*
X10824Y15189D01*
X10824Y15189D02*
X11049Y15414D01*
X11874Y14564D02*
X11874Y15189D01*
X11874Y15189D02*
X11649Y15414D01*
G54D26*
X5500Y8550D02*
X6100Y8550D01*
X5499Y9539D02*
X5499Y8550D01*
X5499Y8550D02*
X5500Y8550D01*
X8225Y2429D02*
X8225Y1625D01*
X8225Y1625D02*
X8200Y1600D01*
X7100Y2350D02*
X7100Y1600D01*
X6150Y2350D02*
X6150Y1600D01*
X10549Y8664D02*
X10435Y8664D01*
X10260Y8839D02*
X9749Y8839D01*
X10435Y8664D02*
X10260Y8839D01*
X13699Y10789D02*
X14274Y10789D01*
X14274Y10789D02*
X14449Y10964D01*
X14499Y8814D02*
X13874Y8814D01*
X13874Y8814D02*
X13699Y8989D01*
X10549Y10764D02*
X10635Y10764D01*
X11210Y10189D02*
X11399Y10189D01*
X10635Y10764D02*
X11210Y10189D01*
X9749Y10589D02*
X10374Y10589D01*
X10374Y10589D02*
X10549Y10764D01*
G54D27*
X2299Y9539D02*
X3162Y9539D01*
X3162Y9539D02*
X3362Y9339D01*
G54D26*
X7100Y2350D02*
X6150Y2350D01*
X7100Y2350D02*
X7500Y2350D01*
X7579Y2429D02*
X8225Y2429D01*
X7500Y2350D02*
X7579Y2429D01*
G54D27*
X12053Y8944D02*
X12053Y9179D01*
X11649Y8239D02*
X11649Y8739D01*
X11649Y8739D02*
X11749Y8839D01*
X11749Y8839D02*
X11949Y8839D01*
X11949Y8839D02*
X12053Y8944D01*
X12053Y10094D02*
X12053Y10399D01*
X11999Y10039D02*
X12053Y10094D01*
X11899Y10039D02*
X11999Y10039D01*
X11749Y10189D02*
X11899Y10039D01*
X11399Y10189D02*
X11749Y10189D01*
X5975Y6729D02*
X6875Y6729D01*
X7075Y6529D02*
X7075Y6029D01*
X6875Y6729D02*
X7075Y6529D01*
X8225Y5929D02*
X7625Y5929D01*
X7525Y6029D02*
X7075Y6029D01*
X7625Y5929D02*
X7525Y6029D01*
X5499Y9539D02*
X6049Y9539D01*
X6349Y9839D02*
X6699Y9839D01*
X6049Y9539D02*
X6349Y9839D01*
X6699Y8989D02*
X6699Y9839D01*
G54D26*
X6449Y15989D02*
X7149Y15989D01*
X7149Y15989D02*
X7324Y16164D01*
X7324Y16164D02*
X7949Y16164D01*
G54D27*
X11450Y1650D02*
X11300Y1650D01*
X14400Y1700D02*
X13450Y1700D01*
X13400Y1650D02*
X13450Y1700D01*
X11450Y1650D02*
X12250Y1650D01*
X11300Y1650D02*
X11150Y1500D01*
X11450Y2650D02*
X11150Y2350D01*
G54D26*
X16933Y3917D02*
X15950Y4900D01*
X16933Y3917D02*
X17250Y3917D01*
X16250Y2700D02*
X15950Y3000D01*
X17250Y3917D02*
X16767Y3917D01*
X15879Y2329D02*
X14325Y2329D01*
X16450Y2900D02*
X16250Y2700D01*
X16250Y2700D02*
X15879Y2329D01*
X16450Y3600D02*
X16450Y2900D01*
X16767Y3917D02*
X16450Y3600D01*
X12225Y2429D02*
X11670Y2429D01*
X11029Y5929D02*
X12225Y5929D01*
X10300Y5200D02*
X11029Y5929D01*
X10300Y3800D02*
X10300Y5200D01*
X11670Y2429D02*
X11450Y2650D01*
X11450Y2650D02*
X10300Y3800D01*
X17067Y13033D02*
X17250Y13033D01*
X16550Y13550D02*
X17067Y13033D01*
X13375Y2329D02*
X12325Y2329D01*
X12325Y2329D02*
X12225Y2429D01*
X14325Y2329D02*
X13375Y2329D01*
X12225Y5929D02*
X13275Y5929D01*
X13275Y5929D02*
X13375Y6029D01*
X13375Y6029D02*
X13729Y6029D01*
X13729Y6029D02*
X14550Y6850D01*
G54D27*
X12249Y8239D02*
X12249Y9177D01*
X12249Y9177D02*
X12250Y9179D01*
X8300Y10249D02*
X8300Y10499D01*
X7299Y10349D02*
X7299Y9839D01*
X7550Y10600D02*
X7299Y10349D01*
X8200Y10600D02*
X7550Y10600D01*
X8300Y10499D02*
X8200Y10600D01*
G54D26*
X2600Y15950D02*
X3300Y15950D01*
X3300Y15950D02*
X3350Y16000D01*
X12350Y17900D02*
X11650Y17900D01*
X11650Y17900D02*
X11500Y17750D01*
X5350Y16000D02*
X5600Y16000D01*
X4750Y15400D02*
X5350Y16000D01*
G54D27*
X12250Y10399D02*
X12250Y10737D01*
X12199Y10789D02*
X11399Y10789D01*
X12250Y10737D02*
X12199Y10789D01*
G54D26*
X5799Y12389D02*
X6224Y12389D01*
X5049Y13139D02*
X5799Y12389D01*
X3749Y13139D02*
X5049Y13139D01*
X3399Y13439D02*
X3449Y13439D01*
X3449Y13439D02*
X3749Y13139D01*
X6224Y14489D02*
X4549Y14489D01*
X4549Y14489D02*
X4199Y14139D01*
X4199Y14139D02*
X4199Y13439D01*
X11429Y4429D02*
X12225Y4429D01*
X11400Y4400D02*
X11429Y4429D01*
X11070Y4929D02*
X12225Y4929D01*
X11050Y4950D02*
X11070Y4929D01*
X15879Y3929D02*
X12225Y3929D01*
X15900Y3950D02*
X15879Y3929D01*
X15279Y3429D02*
X12225Y3429D01*
X15300Y3450D02*
X15279Y3429D01*
X3600Y4723D02*
X4326Y4723D01*
X5000Y3650D02*
X5400Y3650D01*
X4850Y3800D02*
X5000Y3650D01*
X4850Y4200D02*
X4850Y3800D01*
X4326Y4723D02*
X4850Y4200D01*
G54D28*
X3625Y3650D02*
X3625Y4698D01*
X3625Y4698D02*
X3600Y4723D01*
G54D27*
X7299Y8989D02*
X7299Y9089D01*
X8300Y9487D02*
X8300Y9029D01*
X8199Y9589D02*
X8300Y9487D01*
X7799Y9589D02*
X8199Y9589D01*
X7299Y9089D02*
X7799Y9589D01*
G54D26*
X12225Y2929D02*
X11670Y2929D01*
X11029Y5429D02*
X12225Y5429D01*
X10637Y5037D02*
X11029Y5429D01*
X10637Y3962D02*
X10637Y5037D01*
X11670Y2929D02*
X10637Y3962D01*
X16150Y11650D02*
X16150Y6950D01*
X15350Y5550D02*
X14550Y5550D01*
X15850Y6050D02*
X15350Y5550D01*
X15850Y6650D02*
X15850Y6050D01*
X16150Y6950D02*
X15850Y6650D01*
X16150Y14800D02*
X16150Y11650D01*
X16150Y11650D02*
X16150Y11600D01*
X15950Y15000D02*
X16150Y14800D01*
X13375Y2929D02*
X14325Y2929D01*
X12225Y2929D02*
X13375Y2929D01*
X14550Y5550D02*
X13495Y5550D01*
X13495Y5550D02*
X13375Y5429D01*
X12225Y5429D02*
X13375Y5429D01*
G54D27*
X14325Y5429D02*
X14475Y5579D01*
G54D10*
G36*
X7587Y13409D02*
X7487Y13368D01*
X7382Y13262D01*
X7325Y13124D01*
X7325Y13063D01*
X7288Y13027D01*
X7229Y12938D01*
X7208Y12833D01*
X7208Y12782D01*
X7193Y12782D01*
X7182Y12794D01*
X7090Y12832D01*
X7068Y12832D01*
X7005Y12770D01*
X7005Y12713D01*
X6988Y12696D01*
X6971Y12654D01*
X6953Y12696D01*
X6936Y12713D01*
X6936Y12770D01*
X6874Y12832D01*
X6852Y12832D01*
X6760Y12794D01*
X6748Y12782D01*
X6744Y12782D01*
X6709Y12782D01*
X6709Y12790D01*
X6709Y12790D01*
X6709Y12790D01*
X6705Y12809D01*
X6690Y12886D01*
X6690Y12886D01*
X6635Y12967D01*
X6635Y12967D01*
X6526Y13076D01*
X6445Y13130D01*
X6350Y13150D01*
X5803Y13150D01*
X5376Y13576D01*
X5295Y13630D01*
X5221Y13645D01*
X5274Y13775D01*
X5275Y13924D01*
X5218Y14062D01*
X5112Y14167D01*
X5000Y14214D01*
X5634Y14214D01*
X5532Y14112D01*
X5475Y13974D01*
X5474Y13825D01*
X5531Y13687D01*
X5637Y13582D01*
X5775Y13525D01*
X5836Y13525D01*
X5955Y13405D01*
X5955Y13405D01*
X6015Y13365D01*
X6044Y13345D01*
X6044Y13345D01*
X6149Y13325D01*
X6150Y13325D01*
X6600Y13325D01*
X6705Y13345D01*
X6705Y13345D01*
X6794Y13405D01*
X6909Y13520D01*
X6969Y13609D01*
X6969Y13609D01*
X6990Y13715D01*
X6990Y14095D01*
X7004Y14095D01*
X7016Y14084D01*
X7108Y14045D01*
X7130Y14045D01*
X7192Y14108D01*
X7192Y14165D01*
X7209Y14182D01*
X7227Y14224D01*
X7233Y14210D01*
X7233Y13866D01*
X7252Y13771D01*
X7306Y13690D01*
X7587Y13409D01*
X7587Y13409D01*
G37*
G54D27*
X7587Y13409D02*
X7487Y13368D01*
X7382Y13262D01*
X7325Y13124D01*
X7325Y13063D01*
X7288Y13027D01*
X7229Y12938D01*
X7208Y12833D01*
X7208Y12782D01*
X7193Y12782D01*
X7182Y12794D01*
X7090Y12832D01*
X7068Y12832D01*
X7005Y12770D01*
X7005Y12713D01*
X6988Y12696D01*
X6971Y12654D01*
X6953Y12696D01*
X6936Y12713D01*
X6936Y12770D01*
X6874Y12832D01*
X6852Y12832D01*
X6760Y12794D01*
X6748Y12782D01*
X6744Y12782D01*
X6709Y12782D01*
X6709Y12790D01*
X6709Y12790D01*
X6709Y12790D01*
X6705Y12809D01*
X6690Y12886D01*
X6690Y12886D01*
X6635Y12967D01*
X6635Y12967D01*
X6526Y13076D01*
X6445Y13130D01*
X6350Y13150D01*
X5803Y13150D01*
X5376Y13576D01*
X5295Y13630D01*
X5221Y13645D01*
X5274Y13775D01*
X5275Y13924D01*
X5218Y14062D01*
X5112Y14167D01*
X5000Y14214D01*
X5634Y14214D01*
X5532Y14112D01*
X5475Y13974D01*
X5474Y13825D01*
X5531Y13687D01*
X5637Y13582D01*
X5775Y13525D01*
X5836Y13525D01*
X5955Y13405D01*
X5955Y13405D01*
X6015Y13365D01*
X6044Y13345D01*
X6044Y13345D01*
X6149Y13325D01*
X6150Y13325D01*
X6600Y13325D01*
X6705Y13345D01*
X6705Y13345D01*
X6794Y13405D01*
X6909Y13520D01*
X6969Y13609D01*
X6969Y13609D01*
X6990Y13715D01*
X6990Y14095D01*
X7004Y14095D01*
X7016Y14084D01*
X7108Y14045D01*
X7130Y14045D01*
X7192Y14108D01*
X7192Y14165D01*
X7209Y14182D01*
X7227Y14224D01*
X7233Y14210D01*
X7233Y13866D01*
X7252Y13771D01*
X7306Y13690D01*
X7587Y13409D01*
G54D10*
G36*
X7685Y3225D02*
X7457Y3225D01*
X7438Y3244D01*
X7364Y3274D01*
X7285Y3275D01*
X6835Y3275D01*
X6761Y3244D01*
X6742Y3225D01*
X6507Y3225D01*
X6488Y3244D01*
X6414Y3274D01*
X6369Y3275D01*
X6303Y3319D01*
X6150Y3350D01*
X5725Y3350D01*
X5738Y3355D01*
X5794Y3411D01*
X5824Y3485D01*
X5825Y3564D01*
X5825Y3814D01*
X5794Y3888D01*
X5768Y3914D01*
X5837Y3983D01*
X5875Y4075D01*
X5875Y4137D01*
X5812Y4200D01*
X5450Y4200D01*
X5450Y4192D01*
X5350Y4192D01*
X5350Y4200D01*
X5342Y4200D01*
X5342Y4300D01*
X5350Y4300D01*
X5350Y4307D01*
X5450Y4307D01*
X5450Y4300D01*
X5812Y4300D01*
X5875Y4362D01*
X5875Y4424D01*
X5864Y4450D01*
X6446Y4450D01*
X7644Y3252D01*
X7685Y3225D01*
X7685Y3225D01*
G37*
G54D27*
X7685Y3225D02*
X7457Y3225D01*
X7438Y3244D01*
X7364Y3274D01*
X7285Y3275D01*
X6835Y3275D01*
X6761Y3244D01*
X6742Y3225D01*
X6507Y3225D01*
X6488Y3244D01*
X6414Y3274D01*
X6369Y3275D01*
X6303Y3319D01*
X6150Y3350D01*
X5725Y3350D01*
X5738Y3355D01*
X5794Y3411D01*
X5824Y3485D01*
X5825Y3564D01*
X5825Y3814D01*
X5794Y3888D01*
X5768Y3914D01*
X5837Y3983D01*
X5875Y4075D01*
X5875Y4137D01*
X5812Y4200D01*
X5450Y4200D01*
X5450Y4192D01*
X5350Y4192D01*
X5350Y4200D01*
X5342Y4200D01*
X5342Y4300D01*
X5350Y4300D01*
X5350Y4307D01*
X5450Y4307D01*
X5450Y4300D01*
X5812Y4300D01*
X5875Y4362D01*
X5875Y4424D01*
X5864Y4450D01*
X6446Y4450D01*
X7644Y3252D01*
X7685Y3225D01*
G54D10*
G36*
X8247Y8301D02*
X8096Y8150D01*
X6649Y8150D01*
X6649Y8576D01*
X6649Y8939D01*
X6649Y9039D01*
X6649Y9401D01*
X6636Y9414D01*
X6649Y9426D01*
X6649Y9789D01*
X6649Y9889D01*
X6649Y10251D01*
X6586Y10314D01*
X6524Y10314D01*
X6432Y10276D01*
X6362Y10206D01*
X6324Y10114D01*
X6324Y10014D01*
X6324Y9951D01*
X6386Y9889D01*
X6649Y9889D01*
X6649Y9789D01*
X6386Y9789D01*
X6324Y9726D01*
X6324Y9663D01*
X6324Y9564D01*
X6362Y9472D01*
X6420Y9414D01*
X6362Y9356D01*
X6324Y9264D01*
X6324Y9164D01*
X6324Y9101D01*
X6386Y9039D01*
X6649Y9039D01*
X6649Y8939D01*
X6386Y8939D01*
X6324Y8876D01*
X6324Y8813D01*
X6324Y8714D01*
X6362Y8622D01*
X6432Y8552D01*
X6524Y8514D01*
X6586Y8514D01*
X6649Y8576D01*
X6649Y8150D01*
X6000Y8150D01*
X5974Y8144D01*
X5974Y9364D01*
X5974Y9426D01*
X5911Y9489D01*
X5549Y9489D01*
X5549Y9226D01*
X5611Y9164D01*
X5674Y9164D01*
X5774Y9164D01*
X5866Y9202D01*
X5936Y9272D01*
X5974Y9364D01*
X5974Y8144D01*
X5904Y8130D01*
X5823Y8076D01*
X5449Y7702D01*
X5449Y9226D01*
X5449Y9489D01*
X5086Y9489D01*
X5024Y9426D01*
X5024Y9364D01*
X5062Y9272D01*
X5132Y9202D01*
X5224Y9164D01*
X5323Y9164D01*
X5386Y9164D01*
X5449Y9226D01*
X5449Y7702D01*
X4973Y7226D01*
X4919Y7145D01*
X4900Y7050D01*
X4900Y5050D01*
X4919Y4954D01*
X4973Y4873D01*
X5221Y4625D01*
X5125Y4624D01*
X5033Y4586D01*
X4962Y4516D01*
X4951Y4487D01*
X4649Y4789D01*
X4649Y9438D01*
X4573Y9622D01*
X4432Y9763D01*
X4249Y9839D01*
X4050Y9839D01*
X3866Y9763D01*
X3755Y9652D01*
X3748Y9654D01*
X3432Y9339D01*
X3438Y9333D01*
X3367Y9263D01*
X3362Y9268D01*
X3291Y9197D01*
X3291Y9339D01*
X2976Y9654D01*
X2880Y9627D01*
X2807Y9421D01*
X2818Y9202D01*
X2880Y9051D01*
X2976Y9024D01*
X3291Y9339D01*
X3291Y9197D01*
X3047Y8953D01*
X3074Y8858D01*
X3280Y8784D01*
X3498Y8795D01*
X3650Y8858D01*
X3677Y8953D01*
X3677Y8953D01*
X3722Y8908D01*
X3749Y8934D01*
X3749Y8514D01*
X3677Y8443D01*
X3317Y8082D01*
X3230Y7953D01*
X3225Y7927D01*
X3200Y7800D01*
X3200Y6872D01*
X3030Y6872D01*
X3030Y7622D01*
X2919Y7891D01*
X2774Y8036D01*
X2774Y9364D01*
X2774Y9426D01*
X2711Y9489D01*
X2349Y9489D01*
X2349Y9226D01*
X2411Y9164D01*
X2474Y9164D01*
X2574Y9164D01*
X2666Y9202D01*
X2736Y9272D01*
X2774Y9364D01*
X2774Y8036D01*
X2714Y8097D01*
X2445Y8208D01*
X2249Y8208D01*
X2249Y9226D01*
X2249Y9489D01*
X1886Y9489D01*
X1824Y9426D01*
X1824Y9364D01*
X1862Y9272D01*
X1932Y9202D01*
X2024Y9164D01*
X2123Y9164D01*
X2186Y9164D01*
X2249Y9226D01*
X2249Y8208D01*
X2154Y8208D01*
X1885Y8097D01*
X1679Y7892D01*
X1567Y7623D01*
X1567Y7332D01*
X1678Y7063D01*
X1884Y6857D01*
X2153Y6745D01*
X2444Y6745D01*
X2713Y6856D01*
X2918Y7062D01*
X3030Y7331D01*
X3030Y7622D01*
X3030Y6872D01*
X2930Y6872D01*
X2856Y6841D01*
X2800Y6785D01*
X2770Y6712D01*
X2770Y6632D01*
X2770Y6041D01*
X2800Y5968D01*
X2856Y5912D01*
X2930Y5881D01*
X3009Y5881D01*
X4269Y5881D01*
X4343Y5911D01*
X4399Y5968D01*
X4429Y6041D01*
X4429Y6121D01*
X4429Y6711D01*
X4399Y6785D01*
X4343Y6841D01*
X4269Y6872D01*
X4190Y6872D01*
X4000Y6872D01*
X4000Y7634D01*
X4432Y8066D01*
X4432Y8066D01*
X4518Y8196D01*
X4518Y8196D01*
X4518Y8196D01*
X4549Y8349D01*
X4549Y8349D01*
X4549Y9032D01*
X4572Y9055D01*
X4649Y9239D01*
X4649Y9438D01*
X4649Y4789D01*
X4521Y4917D01*
X4432Y4977D01*
X4429Y4977D01*
X4429Y5058D01*
X4399Y5131D01*
X4343Y5187D01*
X4269Y5218D01*
X4190Y5218D01*
X2930Y5218D01*
X2856Y5188D01*
X2800Y5131D01*
X2770Y5058D01*
X2770Y4978D01*
X2770Y4388D01*
X2800Y4314D01*
X2856Y4258D01*
X2930Y4227D01*
X3009Y4227D01*
X3225Y4227D01*
X3225Y3650D01*
X3249Y3524D01*
X3249Y3335D01*
X3280Y3261D01*
X3336Y3205D01*
X3349Y3200D01*
X3338Y3200D01*
X1375Y5163D01*
X1375Y12436D01*
X3769Y14830D01*
X4375Y15436D01*
X4374Y15325D01*
X4431Y15187D01*
X4537Y15082D01*
X4675Y15025D01*
X4824Y15024D01*
X4962Y15081D01*
X5067Y15187D01*
X5124Y15325D01*
X5124Y15386D01*
X5174Y15436D01*
X5174Y15235D01*
X5205Y15161D01*
X5261Y15105D01*
X5335Y15075D01*
X5414Y15074D01*
X5864Y15074D01*
X5938Y15105D01*
X5957Y15125D01*
X6080Y15125D01*
X6110Y15094D01*
X6184Y15064D01*
X6199Y15064D01*
X6199Y15046D01*
X6094Y15046D01*
X6021Y15016D01*
X5964Y14960D01*
X5934Y14886D01*
X5934Y14807D01*
X5934Y14764D01*
X4549Y14764D01*
X4443Y14743D01*
X4354Y14683D01*
X4354Y14683D01*
X4354Y14683D01*
X4004Y14333D01*
X3945Y14244D01*
X3924Y14139D01*
X3924Y13760D01*
X3861Y13734D01*
X3804Y13677D01*
X3799Y13664D01*
X3793Y13677D01*
X3737Y13733D01*
X3664Y13764D01*
X3584Y13764D01*
X3134Y13764D01*
X3061Y13734D01*
X3004Y13677D01*
X2974Y13604D01*
X2974Y13524D01*
X2974Y13274D01*
X3004Y13201D01*
X3060Y13144D01*
X3074Y13139D01*
X3061Y13134D01*
X3004Y13077D01*
X2974Y13004D01*
X2974Y12924D01*
X2974Y12674D01*
X3004Y12601D01*
X3060Y12544D01*
X3087Y12533D01*
X3087Y10766D01*
X3079Y10763D01*
X3030Y10715D01*
X3030Y12346D01*
X2919Y12615D01*
X2714Y12821D01*
X2445Y12932D01*
X2154Y12932D01*
X1885Y12821D01*
X1679Y12616D01*
X1567Y12347D01*
X1567Y12056D01*
X1678Y11787D01*
X1884Y11581D01*
X2153Y11469D01*
X2444Y11469D01*
X2713Y11580D01*
X2918Y11786D01*
X3030Y12055D01*
X3030Y12346D01*
X3030Y10715D01*
X2938Y10622D01*
X2935Y10614D01*
X2499Y10614D01*
X2393Y10593D01*
X2304Y10533D01*
X2235Y10464D01*
X2034Y10464D01*
X1961Y10434D01*
X1904Y10377D01*
X1874Y10304D01*
X1874Y10224D01*
X1874Y9974D01*
X1904Y9901D01*
X1930Y9874D01*
X1862Y9805D01*
X1824Y9713D01*
X1824Y9651D01*
X1886Y9589D01*
X2249Y9589D01*
X2249Y9597D01*
X2349Y9597D01*
X2349Y9589D01*
X2711Y9589D01*
X2774Y9651D01*
X2774Y9713D01*
X2736Y9805D01*
X2667Y9874D01*
X2693Y9900D01*
X2724Y9974D01*
X2724Y10053D01*
X2724Y10064D01*
X2934Y10064D01*
X2938Y10056D01*
X3078Y9915D01*
X3191Y9869D01*
X3074Y9820D01*
X3047Y9725D01*
X3362Y9410D01*
X3677Y9725D01*
X3650Y9820D01*
X3524Y9865D01*
X3645Y9915D01*
X3755Y10025D01*
X3865Y9915D01*
X4049Y9839D01*
X4248Y9839D01*
X4432Y9915D01*
X4572Y10055D01*
X4576Y10064D01*
X5074Y10064D01*
X5074Y9974D01*
X5104Y9901D01*
X5130Y9874D01*
X5062Y9805D01*
X5024Y9713D01*
X5024Y9651D01*
X5086Y9589D01*
X5449Y9589D01*
X5449Y9597D01*
X5549Y9597D01*
X5549Y9589D01*
X5911Y9589D01*
X5974Y9651D01*
X5974Y9713D01*
X5936Y9805D01*
X5867Y9874D01*
X5893Y9900D01*
X5924Y9974D01*
X5924Y10053D01*
X5924Y10303D01*
X5893Y10377D01*
X5837Y10433D01*
X5764Y10464D01*
X5684Y10464D01*
X5563Y10464D01*
X5493Y10533D01*
X5404Y10593D01*
X5299Y10614D01*
X4576Y10614D01*
X4573Y10622D01*
X4474Y10721D01*
X4474Y12518D01*
X4537Y12544D01*
X4593Y12600D01*
X4624Y12674D01*
X4624Y12753D01*
X4624Y12864D01*
X4935Y12864D01*
X5604Y12194D01*
X5604Y12194D01*
X5693Y12135D01*
X5693Y12135D01*
X5799Y12114D01*
X5799Y12114D01*
X5934Y12114D01*
X5934Y11992D01*
X5964Y11918D01*
X6020Y11862D01*
X6094Y11831D01*
X6173Y11831D01*
X6311Y11831D01*
X6331Y11839D01*
X6350Y11831D01*
X6429Y11831D01*
X6567Y11831D01*
X6587Y11839D01*
X6606Y11831D01*
X6685Y11831D01*
X6748Y11831D01*
X6760Y11820D01*
X6852Y11781D01*
X6874Y11781D01*
X6936Y11844D01*
X6936Y11901D01*
X6953Y11918D01*
X6971Y11960D01*
X6977Y11946D01*
X6977Y11822D01*
X6996Y11727D01*
X7050Y11646D01*
X7224Y11471D01*
X7224Y11035D01*
X7255Y10961D01*
X7311Y10905D01*
X7320Y10901D01*
X7373Y10823D01*
X7401Y10795D01*
X7373Y10776D01*
X7122Y10525D01*
X7068Y10444D01*
X7049Y10349D01*
X7049Y10222D01*
X7034Y10207D01*
X6965Y10276D01*
X6873Y10314D01*
X6811Y10314D01*
X6749Y10251D01*
X6749Y9889D01*
X6757Y9889D01*
X6757Y9789D01*
X6749Y9789D01*
X6749Y9426D01*
X6761Y9414D01*
X6749Y9401D01*
X6749Y9039D01*
X6757Y9039D01*
X6757Y8939D01*
X6749Y8939D01*
X6749Y8576D01*
X6811Y8514D01*
X6873Y8514D01*
X6965Y8552D01*
X7034Y8621D01*
X7060Y8594D01*
X7134Y8564D01*
X7213Y8564D01*
X7463Y8564D01*
X7537Y8594D01*
X7593Y8650D01*
X7624Y8724D01*
X7624Y8803D01*
X7624Y9060D01*
X7794Y9231D01*
X7794Y9137D01*
X7794Y9141D01*
X7857Y9079D01*
X8041Y9079D01*
X8041Y8979D01*
X7857Y8979D01*
X7794Y8916D01*
X7794Y8921D01*
X7794Y8821D01*
X7833Y8729D01*
X7903Y8659D01*
X7995Y8621D01*
X8011Y8621D01*
X8074Y8684D01*
X8074Y8756D01*
X8128Y8702D01*
X8133Y8700D01*
X8133Y8684D01*
X8195Y8621D01*
X8212Y8621D01*
X8247Y8636D01*
X8247Y8301D01*
X8247Y8301D01*
G37*
G54D27*
X8247Y8301D02*
X8096Y8150D01*
X6649Y8150D01*
X6649Y8576D01*
X6649Y8939D01*
X6649Y9039D01*
X6649Y9401D01*
X6636Y9414D01*
X6649Y9426D01*
X6649Y9789D01*
X6649Y9889D01*
X6649Y10251D01*
X6586Y10314D01*
X6524Y10314D01*
X6432Y10276D01*
X6362Y10206D01*
X6324Y10114D01*
X6324Y10014D01*
X6324Y9951D01*
X6386Y9889D01*
X6649Y9889D01*
X6649Y9789D01*
X6386Y9789D01*
X6324Y9726D01*
X6324Y9663D01*
X6324Y9564D01*
X6362Y9472D01*
X6420Y9414D01*
X6362Y9356D01*
X6324Y9264D01*
X6324Y9164D01*
X6324Y9101D01*
X6386Y9039D01*
X6649Y9039D01*
X6649Y8939D01*
X6386Y8939D01*
X6324Y8876D01*
X6324Y8813D01*
X6324Y8714D01*
X6362Y8622D01*
X6432Y8552D01*
X6524Y8514D01*
X6586Y8514D01*
X6649Y8576D01*
X6649Y8150D01*
X6000Y8150D01*
X5974Y8144D01*
X5974Y9364D01*
X5974Y9426D01*
X5911Y9489D01*
X5549Y9489D01*
X5549Y9226D01*
X5611Y9164D01*
X5674Y9164D01*
X5774Y9164D01*
X5866Y9202D01*
X5936Y9272D01*
X5974Y9364D01*
X5974Y8144D01*
X5904Y8130D01*
X5823Y8076D01*
X5449Y7702D01*
X5449Y9226D01*
X5449Y9489D01*
X5086Y9489D01*
X5024Y9426D01*
X5024Y9364D01*
X5062Y9272D01*
X5132Y9202D01*
X5224Y9164D01*
X5323Y9164D01*
X5386Y9164D01*
X5449Y9226D01*
X5449Y7702D01*
X4973Y7226D01*
X4919Y7145D01*
X4900Y7050D01*
X4900Y5050D01*
X4919Y4954D01*
X4973Y4873D01*
X5221Y4625D01*
X5125Y4624D01*
X5033Y4586D01*
X4962Y4516D01*
X4951Y4487D01*
X4649Y4789D01*
X4649Y9438D01*
X4573Y9622D01*
X4432Y9763D01*
X4249Y9839D01*
X4050Y9839D01*
X3866Y9763D01*
X3755Y9652D01*
X3748Y9654D01*
X3432Y9339D01*
X3438Y9333D01*
X3367Y9263D01*
X3362Y9268D01*
X3291Y9197D01*
X3291Y9339D01*
X2976Y9654D01*
X2880Y9627D01*
X2807Y9421D01*
X2818Y9202D01*
X2880Y9051D01*
X2976Y9024D01*
X3291Y9339D01*
X3291Y9197D01*
X3047Y8953D01*
X3074Y8858D01*
X3280Y8784D01*
X3498Y8795D01*
X3650Y8858D01*
X3677Y8953D01*
X3677Y8953D01*
X3722Y8908D01*
X3749Y8934D01*
X3749Y8514D01*
X3677Y8443D01*
X3317Y8082D01*
X3230Y7953D01*
X3225Y7927D01*
X3200Y7800D01*
X3200Y6872D01*
X3030Y6872D01*
X3030Y7622D01*
X2919Y7891D01*
X2774Y8036D01*
X2774Y9364D01*
X2774Y9426D01*
X2711Y9489D01*
X2349Y9489D01*
X2349Y9226D01*
X2411Y9164D01*
X2474Y9164D01*
X2574Y9164D01*
X2666Y9202D01*
X2736Y9272D01*
X2774Y9364D01*
X2774Y8036D01*
X2714Y8097D01*
X2445Y8208D01*
X2249Y8208D01*
X2249Y9226D01*
X2249Y9489D01*
X1886Y9489D01*
X1824Y9426D01*
X1824Y9364D01*
X1862Y9272D01*
X1932Y9202D01*
X2024Y9164D01*
X2123Y9164D01*
X2186Y9164D01*
X2249Y9226D01*
X2249Y8208D01*
X2154Y8208D01*
X1885Y8097D01*
X1679Y7892D01*
X1567Y7623D01*
X1567Y7332D01*
X1678Y7063D01*
X1884Y6857D01*
X2153Y6745D01*
X2444Y6745D01*
X2713Y6856D01*
X2918Y7062D01*
X3030Y7331D01*
X3030Y7622D01*
X3030Y6872D01*
X2930Y6872D01*
X2856Y6841D01*
X2800Y6785D01*
X2770Y6712D01*
X2770Y6632D01*
X2770Y6041D01*
X2800Y5968D01*
X2856Y5912D01*
X2930Y5881D01*
X3009Y5881D01*
X4269Y5881D01*
X4343Y5911D01*
X4399Y5968D01*
X4429Y6041D01*
X4429Y6121D01*
X4429Y6711D01*
X4399Y6785D01*
X4343Y6841D01*
X4269Y6872D01*
X4190Y6872D01*
X4000Y6872D01*
X4000Y7634D01*
X4432Y8066D01*
X4432Y8066D01*
X4518Y8196D01*
X4518Y8196D01*
X4518Y8196D01*
X4549Y8349D01*
X4549Y8349D01*
X4549Y9032D01*
X4572Y9055D01*
X4649Y9239D01*
X4649Y9438D01*
X4649Y4789D01*
X4521Y4917D01*
X4432Y4977D01*
X4429Y4977D01*
X4429Y5058D01*
X4399Y5131D01*
X4343Y5187D01*
X4269Y5218D01*
X4190Y5218D01*
X2930Y5218D01*
X2856Y5188D01*
X2800Y5131D01*
X2770Y5058D01*
X2770Y4978D01*
X2770Y4388D01*
X2800Y4314D01*
X2856Y4258D01*
X2930Y4227D01*
X3009Y4227D01*
X3225Y4227D01*
X3225Y3650D01*
X3249Y3524D01*
X3249Y3335D01*
X3280Y3261D01*
X3336Y3205D01*
X3349Y3200D01*
X3338Y3200D01*
X1375Y5163D01*
X1375Y12436D01*
X3769Y14830D01*
X4375Y15436D01*
X4374Y15325D01*
X4431Y15187D01*
X4537Y15082D01*
X4675Y15025D01*
X4824Y15024D01*
X4962Y15081D01*
X5067Y15187D01*
X5124Y15325D01*
X5124Y15386D01*
X5174Y15436D01*
X5174Y15235D01*
X5205Y15161D01*
X5261Y15105D01*
X5335Y15075D01*
X5414Y15074D01*
X5864Y15074D01*
X5938Y15105D01*
X5957Y15125D01*
X6080Y15125D01*
X6110Y15094D01*
X6184Y15064D01*
X6199Y15064D01*
X6199Y15046D01*
X6094Y15046D01*
X6021Y15016D01*
X5964Y14960D01*
X5934Y14886D01*
X5934Y14807D01*
X5934Y14764D01*
X4549Y14764D01*
X4443Y14743D01*
X4354Y14683D01*
X4354Y14683D01*
X4354Y14683D01*
X4004Y14333D01*
X3945Y14244D01*
X3924Y14139D01*
X3924Y13760D01*
X3861Y13734D01*
X3804Y13677D01*
X3799Y13664D01*
X3793Y13677D01*
X3737Y13733D01*
X3664Y13764D01*
X3584Y13764D01*
X3134Y13764D01*
X3061Y13734D01*
X3004Y13677D01*
X2974Y13604D01*
X2974Y13524D01*
X2974Y13274D01*
X3004Y13201D01*
X3060Y13144D01*
X3074Y13139D01*
X3061Y13134D01*
X3004Y13077D01*
X2974Y13004D01*
X2974Y12924D01*
X2974Y12674D01*
X3004Y12601D01*
X3060Y12544D01*
X3087Y12533D01*
X3087Y10766D01*
X3079Y10763D01*
X3030Y10715D01*
X3030Y12346D01*
X2919Y12615D01*
X2714Y12821D01*
X2445Y12932D01*
X2154Y12932D01*
X1885Y12821D01*
X1679Y12616D01*
X1567Y12347D01*
X1567Y12056D01*
X1678Y11787D01*
X1884Y11581D01*
X2153Y11469D01*
X2444Y11469D01*
X2713Y11580D01*
X2918Y11786D01*
X3030Y12055D01*
X3030Y12346D01*
X3030Y10715D01*
X2938Y10622D01*
X2935Y10614D01*
X2499Y10614D01*
X2393Y10593D01*
X2304Y10533D01*
X2235Y10464D01*
X2034Y10464D01*
X1961Y10434D01*
X1904Y10377D01*
X1874Y10304D01*
X1874Y10224D01*
X1874Y9974D01*
X1904Y9901D01*
X1930Y9874D01*
X1862Y9805D01*
X1824Y9713D01*
X1824Y9651D01*
X1886Y9589D01*
X2249Y9589D01*
X2249Y9597D01*
X2349Y9597D01*
X2349Y9589D01*
X2711Y9589D01*
X2774Y9651D01*
X2774Y9713D01*
X2736Y9805D01*
X2667Y9874D01*
X2693Y9900D01*
X2724Y9974D01*
X2724Y10053D01*
X2724Y10064D01*
X2934Y10064D01*
X2938Y10056D01*
X3078Y9915D01*
X3191Y9869D01*
X3074Y9820D01*
X3047Y9725D01*
X3362Y9410D01*
X3677Y9725D01*
X3650Y9820D01*
X3524Y9865D01*
X3645Y9915D01*
X3755Y10025D01*
X3865Y9915D01*
X4049Y9839D01*
X4248Y9839D01*
X4432Y9915D01*
X4572Y10055D01*
X4576Y10064D01*
X5074Y10064D01*
X5074Y9974D01*
X5104Y9901D01*
X5130Y9874D01*
X5062Y9805D01*
X5024Y9713D01*
X5024Y9651D01*
X5086Y9589D01*
X5449Y9589D01*
X5449Y9597D01*
X5549Y9597D01*
X5549Y9589D01*
X5911Y9589D01*
X5974Y9651D01*
X5974Y9713D01*
X5936Y9805D01*
X5867Y9874D01*
X5893Y9900D01*
X5924Y9974D01*
X5924Y10053D01*
X5924Y10303D01*
X5893Y10377D01*
X5837Y10433D01*
X5764Y10464D01*
X5684Y10464D01*
X5563Y10464D01*
X5493Y10533D01*
X5404Y10593D01*
X5299Y10614D01*
X4576Y10614D01*
X4573Y10622D01*
X4474Y10721D01*
X4474Y12518D01*
X4537Y12544D01*
X4593Y12600D01*
X4624Y12674D01*
X4624Y12753D01*
X4624Y12864D01*
X4935Y12864D01*
X5604Y12194D01*
X5604Y12194D01*
X5693Y12135D01*
X5693Y12135D01*
X5799Y12114D01*
X5799Y12114D01*
X5934Y12114D01*
X5934Y11992D01*
X5964Y11918D01*
X6020Y11862D01*
X6094Y11831D01*
X6173Y11831D01*
X6311Y11831D01*
X6331Y11839D01*
X6350Y11831D01*
X6429Y11831D01*
X6567Y11831D01*
X6587Y11839D01*
X6606Y11831D01*
X6685Y11831D01*
X6748Y11831D01*
X6760Y11820D01*
X6852Y11781D01*
X6874Y11781D01*
X6936Y11844D01*
X6936Y11901D01*
X6953Y11918D01*
X6971Y11960D01*
X6977Y11946D01*
X6977Y11822D01*
X6996Y11727D01*
X7050Y11646D01*
X7224Y11471D01*
X7224Y11035D01*
X7255Y10961D01*
X7311Y10905D01*
X7320Y10901D01*
X7373Y10823D01*
X7401Y10795D01*
X7373Y10776D01*
X7122Y10525D01*
X7068Y10444D01*
X7049Y10349D01*
X7049Y10222D01*
X7034Y10207D01*
X6965Y10276D01*
X6873Y10314D01*
X6811Y10314D01*
X6749Y10251D01*
X6749Y9889D01*
X6757Y9889D01*
X6757Y9789D01*
X6749Y9789D01*
X6749Y9426D01*
X6761Y9414D01*
X6749Y9401D01*
X6749Y9039D01*
X6757Y9039D01*
X6757Y8939D01*
X6749Y8939D01*
X6749Y8576D01*
X6811Y8514D01*
X6873Y8514D01*
X6965Y8552D01*
X7034Y8621D01*
X7060Y8594D01*
X7134Y8564D01*
X7213Y8564D01*
X7463Y8564D01*
X7537Y8594D01*
X7593Y8650D01*
X7624Y8724D01*
X7624Y8803D01*
X7624Y9060D01*
X7794Y9231D01*
X7794Y9137D01*
X7794Y9141D01*
X7857Y9079D01*
X8041Y9079D01*
X8041Y8979D01*
X7857Y8979D01*
X7794Y8916D01*
X7794Y8921D01*
X7794Y8821D01*
X7833Y8729D01*
X7903Y8659D01*
X7995Y8621D01*
X8011Y8621D01*
X8074Y8684D01*
X8074Y8756D01*
X8128Y8702D01*
X8133Y8700D01*
X8133Y8684D01*
X8195Y8621D01*
X8212Y8621D01*
X8247Y8636D01*
X8247Y8301D01*
G54D10*
G36*
X8925Y15713D02*
X8900Y15689D01*
X8399Y15689D01*
X8393Y15702D01*
X8337Y15758D01*
X8329Y15762D01*
X8366Y15777D01*
X8436Y15847D01*
X8474Y15939D01*
X8474Y16388D01*
X8436Y16480D01*
X8366Y16551D01*
X8274Y16589D01*
X8174Y16589D01*
X8061Y16589D01*
X7999Y16526D01*
X7999Y16214D01*
X8411Y16214D01*
X8474Y16276D01*
X8474Y16388D01*
X8474Y15939D01*
X8474Y16051D01*
X8411Y16114D01*
X7999Y16114D01*
X7999Y16106D01*
X7899Y16106D01*
X7899Y16114D01*
X7891Y16114D01*
X7891Y16214D01*
X7899Y16214D01*
X7899Y16526D01*
X7836Y16589D01*
X7723Y16589D01*
X7624Y16589D01*
X7532Y16551D01*
X7462Y16480D01*
X7424Y16388D01*
X7424Y16364D01*
X7424Y16364D01*
X7324Y16364D01*
X7261Y16364D01*
X7199Y16301D01*
X7199Y16039D01*
X7207Y16039D01*
X7207Y15939D01*
X7199Y15939D01*
X7199Y15931D01*
X7099Y15931D01*
X7099Y15939D01*
X7099Y16039D01*
X7099Y16301D01*
X7036Y16364D01*
X6973Y16364D01*
X6874Y16364D01*
X6799Y16333D01*
X6724Y16364D01*
X6624Y16364D01*
X6561Y16364D01*
X6499Y16301D01*
X6499Y16039D01*
X6736Y16039D01*
X6861Y16039D01*
X7099Y16039D01*
X7099Y15939D01*
X6861Y15939D01*
X6736Y15939D01*
X6499Y15939D01*
X6499Y15931D01*
X6399Y15931D01*
X6399Y15939D01*
X6391Y15939D01*
X6391Y16039D01*
X6399Y16039D01*
X6399Y16301D01*
X6336Y16364D01*
X6273Y16364D01*
X6174Y16364D01*
X6082Y16326D01*
X6012Y16255D01*
X5999Y16225D01*
X5994Y16238D01*
X5938Y16294D01*
X5864Y16324D01*
X5785Y16325D01*
X5335Y16325D01*
X5261Y16294D01*
X5205Y16238D01*
X5199Y16223D01*
X5199Y16223D01*
X5155Y16194D01*
X4736Y15775D01*
X4713Y15775D01*
X5863Y16925D01*
X8286Y16925D01*
X8925Y16286D01*
X8925Y15713D01*
X8925Y15713D01*
G37*
G54D27*
X8925Y15713D02*
X8900Y15689D01*
X8399Y15689D01*
X8393Y15702D01*
X8337Y15758D01*
X8329Y15762D01*
X8366Y15777D01*
X8436Y15847D01*
X8474Y15939D01*
X8474Y16388D01*
X8436Y16480D01*
X8366Y16551D01*
X8274Y16589D01*
X8174Y16589D01*
X8061Y16589D01*
X7999Y16526D01*
X7999Y16214D01*
X8411Y16214D01*
X8474Y16276D01*
X8474Y16388D01*
X8474Y15939D01*
X8474Y16051D01*
X8411Y16114D01*
X7999Y16114D01*
X7999Y16106D01*
X7899Y16106D01*
X7899Y16114D01*
X7891Y16114D01*
X7891Y16214D01*
X7899Y16214D01*
X7899Y16526D01*
X7836Y16589D01*
X7723Y16589D01*
X7624Y16589D01*
X7532Y16551D01*
X7462Y16480D01*
X7424Y16388D01*
X7424Y16364D01*
X7424Y16364D01*
X7324Y16364D01*
X7261Y16364D01*
X7199Y16301D01*
X7199Y16039D01*
X7207Y16039D01*
X7207Y15939D01*
X7199Y15939D01*
X7199Y15931D01*
X7099Y15931D01*
X7099Y15939D01*
X7099Y16039D01*
X7099Y16301D01*
X7036Y16364D01*
X6973Y16364D01*
X6874Y16364D01*
X6799Y16333D01*
X6724Y16364D01*
X6624Y16364D01*
X6561Y16364D01*
X6499Y16301D01*
X6499Y16039D01*
X6736Y16039D01*
X6861Y16039D01*
X7099Y16039D01*
X7099Y15939D01*
X6861Y15939D01*
X6736Y15939D01*
X6499Y15939D01*
X6499Y15931D01*
X6399Y15931D01*
X6399Y15939D01*
X6391Y15939D01*
X6391Y16039D01*
X6399Y16039D01*
X6399Y16301D01*
X6336Y16364D01*
X6273Y16364D01*
X6174Y16364D01*
X6082Y16326D01*
X6012Y16255D01*
X5999Y16225D01*
X5994Y16238D01*
X5938Y16294D01*
X5864Y16324D01*
X5785Y16325D01*
X5335Y16325D01*
X5261Y16294D01*
X5205Y16238D01*
X5199Y16223D01*
X5199Y16223D01*
X5155Y16194D01*
X4736Y15775D01*
X4713Y15775D01*
X5863Y16925D01*
X8286Y16925D01*
X8925Y16286D01*
X8925Y15713D01*
G54D10*
G36*
X9300Y1304D02*
X9295Y1281D01*
X9284Y1265D01*
X9268Y1254D01*
X9245Y1250D01*
X8700Y1250D01*
X8700Y2279D01*
X8700Y2316D01*
X8637Y2379D01*
X8275Y2379D01*
X8275Y2141D01*
X8337Y2079D01*
X8400Y2079D01*
X8499Y2079D01*
X8591Y2117D01*
X8662Y2187D01*
X8700Y2279D01*
X8700Y1250D01*
X8175Y1250D01*
X8175Y2141D01*
X8175Y2379D01*
X7812Y2379D01*
X7750Y2316D01*
X7749Y2279D01*
X7787Y2187D01*
X7858Y2117D01*
X7950Y2079D01*
X8049Y2079D01*
X8112Y2079D01*
X8175Y2141D01*
X8175Y1250D01*
X7575Y1250D01*
X7575Y2175D01*
X7575Y2237D01*
X7512Y2300D01*
X7150Y2300D01*
X7150Y2037D01*
X7212Y1975D01*
X7275Y1974D01*
X7374Y1975D01*
X7466Y2013D01*
X7537Y2083D01*
X7575Y2175D01*
X7575Y1250D01*
X7050Y1250D01*
X7050Y2037D01*
X7050Y2300D01*
X6687Y2300D01*
X6625Y2237D01*
X6562Y2300D01*
X6200Y2300D01*
X6200Y2037D01*
X6262Y1975D01*
X6325Y1974D01*
X6424Y1975D01*
X6516Y2013D01*
X6587Y2083D01*
X6625Y2175D01*
X6662Y2083D01*
X6733Y2013D01*
X6825Y1975D01*
X6924Y1974D01*
X6987Y1975D01*
X7050Y2037D01*
X7050Y1250D01*
X6100Y1250D01*
X6100Y2037D01*
X6100Y2300D01*
X5737Y2300D01*
X5675Y2237D01*
X5674Y2175D01*
X5712Y2083D01*
X5783Y2013D01*
X5875Y1975D01*
X5974Y1974D01*
X6037Y1975D01*
X6100Y2037D01*
X6100Y1250D01*
X2991Y1250D01*
X3011Y1270D01*
X3199Y1722D01*
X3199Y2212D01*
X3012Y2664D01*
X2666Y3011D01*
X2214Y3199D01*
X1724Y3199D01*
X1272Y3012D01*
X1150Y2890D01*
X1150Y4611D01*
X3030Y2730D01*
X3030Y2730D01*
X3030Y2730D01*
X3055Y2705D01*
X3144Y2645D01*
X3250Y2625D01*
X3355Y2645D01*
X3361Y2650D01*
X3975Y2650D01*
X3975Y2175D01*
X4000Y2047D01*
X4005Y2021D01*
X4092Y1892D01*
X4217Y1767D01*
X4346Y1680D01*
X4499Y1650D01*
X4653Y1680D01*
X4782Y1767D01*
X4869Y1896D01*
X4899Y2050D01*
X4869Y2203D01*
X4782Y2332D01*
X4775Y2340D01*
X4775Y2550D01*
X5685Y2550D01*
X5674Y2524D01*
X5675Y2462D01*
X5737Y2400D01*
X6100Y2400D01*
X6100Y2407D01*
X6200Y2407D01*
X6200Y2400D01*
X6562Y2400D01*
X6625Y2462D01*
X6687Y2400D01*
X7050Y2400D01*
X7050Y2407D01*
X7150Y2407D01*
X7150Y2400D01*
X7512Y2400D01*
X7575Y2462D01*
X7575Y2524D01*
X7537Y2616D01*
X7478Y2675D01*
X7792Y2675D01*
X7787Y2670D01*
X7749Y2578D01*
X7750Y2541D01*
X7812Y2479D01*
X8175Y2479D01*
X8175Y2487D01*
X8275Y2487D01*
X8275Y2479D01*
X8637Y2479D01*
X8700Y2541D01*
X8700Y2578D01*
X8662Y2670D01*
X8618Y2714D01*
X8619Y2715D01*
X8649Y2789D01*
X8650Y2868D01*
X8650Y3068D01*
X8619Y3142D01*
X8582Y3179D01*
X8619Y3215D01*
X8649Y3289D01*
X8650Y3368D01*
X8650Y3568D01*
X8619Y3642D01*
X8582Y3679D01*
X8596Y3692D01*
X8624Y3698D01*
X8705Y3752D01*
X9300Y4346D01*
X9300Y1304D01*
X9300Y1304D01*
G37*
G54D27*
X9300Y1304D02*
X9295Y1281D01*
X9284Y1265D01*
X9268Y1254D01*
X9245Y1250D01*
X8700Y1250D01*
X8700Y2279D01*
X8700Y2316D01*
X8637Y2379D01*
X8275Y2379D01*
X8275Y2141D01*
X8337Y2079D01*
X8400Y2079D01*
X8499Y2079D01*
X8591Y2117D01*
X8662Y2187D01*
X8700Y2279D01*
X8700Y1250D01*
X8175Y1250D01*
X8175Y2141D01*
X8175Y2379D01*
X7812Y2379D01*
X7750Y2316D01*
X7749Y2279D01*
X7787Y2187D01*
X7858Y2117D01*
X7950Y2079D01*
X8049Y2079D01*
X8112Y2079D01*
X8175Y2141D01*
X8175Y1250D01*
X7575Y1250D01*
X7575Y2175D01*
X7575Y2237D01*
X7512Y2300D01*
X7150Y2300D01*
X7150Y2037D01*
X7212Y1975D01*
X7275Y1974D01*
X7374Y1975D01*
X7466Y2013D01*
X7537Y2083D01*
X7575Y2175D01*
X7575Y1250D01*
X7050Y1250D01*
X7050Y2037D01*
X7050Y2300D01*
X6687Y2300D01*
X6625Y2237D01*
X6562Y2300D01*
X6200Y2300D01*
X6200Y2037D01*
X6262Y1975D01*
X6325Y1974D01*
X6424Y1975D01*
X6516Y2013D01*
X6587Y2083D01*
X6625Y2175D01*
X6662Y2083D01*
X6733Y2013D01*
X6825Y1975D01*
X6924Y1974D01*
X6987Y1975D01*
X7050Y2037D01*
X7050Y1250D01*
X6100Y1250D01*
X6100Y2037D01*
X6100Y2300D01*
X5737Y2300D01*
X5675Y2237D01*
X5674Y2175D01*
X5712Y2083D01*
X5783Y2013D01*
X5875Y1975D01*
X5974Y1974D01*
X6037Y1975D01*
X6100Y2037D01*
X6100Y1250D01*
X2991Y1250D01*
X3011Y1270D01*
X3199Y1722D01*
X3199Y2212D01*
X3012Y2664D01*
X2666Y3011D01*
X2214Y3199D01*
X1724Y3199D01*
X1272Y3012D01*
X1150Y2890D01*
X1150Y4611D01*
X3030Y2730D01*
X3030Y2730D01*
X3030Y2730D01*
X3055Y2705D01*
X3144Y2645D01*
X3250Y2625D01*
X3355Y2645D01*
X3361Y2650D01*
X3975Y2650D01*
X3975Y2175D01*
X4000Y2047D01*
X4005Y2021D01*
X4092Y1892D01*
X4217Y1767D01*
X4346Y1680D01*
X4499Y1650D01*
X4653Y1680D01*
X4782Y1767D01*
X4869Y1896D01*
X4899Y2050D01*
X4869Y2203D01*
X4782Y2332D01*
X4775Y2340D01*
X4775Y2550D01*
X5685Y2550D01*
X5674Y2524D01*
X5675Y2462D01*
X5737Y2400D01*
X6100Y2400D01*
X6100Y2407D01*
X6200Y2407D01*
X6200Y2400D01*
X6562Y2400D01*
X6625Y2462D01*
X6687Y2400D01*
X7050Y2400D01*
X7050Y2407D01*
X7150Y2407D01*
X7150Y2400D01*
X7512Y2400D01*
X7575Y2462D01*
X7575Y2524D01*
X7537Y2616D01*
X7478Y2675D01*
X7792Y2675D01*
X7787Y2670D01*
X7749Y2578D01*
X7750Y2541D01*
X7812Y2479D01*
X8175Y2479D01*
X8175Y2487D01*
X8275Y2487D01*
X8275Y2479D01*
X8637Y2479D01*
X8700Y2541D01*
X8700Y2578D01*
X8662Y2670D01*
X8618Y2714D01*
X8619Y2715D01*
X8649Y2789D01*
X8650Y2868D01*
X8650Y3068D01*
X8619Y3142D01*
X8582Y3179D01*
X8619Y3215D01*
X8649Y3289D01*
X8650Y3368D01*
X8650Y3568D01*
X8619Y3642D01*
X8582Y3679D01*
X8596Y3692D01*
X8624Y3698D01*
X8705Y3752D01*
X9300Y4346D01*
X9300Y1304D01*
G54D10*
G36*
X12045Y11039D02*
X11782Y11039D01*
X11737Y11083D01*
X11664Y11114D01*
X11584Y11114D01*
X11134Y11114D01*
X11061Y11084D01*
X11042Y11065D01*
X11036Y11080D01*
X10966Y11151D01*
X10874Y11189D01*
X10774Y11189D01*
X10661Y11189D01*
X10599Y11126D01*
X10599Y10814D01*
X10607Y10814D01*
X10607Y10714D01*
X10599Y10714D01*
X10599Y10706D01*
X10499Y10706D01*
X10499Y10714D01*
X10491Y10714D01*
X10491Y10814D01*
X10499Y10814D01*
X10499Y11126D01*
X10436Y11189D01*
X10323Y11189D01*
X10224Y11189D01*
X10132Y11151D01*
X10062Y11080D01*
X10024Y10988D01*
X10024Y10964D01*
X10024Y10964D01*
X9924Y10964D01*
X9861Y10964D01*
X9799Y10901D01*
X9799Y10639D01*
X9807Y10639D01*
X9807Y10539D01*
X9799Y10539D01*
X9799Y10531D01*
X9699Y10531D01*
X9699Y10539D01*
X9336Y10539D01*
X9274Y10476D01*
X9274Y10414D01*
X9312Y10322D01*
X9380Y10253D01*
X9366Y10239D01*
X9352Y10239D01*
X9263Y10328D01*
X9263Y10683D01*
X9278Y10697D01*
X9336Y10639D01*
X9699Y10639D01*
X9699Y10901D01*
X9636Y10964D01*
X9573Y10964D01*
X9474Y10964D01*
X9382Y10926D01*
X9374Y10918D01*
X9375Y11024D01*
X9318Y11162D01*
X9230Y11250D01*
X10500Y11250D01*
X10595Y11269D01*
X10676Y11323D01*
X10903Y11550D01*
X11499Y11550D01*
X11499Y11389D01*
X11518Y11293D01*
X11572Y11212D01*
X11653Y11158D01*
X11749Y11139D01*
X11945Y11139D01*
X12045Y11039D01*
X12045Y11039D01*
G37*
G54D27*
X12045Y11039D02*
X11782Y11039D01*
X11737Y11083D01*
X11664Y11114D01*
X11584Y11114D01*
X11134Y11114D01*
X11061Y11084D01*
X11042Y11065D01*
X11036Y11080D01*
X10966Y11151D01*
X10874Y11189D01*
X10774Y11189D01*
X10661Y11189D01*
X10599Y11126D01*
X10599Y10814D01*
X10607Y10814D01*
X10607Y10714D01*
X10599Y10714D01*
X10599Y10706D01*
X10499Y10706D01*
X10499Y10714D01*
X10491Y10714D01*
X10491Y10814D01*
X10499Y10814D01*
X10499Y11126D01*
X10436Y11189D01*
X10323Y11189D01*
X10224Y11189D01*
X10132Y11151D01*
X10062Y11080D01*
X10024Y10988D01*
X10024Y10964D01*
X10024Y10964D01*
X9924Y10964D01*
X9861Y10964D01*
X9799Y10901D01*
X9799Y10639D01*
X9807Y10639D01*
X9807Y10539D01*
X9799Y10539D01*
X9799Y10531D01*
X9699Y10531D01*
X9699Y10539D01*
X9336Y10539D01*
X9274Y10476D01*
X9274Y10414D01*
X9312Y10322D01*
X9380Y10253D01*
X9366Y10239D01*
X9352Y10239D01*
X9263Y10328D01*
X9263Y10683D01*
X9278Y10697D01*
X9336Y10639D01*
X9699Y10639D01*
X9699Y10901D01*
X9636Y10964D01*
X9573Y10964D01*
X9474Y10964D01*
X9382Y10926D01*
X9374Y10918D01*
X9375Y11024D01*
X9318Y11162D01*
X9230Y11250D01*
X10500Y11250D01*
X10595Y11269D01*
X10676Y11323D01*
X10903Y11550D01*
X11499Y11550D01*
X11499Y11389D01*
X11518Y11293D01*
X11572Y11212D01*
X11653Y11158D01*
X11749Y11139D01*
X11945Y11139D01*
X12045Y11039D01*
G54D10*
G36*
X12124Y15864D02*
X12111Y15859D01*
X12054Y15802D01*
X12051Y15794D01*
X12036Y15831D01*
X11965Y15901D01*
X11873Y15939D01*
X11761Y15939D01*
X11699Y15876D01*
X11699Y15464D01*
X11707Y15464D01*
X11707Y15364D01*
X11699Y15364D01*
X11699Y15356D01*
X11599Y15356D01*
X11599Y15364D01*
X11411Y15364D01*
X11286Y15364D01*
X11099Y15364D01*
X11099Y15356D01*
X10999Y15356D01*
X10999Y15364D01*
X10991Y15364D01*
X10991Y15464D01*
X10999Y15464D01*
X10999Y15876D01*
X10936Y15939D01*
X10824Y15939D01*
X10732Y15901D01*
X10662Y15831D01*
X10647Y15794D01*
X10643Y15802D01*
X10587Y15858D01*
X10514Y15889D01*
X10434Y15889D01*
X10084Y15889D01*
X10011Y15859D01*
X9954Y15802D01*
X9924Y15729D01*
X9924Y15649D01*
X9924Y15099D01*
X9954Y15026D01*
X10010Y14969D01*
X10011Y14969D01*
X9986Y14959D01*
X9929Y14902D01*
X9924Y14889D01*
X9782Y14889D01*
X9737Y14933D01*
X9664Y14964D01*
X9584Y14964D01*
X9134Y14964D01*
X9061Y14934D01*
X9005Y14878D01*
X9024Y14925D01*
X9025Y15074D01*
X8998Y15139D01*
X9014Y15139D01*
X9119Y15160D01*
X9119Y15160D01*
X9208Y15219D01*
X9394Y15405D01*
X9394Y15405D01*
X9434Y15465D01*
X9454Y15494D01*
X9454Y15494D01*
X9474Y15600D01*
X9475Y15600D01*
X9475Y16125D01*
X10750Y16125D01*
X10855Y16145D01*
X10855Y16145D01*
X10944Y16205D01*
X11025Y16286D01*
X11024Y16175D01*
X11081Y16037D01*
X11180Y15939D01*
X11161Y15939D01*
X11099Y15876D01*
X11099Y15464D01*
X11286Y15464D01*
X11411Y15464D01*
X11599Y15464D01*
X11599Y15876D01*
X11564Y15912D01*
X11612Y15931D01*
X11656Y15976D01*
X11755Y15995D01*
X11755Y15995D01*
X11844Y16055D01*
X12024Y16236D01*
X12024Y16225D01*
X12081Y16087D01*
X12124Y16045D01*
X12124Y15864D01*
X12124Y15864D01*
G37*
G54D27*
X12124Y15864D02*
X12111Y15859D01*
X12054Y15802D01*
X12051Y15794D01*
X12036Y15831D01*
X11965Y15901D01*
X11873Y15939D01*
X11761Y15939D01*
X11699Y15876D01*
X11699Y15464D01*
X11707Y15464D01*
X11707Y15364D01*
X11699Y15364D01*
X11699Y15356D01*
X11599Y15356D01*
X11599Y15364D01*
X11411Y15364D01*
X11286Y15364D01*
X11099Y15364D01*
X11099Y15356D01*
X10999Y15356D01*
X10999Y15364D01*
X10991Y15364D01*
X10991Y15464D01*
X10999Y15464D01*
X10999Y15876D01*
X10936Y15939D01*
X10824Y15939D01*
X10732Y15901D01*
X10662Y15831D01*
X10647Y15794D01*
X10643Y15802D01*
X10587Y15858D01*
X10514Y15889D01*
X10434Y15889D01*
X10084Y15889D01*
X10011Y15859D01*
X9954Y15802D01*
X9924Y15729D01*
X9924Y15649D01*
X9924Y15099D01*
X9954Y15026D01*
X10010Y14969D01*
X10011Y14969D01*
X9986Y14959D01*
X9929Y14902D01*
X9924Y14889D01*
X9782Y14889D01*
X9737Y14933D01*
X9664Y14964D01*
X9584Y14964D01*
X9134Y14964D01*
X9061Y14934D01*
X9005Y14878D01*
X9024Y14925D01*
X9025Y15074D01*
X8998Y15139D01*
X9014Y15139D01*
X9119Y15160D01*
X9119Y15160D01*
X9208Y15219D01*
X9394Y15405D01*
X9394Y15405D01*
X9434Y15465D01*
X9454Y15494D01*
X9454Y15494D01*
X9474Y15600D01*
X9475Y15600D01*
X9475Y16125D01*
X10750Y16125D01*
X10855Y16145D01*
X10855Y16145D01*
X10944Y16205D01*
X11025Y16286D01*
X11024Y16175D01*
X11081Y16037D01*
X11180Y15939D01*
X11161Y15939D01*
X11099Y15876D01*
X11099Y15464D01*
X11286Y15464D01*
X11411Y15464D01*
X11599Y15464D01*
X11599Y15876D01*
X11564Y15912D01*
X11612Y15931D01*
X11656Y15976D01*
X11755Y15995D01*
X11755Y15995D01*
X11844Y16055D01*
X12024Y16236D01*
X12024Y16225D01*
X12081Y16087D01*
X12124Y16045D01*
X12124Y15864D01*
G54D10*
G36*
X12602Y10042D02*
X12575Y9974D01*
X12574Y9878D01*
X12467Y9771D01*
X12413Y9690D01*
X12394Y9594D01*
X12394Y9536D01*
X12348Y9536D01*
X12348Y9536D01*
X12270Y9536D01*
X12266Y9536D01*
X12254Y9548D01*
X12162Y9586D01*
X12145Y9586D01*
X12083Y9524D01*
X12083Y9508D01*
X12078Y9506D01*
X12024Y9452D01*
X12024Y9524D01*
X11961Y9586D01*
X11945Y9586D01*
X11853Y9548D01*
X11783Y9478D01*
X11744Y9386D01*
X11744Y9287D01*
X11744Y9291D01*
X11807Y9229D01*
X11991Y9229D01*
X11991Y9129D01*
X11807Y9129D01*
X11744Y9066D01*
X11744Y9071D01*
X11744Y8971D01*
X11783Y8879D01*
X11853Y8809D01*
X11945Y8771D01*
X11961Y8771D01*
X11999Y8808D01*
X11999Y8622D01*
X11984Y8607D01*
X11915Y8676D01*
X11823Y8714D01*
X11761Y8714D01*
X11699Y8651D01*
X11699Y8289D01*
X11707Y8289D01*
X11707Y8189D01*
X11699Y8189D01*
X11699Y8181D01*
X11599Y8181D01*
X11599Y8189D01*
X11599Y8289D01*
X11599Y8651D01*
X11536Y8714D01*
X11474Y8714D01*
X11382Y8676D01*
X11312Y8606D01*
X11274Y8514D01*
X11274Y8414D01*
X11274Y8351D01*
X11336Y8289D01*
X11599Y8289D01*
X11599Y8189D01*
X11336Y8189D01*
X11274Y8126D01*
X11274Y8063D01*
X11274Y7964D01*
X11312Y7872D01*
X11382Y7802D01*
X11388Y7800D01*
X11074Y7800D01*
X11074Y8439D01*
X11074Y8551D01*
X11011Y8614D01*
X10599Y8614D01*
X10599Y8301D01*
X10661Y8239D01*
X10774Y8239D01*
X10874Y8239D01*
X10966Y8277D01*
X11036Y8347D01*
X11074Y8439D01*
X11074Y7800D01*
X9800Y7800D01*
X9704Y7780D01*
X9699Y7777D01*
X9699Y8526D01*
X9699Y8789D01*
X9336Y8789D01*
X9274Y8726D01*
X9274Y8664D01*
X9312Y8572D01*
X9382Y8502D01*
X9474Y8464D01*
X9573Y8464D01*
X9636Y8464D01*
X9699Y8526D01*
X9699Y7777D01*
X9623Y7726D01*
X9623Y7726D01*
X9373Y7476D01*
X9319Y7395D01*
X9300Y7300D01*
X9300Y5853D01*
X8625Y5179D01*
X8582Y5179D01*
X8582Y5179D01*
X8619Y5215D01*
X8649Y5289D01*
X8650Y5368D01*
X8650Y5568D01*
X8619Y5642D01*
X8618Y5643D01*
X8662Y5687D01*
X8700Y5779D01*
X8700Y6078D01*
X8662Y6170D01*
X8591Y6240D01*
X8499Y6279D01*
X8400Y6279D01*
X8337Y6279D01*
X8275Y6216D01*
X8275Y5979D01*
X8637Y5979D01*
X8700Y6041D01*
X8700Y6078D01*
X8700Y5779D01*
X8700Y5816D01*
X8637Y5879D01*
X8275Y5879D01*
X8275Y5871D01*
X8175Y5871D01*
X8175Y5879D01*
X8175Y5979D01*
X8175Y6216D01*
X8112Y6279D01*
X8049Y6279D01*
X7950Y6279D01*
X7858Y6240D01*
X7787Y6170D01*
X7749Y6078D01*
X7750Y6041D01*
X7812Y5979D01*
X8175Y5979D01*
X8175Y5879D01*
X7812Y5879D01*
X7750Y5816D01*
X7749Y5779D01*
X7787Y5687D01*
X7796Y5679D01*
X7457Y5679D01*
X7443Y5693D01*
X7512Y5762D01*
X7550Y5854D01*
X7550Y6203D01*
X7512Y6295D01*
X7441Y6365D01*
X7349Y6404D01*
X7250Y6404D01*
X7187Y6404D01*
X7125Y6341D01*
X7125Y6079D01*
X7487Y6079D01*
X7550Y6141D01*
X7550Y6203D01*
X7550Y5854D01*
X7550Y5916D01*
X7487Y5979D01*
X7125Y5979D01*
X7125Y5971D01*
X7025Y5971D01*
X7025Y5979D01*
X7025Y6079D01*
X7025Y6341D01*
X6962Y6404D01*
X6899Y6404D01*
X6800Y6404D01*
X6708Y6365D01*
X6637Y6295D01*
X6625Y6264D01*
X6625Y6379D01*
X6625Y7078D01*
X6587Y7170D01*
X6516Y7240D01*
X6424Y7279D01*
X6325Y7279D01*
X6087Y7279D01*
X6025Y7216D01*
X6025Y6779D01*
X6562Y6779D01*
X6625Y6841D01*
X6625Y7078D01*
X6625Y6379D01*
X6625Y6616D01*
X6562Y6679D01*
X6025Y6679D01*
X6025Y6241D01*
X6087Y6179D01*
X6325Y6179D01*
X6424Y6179D01*
X6516Y6217D01*
X6587Y6287D01*
X6625Y6379D01*
X6625Y6264D01*
X6599Y6203D01*
X6600Y6141D01*
X6662Y6079D01*
X7025Y6079D01*
X7025Y5979D01*
X6662Y5979D01*
X6600Y5916D01*
X6599Y5854D01*
X6637Y5762D01*
X6706Y5693D01*
X6692Y5679D01*
X6575Y5679D01*
X6575Y5768D01*
X6544Y5842D01*
X6488Y5898D01*
X6414Y5929D01*
X6335Y5929D01*
X5535Y5929D01*
X5461Y5898D01*
X5405Y5842D01*
X5400Y5829D01*
X5400Y6250D01*
X5433Y6217D01*
X5525Y6179D01*
X5624Y6179D01*
X5862Y6179D01*
X5925Y6241D01*
X5925Y6679D01*
X5917Y6679D01*
X5917Y6779D01*
X5925Y6779D01*
X5925Y7216D01*
X5862Y7279D01*
X5732Y7279D01*
X6103Y7650D01*
X8200Y7650D01*
X8295Y7669D01*
X8376Y7723D01*
X8444Y7790D01*
X8444Y7724D01*
X8382Y7662D01*
X8325Y7524D01*
X8324Y7375D01*
X8381Y7237D01*
X8487Y7132D01*
X8625Y7075D01*
X8774Y7074D01*
X8912Y7131D01*
X9017Y7237D01*
X9074Y7375D01*
X9075Y7524D01*
X9018Y7662D01*
X8944Y7735D01*
X8944Y8804D01*
X9015Y8852D01*
X9352Y9189D01*
X9366Y9189D01*
X9380Y9174D01*
X9312Y9105D01*
X9274Y9013D01*
X9274Y8951D01*
X9336Y8889D01*
X9699Y8889D01*
X9699Y8897D01*
X9799Y8897D01*
X9799Y8889D01*
X9807Y8889D01*
X9807Y8789D01*
X9799Y8789D01*
X9799Y8526D01*
X9861Y8464D01*
X9924Y8464D01*
X10024Y8464D01*
X10024Y8464D01*
X10024Y8439D01*
X10062Y8347D01*
X10132Y8277D01*
X10224Y8239D01*
X10323Y8239D01*
X10436Y8239D01*
X10499Y8301D01*
X10499Y8614D01*
X10491Y8614D01*
X10491Y8714D01*
X10499Y8714D01*
X10499Y8722D01*
X10599Y8722D01*
X10599Y8714D01*
X11011Y8714D01*
X11074Y8776D01*
X11074Y8888D01*
X11036Y8980D01*
X10966Y9051D01*
X10929Y9066D01*
X10937Y9069D01*
X10993Y9125D01*
X11024Y9199D01*
X11024Y9278D01*
X11024Y9628D01*
X10993Y9702D01*
X10982Y9714D01*
X10993Y9725D01*
X11024Y9799D01*
X11024Y9860D01*
X11032Y9852D01*
X11124Y9814D01*
X11223Y9814D01*
X11286Y9814D01*
X11349Y9876D01*
X11349Y10139D01*
X11341Y10139D01*
X11341Y10239D01*
X11349Y10239D01*
X11349Y10247D01*
X11449Y10247D01*
X11449Y10239D01*
X11457Y10239D01*
X11457Y10139D01*
X11449Y10139D01*
X11449Y9876D01*
X11511Y9814D01*
X11574Y9814D01*
X11674Y9814D01*
X11766Y9852D01*
X11836Y9922D01*
X11874Y10014D01*
X11874Y10021D01*
X11945Y9992D01*
X11961Y9992D01*
X12024Y10054D01*
X12024Y10126D01*
X12078Y10072D01*
X12083Y10070D01*
X12083Y10054D01*
X12145Y9992D01*
X12162Y9992D01*
X12254Y10030D01*
X12266Y10042D01*
X12349Y10042D01*
X12349Y10042D01*
X12428Y10042D01*
X12546Y10042D01*
X12546Y10042D01*
X12602Y10042D01*
X12602Y10042D01*
G37*
G54D27*
X12602Y10042D02*
X12575Y9974D01*
X12574Y9878D01*
X12467Y9771D01*
X12413Y9690D01*
X12394Y9594D01*
X12394Y9536D01*
X12348Y9536D01*
X12348Y9536D01*
X12270Y9536D01*
X12266Y9536D01*
X12254Y9548D01*
X12162Y9586D01*
X12145Y9586D01*
X12083Y9524D01*
X12083Y9508D01*
X12078Y9506D01*
X12024Y9452D01*
X12024Y9524D01*
X11961Y9586D01*
X11945Y9586D01*
X11853Y9548D01*
X11783Y9478D01*
X11744Y9386D01*
X11744Y9287D01*
X11744Y9291D01*
X11807Y9229D01*
X11991Y9229D01*
X11991Y9129D01*
X11807Y9129D01*
X11744Y9066D01*
X11744Y9071D01*
X11744Y8971D01*
X11783Y8879D01*
X11853Y8809D01*
X11945Y8771D01*
X11961Y8771D01*
X11999Y8808D01*
X11999Y8622D01*
X11984Y8607D01*
X11915Y8676D01*
X11823Y8714D01*
X11761Y8714D01*
X11699Y8651D01*
X11699Y8289D01*
X11707Y8289D01*
X11707Y8189D01*
X11699Y8189D01*
X11699Y8181D01*
X11599Y8181D01*
X11599Y8189D01*
X11599Y8289D01*
X11599Y8651D01*
X11536Y8714D01*
X11474Y8714D01*
X11382Y8676D01*
X11312Y8606D01*
X11274Y8514D01*
X11274Y8414D01*
X11274Y8351D01*
X11336Y8289D01*
X11599Y8289D01*
X11599Y8189D01*
X11336Y8189D01*
X11274Y8126D01*
X11274Y8063D01*
X11274Y7964D01*
X11312Y7872D01*
X11382Y7802D01*
X11388Y7800D01*
X11074Y7800D01*
X11074Y8439D01*
X11074Y8551D01*
X11011Y8614D01*
X10599Y8614D01*
X10599Y8301D01*
X10661Y8239D01*
X10774Y8239D01*
X10874Y8239D01*
X10966Y8277D01*
X11036Y8347D01*
X11074Y8439D01*
X11074Y7800D01*
X9800Y7800D01*
X9704Y7780D01*
X9699Y7777D01*
X9699Y8526D01*
X9699Y8789D01*
X9336Y8789D01*
X9274Y8726D01*
X9274Y8664D01*
X9312Y8572D01*
X9382Y8502D01*
X9474Y8464D01*
X9573Y8464D01*
X9636Y8464D01*
X9699Y8526D01*
X9699Y7777D01*
X9623Y7726D01*
X9623Y7726D01*
X9373Y7476D01*
X9319Y7395D01*
X9300Y7300D01*
X9300Y5853D01*
X8625Y5179D01*
X8582Y5179D01*
X8582Y5179D01*
X8619Y5215D01*
X8649Y5289D01*
X8650Y5368D01*
X8650Y5568D01*
X8619Y5642D01*
X8618Y5643D01*
X8662Y5687D01*
X8700Y5779D01*
X8700Y6078D01*
X8662Y6170D01*
X8591Y6240D01*
X8499Y6279D01*
X8400Y6279D01*
X8337Y6279D01*
X8275Y6216D01*
X8275Y5979D01*
X8637Y5979D01*
X8700Y6041D01*
X8700Y6078D01*
X8700Y5779D01*
X8700Y5816D01*
X8637Y5879D01*
X8275Y5879D01*
X8275Y5871D01*
X8175Y5871D01*
X8175Y5879D01*
X8175Y5979D01*
X8175Y6216D01*
X8112Y6279D01*
X8049Y6279D01*
X7950Y6279D01*
X7858Y6240D01*
X7787Y6170D01*
X7749Y6078D01*
X7750Y6041D01*
X7812Y5979D01*
X8175Y5979D01*
X8175Y5879D01*
X7812Y5879D01*
X7750Y5816D01*
X7749Y5779D01*
X7787Y5687D01*
X7796Y5679D01*
X7457Y5679D01*
X7443Y5693D01*
X7512Y5762D01*
X7550Y5854D01*
X7550Y6203D01*
X7512Y6295D01*
X7441Y6365D01*
X7349Y6404D01*
X7250Y6404D01*
X7187Y6404D01*
X7125Y6341D01*
X7125Y6079D01*
X7487Y6079D01*
X7550Y6141D01*
X7550Y6203D01*
X7550Y5854D01*
X7550Y5916D01*
X7487Y5979D01*
X7125Y5979D01*
X7125Y5971D01*
X7025Y5971D01*
X7025Y5979D01*
X7025Y6079D01*
X7025Y6341D01*
X6962Y6404D01*
X6899Y6404D01*
X6800Y6404D01*
X6708Y6365D01*
X6637Y6295D01*
X6625Y6264D01*
X6625Y6379D01*
X6625Y7078D01*
X6587Y7170D01*
X6516Y7240D01*
X6424Y7279D01*
X6325Y7279D01*
X6087Y7279D01*
X6025Y7216D01*
X6025Y6779D01*
X6562Y6779D01*
X6625Y6841D01*
X6625Y7078D01*
X6625Y6379D01*
X6625Y6616D01*
X6562Y6679D01*
X6025Y6679D01*
X6025Y6241D01*
X6087Y6179D01*
X6325Y6179D01*
X6424Y6179D01*
X6516Y6217D01*
X6587Y6287D01*
X6625Y6379D01*
X6625Y6264D01*
X6599Y6203D01*
X6600Y6141D01*
X6662Y6079D01*
X7025Y6079D01*
X7025Y5979D01*
X6662Y5979D01*
X6600Y5916D01*
X6599Y5854D01*
X6637Y5762D01*
X6706Y5693D01*
X6692Y5679D01*
X6575Y5679D01*
X6575Y5768D01*
X6544Y5842D01*
X6488Y5898D01*
X6414Y5929D01*
X6335Y5929D01*
X5535Y5929D01*
X5461Y5898D01*
X5405Y5842D01*
X5400Y5829D01*
X5400Y6250D01*
X5433Y6217D01*
X5525Y6179D01*
X5624Y6179D01*
X5862Y6179D01*
X5925Y6241D01*
X5925Y6679D01*
X5917Y6679D01*
X5917Y6779D01*
X5925Y6779D01*
X5925Y7216D01*
X5862Y7279D01*
X5732Y7279D01*
X6103Y7650D01*
X8200Y7650D01*
X8295Y7669D01*
X8376Y7723D01*
X8444Y7790D01*
X8444Y7724D01*
X8382Y7662D01*
X8325Y7524D01*
X8324Y7375D01*
X8381Y7237D01*
X8487Y7132D01*
X8625Y7075D01*
X8774Y7074D01*
X8912Y7131D01*
X9017Y7237D01*
X9074Y7375D01*
X9075Y7524D01*
X9018Y7662D01*
X8944Y7735D01*
X8944Y8804D01*
X9015Y8852D01*
X9352Y9189D01*
X9366Y9189D01*
X9380Y9174D01*
X9312Y9105D01*
X9274Y9013D01*
X9274Y8951D01*
X9336Y8889D01*
X9699Y8889D01*
X9699Y8897D01*
X9799Y8897D01*
X9799Y8889D01*
X9807Y8889D01*
X9807Y8789D01*
X9799Y8789D01*
X9799Y8526D01*
X9861Y8464D01*
X9924Y8464D01*
X10024Y8464D01*
X10024Y8464D01*
X10024Y8439D01*
X10062Y8347D01*
X10132Y8277D01*
X10224Y8239D01*
X10323Y8239D01*
X10436Y8239D01*
X10499Y8301D01*
X10499Y8614D01*
X10491Y8614D01*
X10491Y8714D01*
X10499Y8714D01*
X10499Y8722D01*
X10599Y8722D01*
X10599Y8714D01*
X11011Y8714D01*
X11074Y8776D01*
X11074Y8888D01*
X11036Y8980D01*
X10966Y9051D01*
X10929Y9066D01*
X10937Y9069D01*
X10993Y9125D01*
X11024Y9199D01*
X11024Y9278D01*
X11024Y9628D01*
X10993Y9702D01*
X10982Y9714D01*
X10993Y9725D01*
X11024Y9799D01*
X11024Y9860D01*
X11032Y9852D01*
X11124Y9814D01*
X11223Y9814D01*
X11286Y9814D01*
X11349Y9876D01*
X11349Y10139D01*
X11341Y10139D01*
X11341Y10239D01*
X11349Y10239D01*
X11349Y10247D01*
X11449Y10247D01*
X11449Y10239D01*
X11457Y10239D01*
X11457Y10139D01*
X11449Y10139D01*
X11449Y9876D01*
X11511Y9814D01*
X11574Y9814D01*
X11674Y9814D01*
X11766Y9852D01*
X11836Y9922D01*
X11874Y10014D01*
X11874Y10021D01*
X11945Y9992D01*
X11961Y9992D01*
X12024Y10054D01*
X12024Y10126D01*
X12078Y10072D01*
X12083Y10070D01*
X12083Y10054D01*
X12145Y9992D01*
X12162Y9992D01*
X12254Y10030D01*
X12266Y10042D01*
X12349Y10042D01*
X12349Y10042D01*
X12428Y10042D01*
X12546Y10042D01*
X12546Y10042D01*
X12602Y10042D01*
G54D10*
G36*
X14148Y8400D02*
X13649Y8400D01*
X13649Y8676D01*
X13649Y8939D01*
X13286Y8939D01*
X13224Y8876D01*
X13224Y8814D01*
X13262Y8722D01*
X13332Y8652D01*
X13424Y8614D01*
X13523Y8614D01*
X13586Y8614D01*
X13649Y8676D01*
X13649Y8400D01*
X13400Y8400D01*
X13304Y8380D01*
X13223Y8326D01*
X13050Y8153D01*
X13050Y8500D01*
X13030Y8595D01*
X12976Y8676D01*
X12805Y8847D01*
X12816Y8852D01*
X12872Y8908D01*
X12885Y8938D01*
X12934Y8948D01*
X13015Y9002D01*
X13257Y9243D01*
X13224Y9163D01*
X13224Y9101D01*
X13286Y9039D01*
X13649Y9039D01*
X13649Y9047D01*
X13749Y9047D01*
X13749Y9039D01*
X13757Y9039D01*
X13757Y8939D01*
X13749Y8939D01*
X13749Y8676D01*
X13811Y8614D01*
X13874Y8614D01*
X13974Y8614D01*
X13974Y8614D01*
X13974Y8589D01*
X14012Y8497D01*
X14082Y8427D01*
X14148Y8400D01*
X14148Y8400D01*
G37*
G54D27*
X14148Y8400D02*
X13649Y8400D01*
X13649Y8676D01*
X13649Y8939D01*
X13286Y8939D01*
X13224Y8876D01*
X13224Y8814D01*
X13262Y8722D01*
X13332Y8652D01*
X13424Y8614D01*
X13523Y8614D01*
X13586Y8614D01*
X13649Y8676D01*
X13649Y8400D01*
X13400Y8400D01*
X13304Y8380D01*
X13223Y8326D01*
X13050Y8153D01*
X13050Y8500D01*
X13030Y8595D01*
X12976Y8676D01*
X12805Y8847D01*
X12816Y8852D01*
X12872Y8908D01*
X12885Y8938D01*
X12934Y8948D01*
X13015Y9002D01*
X13257Y9243D01*
X13224Y9163D01*
X13224Y9101D01*
X13286Y9039D01*
X13649Y9039D01*
X13649Y9047D01*
X13749Y9047D01*
X13749Y9039D01*
X13757Y9039D01*
X13757Y8939D01*
X13749Y8939D01*
X13749Y8676D01*
X13811Y8614D01*
X13874Y8614D01*
X13974Y8614D01*
X13974Y8614D01*
X13974Y8589D01*
X14012Y8497D01*
X14082Y8427D01*
X14148Y8400D01*
G54D10*
G36*
X15100Y8703D02*
X15024Y8627D01*
X15024Y8701D01*
X14961Y8764D01*
X14549Y8764D01*
X14549Y8756D01*
X14449Y8756D01*
X14449Y8764D01*
X14441Y8764D01*
X14441Y8864D01*
X14449Y8864D01*
X14449Y8872D01*
X14549Y8872D01*
X14549Y8864D01*
X14961Y8864D01*
X15024Y8926D01*
X15024Y9038D01*
X14986Y9130D01*
X14916Y9201D01*
X14879Y9216D01*
X14887Y9219D01*
X14943Y9275D01*
X14974Y9349D01*
X14974Y9428D01*
X14974Y9778D01*
X14943Y9852D01*
X14887Y9908D01*
X14879Y9912D01*
X14893Y9925D01*
X14924Y9999D01*
X14924Y10078D01*
X14924Y10428D01*
X14893Y10502D01*
X14837Y10558D01*
X14829Y10562D01*
X14866Y10577D01*
X14936Y10647D01*
X14974Y10739D01*
X14974Y11188D01*
X14936Y11280D01*
X14866Y11351D01*
X14774Y11389D01*
X14674Y11389D01*
X14561Y11389D01*
X14499Y11326D01*
X14499Y11014D01*
X14911Y11014D01*
X14974Y11076D01*
X14974Y11188D01*
X14974Y10739D01*
X14974Y10851D01*
X14911Y10914D01*
X14499Y10914D01*
X14499Y10906D01*
X14399Y10906D01*
X14399Y10914D01*
X14391Y10914D01*
X14391Y11014D01*
X14399Y11014D01*
X14399Y11326D01*
X14336Y11389D01*
X14223Y11389D01*
X14124Y11389D01*
X14032Y11351D01*
X13962Y11280D01*
X13924Y11188D01*
X13924Y11164D01*
X13874Y11164D01*
X13811Y11164D01*
X13749Y11101D01*
X13749Y10839D01*
X13757Y10839D01*
X13757Y10739D01*
X13749Y10739D01*
X13749Y10731D01*
X13649Y10731D01*
X13649Y10739D01*
X13286Y10739D01*
X13224Y10676D01*
X13224Y10614D01*
X13257Y10534D01*
X13215Y10576D01*
X13134Y10630D01*
X13038Y10649D01*
X12894Y10649D01*
X12894Y10781D01*
X13138Y11025D01*
X13249Y11025D01*
X13224Y10963D01*
X13224Y10901D01*
X13286Y10839D01*
X13649Y10839D01*
X13649Y11101D01*
X13586Y11164D01*
X13553Y11164D01*
X13863Y11474D01*
X13924Y11474D01*
X14062Y11531D01*
X14167Y11637D01*
X14224Y11775D01*
X14225Y11924D01*
X14168Y12062D01*
X14062Y12167D01*
X13924Y12224D01*
X13775Y12225D01*
X13637Y12168D01*
X13532Y12062D01*
X13475Y11924D01*
X13475Y11863D01*
X13374Y11763D01*
X13374Y12053D01*
X13343Y12127D01*
X13287Y12183D01*
X13214Y12214D01*
X13134Y12214D01*
X12884Y12214D01*
X12811Y12184D01*
X12754Y12127D01*
X12749Y12114D01*
X12743Y12127D01*
X12687Y12183D01*
X12614Y12214D01*
X12534Y12214D01*
X12284Y12214D01*
X12211Y12184D01*
X12154Y12127D01*
X12124Y12054D01*
X12124Y12039D01*
X11953Y12039D01*
X11900Y12050D01*
X10800Y12050D01*
X10799Y12050D01*
X10780Y12046D01*
X10704Y12030D01*
X10623Y11976D01*
X10623Y11976D01*
X10396Y11750D01*
X9868Y11750D01*
X9874Y11764D01*
X9874Y11826D01*
X9811Y11889D01*
X9449Y11889D01*
X9449Y11881D01*
X9349Y11881D01*
X9349Y11889D01*
X8986Y11889D01*
X8924Y11826D01*
X8924Y11779D01*
X8649Y12054D01*
X8649Y12239D01*
X8649Y12239D01*
X8649Y12239D01*
X8645Y12258D01*
X8630Y12335D01*
X8630Y12335D01*
X8575Y12416D01*
X8575Y12416D01*
X8507Y12484D01*
X8426Y12538D01*
X8331Y12557D01*
X8264Y12557D01*
X8264Y12622D01*
X8233Y12696D01*
X8177Y12752D01*
X8104Y12782D01*
X8024Y12782D01*
X7963Y12782D01*
X8017Y12837D01*
X8059Y12937D01*
X8633Y12362D01*
X8714Y12308D01*
X8810Y12289D01*
X9016Y12289D01*
X9030Y12274D01*
X8962Y12205D01*
X8924Y12113D01*
X8924Y12051D01*
X8986Y11989D01*
X9349Y11989D01*
X9349Y11997D01*
X9449Y11997D01*
X9449Y11989D01*
X9811Y11989D01*
X9874Y12051D01*
X9874Y12113D01*
X9836Y12205D01*
X9767Y12274D01*
X9793Y12300D01*
X9824Y12374D01*
X9824Y12453D01*
X9824Y12703D01*
X9798Y12765D01*
X10445Y12765D01*
X10406Y12727D01*
X10406Y12710D01*
X10444Y12618D01*
X10514Y12548D01*
X10606Y12510D01*
X10706Y12509D01*
X10701Y12510D01*
X10763Y12572D01*
X10763Y12756D01*
X10863Y12756D01*
X10863Y12572D01*
X10926Y12510D01*
X10921Y12509D01*
X11021Y12510D01*
X11113Y12548D01*
X11183Y12618D01*
X11221Y12710D01*
X11221Y12727D01*
X11158Y12789D01*
X11086Y12789D01*
X11140Y12843D01*
X11143Y12848D01*
X11158Y12848D01*
X11221Y12911D01*
X11221Y12927D01*
X11199Y12981D01*
X11199Y14388D01*
X11199Y14451D01*
X11136Y14514D01*
X10874Y14514D01*
X10874Y14151D01*
X10936Y14089D01*
X10998Y14089D01*
X11090Y14127D01*
X11161Y14197D01*
X11199Y14289D01*
X11199Y14388D01*
X11199Y12981D01*
X11183Y13019D01*
X11171Y13031D01*
X11171Y13114D01*
X11171Y13114D01*
X11171Y13193D01*
X11171Y13311D01*
X11171Y13311D01*
X11171Y13390D01*
X11171Y13508D01*
X11141Y13581D01*
X11084Y13638D01*
X11011Y13668D01*
X10931Y13668D01*
X10873Y13668D01*
X10579Y13962D01*
X10578Y13969D01*
X10518Y14058D01*
X10499Y14078D01*
X10499Y14185D01*
X10557Y14127D01*
X10649Y14089D01*
X10711Y14089D01*
X10774Y14151D01*
X10774Y14514D01*
X10766Y14514D01*
X10766Y14614D01*
X10774Y14614D01*
X10774Y14622D01*
X10874Y14622D01*
X10874Y14614D01*
X11136Y14614D01*
X11199Y14676D01*
X11199Y14739D01*
X11199Y14839D01*
X11178Y14889D01*
X11273Y14889D01*
X11349Y14920D01*
X11424Y14889D01*
X11520Y14889D01*
X11499Y14839D01*
X11499Y14739D01*
X11499Y14676D01*
X11561Y14614D01*
X11824Y14614D01*
X11824Y14622D01*
X11924Y14622D01*
X11924Y14614D01*
X11932Y14614D01*
X11932Y14514D01*
X11924Y14514D01*
X11924Y14151D01*
X11986Y14089D01*
X12048Y14089D01*
X12140Y14127D01*
X12209Y14196D01*
X12235Y14169D01*
X12249Y14164D01*
X12249Y13942D01*
X11975Y13668D01*
X11837Y13668D01*
X11824Y13663D01*
X11824Y14151D01*
X11824Y14514D01*
X11561Y14514D01*
X11499Y14451D01*
X11499Y14388D01*
X11499Y14289D01*
X11537Y14197D01*
X11607Y14127D01*
X11699Y14089D01*
X11761Y14089D01*
X11824Y14151D01*
X11824Y13663D01*
X11763Y13638D01*
X11707Y13582D01*
X11677Y13508D01*
X11676Y13429D01*
X11676Y13310D01*
X11677Y13310D01*
X11676Y13232D01*
X11676Y13114D01*
X11677Y13113D01*
X11676Y13035D01*
X11676Y13031D01*
X11664Y13019D01*
X11626Y12927D01*
X11626Y12911D01*
X11689Y12848D01*
X11705Y12848D01*
X11707Y12843D01*
X11761Y12789D01*
X11689Y12789D01*
X11626Y12727D01*
X11626Y12710D01*
X11664Y12618D01*
X11735Y12548D01*
X11827Y12510D01*
X11926Y12509D01*
X11921Y12510D01*
X11984Y12572D01*
X11984Y12756D01*
X12084Y12756D01*
X12084Y12572D01*
X12146Y12510D01*
X12142Y12509D01*
X12241Y12510D01*
X12333Y12548D01*
X12403Y12618D01*
X12441Y12710D01*
X12441Y12727D01*
X12403Y12765D01*
X14530Y12765D01*
X15100Y12196D01*
X15100Y8703D01*
X15100Y8703D01*
G37*
G54D27*
X15100Y8703D02*
X15024Y8627D01*
X15024Y8701D01*
X14961Y8764D01*
X14549Y8764D01*
X14549Y8756D01*
X14449Y8756D01*
X14449Y8764D01*
X14441Y8764D01*
X14441Y8864D01*
X14449Y8864D01*
X14449Y8872D01*
X14549Y8872D01*
X14549Y8864D01*
X14961Y8864D01*
X15024Y8926D01*
X15024Y9038D01*
X14986Y9130D01*
X14916Y9201D01*
X14879Y9216D01*
X14887Y9219D01*
X14943Y9275D01*
X14974Y9349D01*
X14974Y9428D01*
X14974Y9778D01*
X14943Y9852D01*
X14887Y9908D01*
X14879Y9912D01*
X14893Y9925D01*
X14924Y9999D01*
X14924Y10078D01*
X14924Y10428D01*
X14893Y10502D01*
X14837Y10558D01*
X14829Y10562D01*
X14866Y10577D01*
X14936Y10647D01*
X14974Y10739D01*
X14974Y11188D01*
X14936Y11280D01*
X14866Y11351D01*
X14774Y11389D01*
X14674Y11389D01*
X14561Y11389D01*
X14499Y11326D01*
X14499Y11014D01*
X14911Y11014D01*
X14974Y11076D01*
X14974Y11188D01*
X14974Y10739D01*
X14974Y10851D01*
X14911Y10914D01*
X14499Y10914D01*
X14499Y10906D01*
X14399Y10906D01*
X14399Y10914D01*
X14391Y10914D01*
X14391Y11014D01*
X14399Y11014D01*
X14399Y11326D01*
X14336Y11389D01*
X14223Y11389D01*
X14124Y11389D01*
X14032Y11351D01*
X13962Y11280D01*
X13924Y11188D01*
X13924Y11164D01*
X13874Y11164D01*
X13811Y11164D01*
X13749Y11101D01*
X13749Y10839D01*
X13757Y10839D01*
X13757Y10739D01*
X13749Y10739D01*
X13749Y10731D01*
X13649Y10731D01*
X13649Y10739D01*
X13286Y10739D01*
X13224Y10676D01*
X13224Y10614D01*
X13257Y10534D01*
X13215Y10576D01*
X13134Y10630D01*
X13038Y10649D01*
X12894Y10649D01*
X12894Y10781D01*
X13138Y11025D01*
X13249Y11025D01*
X13224Y10963D01*
X13224Y10901D01*
X13286Y10839D01*
X13649Y10839D01*
X13649Y11101D01*
X13586Y11164D01*
X13553Y11164D01*
X13863Y11474D01*
X13924Y11474D01*
X14062Y11531D01*
X14167Y11637D01*
X14224Y11775D01*
X14225Y11924D01*
X14168Y12062D01*
X14062Y12167D01*
X13924Y12224D01*
X13775Y12225D01*
X13637Y12168D01*
X13532Y12062D01*
X13475Y11924D01*
X13475Y11863D01*
X13374Y11763D01*
X13374Y12053D01*
X13343Y12127D01*
X13287Y12183D01*
X13214Y12214D01*
X13134Y12214D01*
X12884Y12214D01*
X12811Y12184D01*
X12754Y12127D01*
X12749Y12114D01*
X12743Y12127D01*
X12687Y12183D01*
X12614Y12214D01*
X12534Y12214D01*
X12284Y12214D01*
X12211Y12184D01*
X12154Y12127D01*
X12124Y12054D01*
X12124Y12039D01*
X11953Y12039D01*
X11900Y12050D01*
X10800Y12050D01*
X10799Y12050D01*
X10780Y12046D01*
X10704Y12030D01*
X10623Y11976D01*
X10623Y11976D01*
X10396Y11750D01*
X9868Y11750D01*
X9874Y11764D01*
X9874Y11826D01*
X9811Y11889D01*
X9449Y11889D01*
X9449Y11881D01*
X9349Y11881D01*
X9349Y11889D01*
X8986Y11889D01*
X8924Y11826D01*
X8924Y11779D01*
X8649Y12054D01*
X8649Y12239D01*
X8649Y12239D01*
X8649Y12239D01*
X8645Y12258D01*
X8630Y12335D01*
X8630Y12335D01*
X8575Y12416D01*
X8575Y12416D01*
X8507Y12484D01*
X8426Y12538D01*
X8331Y12557D01*
X8264Y12557D01*
X8264Y12622D01*
X8233Y12696D01*
X8177Y12752D01*
X8104Y12782D01*
X8024Y12782D01*
X7963Y12782D01*
X8017Y12837D01*
X8059Y12937D01*
X8633Y12362D01*
X8714Y12308D01*
X8810Y12289D01*
X9016Y12289D01*
X9030Y12274D01*
X8962Y12205D01*
X8924Y12113D01*
X8924Y12051D01*
X8986Y11989D01*
X9349Y11989D01*
X9349Y11997D01*
X9449Y11997D01*
X9449Y11989D01*
X9811Y11989D01*
X9874Y12051D01*
X9874Y12113D01*
X9836Y12205D01*
X9767Y12274D01*
X9793Y12300D01*
X9824Y12374D01*
X9824Y12453D01*
X9824Y12703D01*
X9798Y12765D01*
X10445Y12765D01*
X10406Y12727D01*
X10406Y12710D01*
X10444Y12618D01*
X10514Y12548D01*
X10606Y12510D01*
X10706Y12509D01*
X10701Y12510D01*
X10763Y12572D01*
X10763Y12756D01*
X10863Y12756D01*
X10863Y12572D01*
X10926Y12510D01*
X10921Y12509D01*
X11021Y12510D01*
X11113Y12548D01*
X11183Y12618D01*
X11221Y12710D01*
X11221Y12727D01*
X11158Y12789D01*
X11086Y12789D01*
X11140Y12843D01*
X11143Y12848D01*
X11158Y12848D01*
X11221Y12911D01*
X11221Y12927D01*
X11199Y12981D01*
X11199Y14388D01*
X11199Y14451D01*
X11136Y14514D01*
X10874Y14514D01*
X10874Y14151D01*
X10936Y14089D01*
X10998Y14089D01*
X11090Y14127D01*
X11161Y14197D01*
X11199Y14289D01*
X11199Y14388D01*
X11199Y12981D01*
X11183Y13019D01*
X11171Y13031D01*
X11171Y13114D01*
X11171Y13114D01*
X11171Y13193D01*
X11171Y13311D01*
X11171Y13311D01*
X11171Y13390D01*
X11171Y13508D01*
X11141Y13581D01*
X11084Y13638D01*
X11011Y13668D01*
X10931Y13668D01*
X10873Y13668D01*
X10579Y13962D01*
X10578Y13969D01*
X10518Y14058D01*
X10499Y14078D01*
X10499Y14185D01*
X10557Y14127D01*
X10649Y14089D01*
X10711Y14089D01*
X10774Y14151D01*
X10774Y14514D01*
X10766Y14514D01*
X10766Y14614D01*
X10774Y14614D01*
X10774Y14622D01*
X10874Y14622D01*
X10874Y14614D01*
X11136Y14614D01*
X11199Y14676D01*
X11199Y14739D01*
X11199Y14839D01*
X11178Y14889D01*
X11273Y14889D01*
X11349Y14920D01*
X11424Y14889D01*
X11520Y14889D01*
X11499Y14839D01*
X11499Y14739D01*
X11499Y14676D01*
X11561Y14614D01*
X11824Y14614D01*
X11824Y14622D01*
X11924Y14622D01*
X11924Y14614D01*
X11932Y14614D01*
X11932Y14514D01*
X11924Y14514D01*
X11924Y14151D01*
X11986Y14089D01*
X12048Y14089D01*
X12140Y14127D01*
X12209Y14196D01*
X12235Y14169D01*
X12249Y14164D01*
X12249Y13942D01*
X11975Y13668D01*
X11837Y13668D01*
X11824Y13663D01*
X11824Y14151D01*
X11824Y14514D01*
X11561Y14514D01*
X11499Y14451D01*
X11499Y14388D01*
X11499Y14289D01*
X11537Y14197D01*
X11607Y14127D01*
X11699Y14089D01*
X11761Y14089D01*
X11824Y14151D01*
X11824Y13663D01*
X11763Y13638D01*
X11707Y13582D01*
X11677Y13508D01*
X11676Y13429D01*
X11676Y13310D01*
X11677Y13310D01*
X11676Y13232D01*
X11676Y13114D01*
X11677Y13113D01*
X11676Y13035D01*
X11676Y13031D01*
X11664Y13019D01*
X11626Y12927D01*
X11626Y12911D01*
X11689Y12848D01*
X11705Y12848D01*
X11707Y12843D01*
X11761Y12789D01*
X11689Y12789D01*
X11626Y12727D01*
X11626Y12710D01*
X11664Y12618D01*
X11735Y12548D01*
X11827Y12510D01*
X11926Y12509D01*
X11921Y12510D01*
X11984Y12572D01*
X11984Y12756D01*
X12084Y12756D01*
X12084Y12572D01*
X12146Y12510D01*
X12142Y12509D01*
X12241Y12510D01*
X12333Y12548D01*
X12403Y12618D01*
X12441Y12710D01*
X12441Y12727D01*
X12403Y12765D01*
X14530Y12765D01*
X15100Y12196D01*
X15100Y8703D01*
G54D10*
G36*
X15875Y7063D02*
X15655Y6844D01*
X15595Y6755D01*
X15575Y6650D01*
X15575Y6163D01*
X15236Y5825D01*
X15200Y5825D01*
X15200Y6500D01*
X15200Y6737D01*
X15137Y6800D01*
X14600Y6800D01*
X14600Y6362D01*
X14662Y6300D01*
X14900Y6299D01*
X14999Y6300D01*
X15091Y6338D01*
X15162Y6408D01*
X15200Y6500D01*
X15200Y5825D01*
X15150Y5825D01*
X15150Y5889D01*
X15119Y5963D01*
X15063Y6019D01*
X14989Y6049D01*
X14910Y6050D01*
X14110Y6050D01*
X14036Y6019D01*
X13980Y5963D01*
X13950Y5889D01*
X13949Y5825D01*
X13837Y5825D01*
X13850Y5854D01*
X13850Y5916D01*
X13787Y5979D01*
X13425Y5979D01*
X13425Y5971D01*
X13325Y5971D01*
X13325Y5979D01*
X12962Y5979D01*
X12900Y5916D01*
X12899Y5854D01*
X12937Y5762D01*
X12996Y5704D01*
X12668Y5704D01*
X12700Y5779D01*
X12700Y5816D01*
X12637Y5879D01*
X12275Y5879D01*
X12275Y5871D01*
X12175Y5871D01*
X12175Y5879D01*
X12167Y5879D01*
X12167Y5979D01*
X12175Y5979D01*
X12175Y5987D01*
X12275Y5987D01*
X12275Y5979D01*
X12637Y5979D01*
X12700Y6041D01*
X12700Y6056D01*
X12762Y6081D01*
X12867Y6187D01*
X12924Y6325D01*
X12924Y6350D01*
X12992Y6350D01*
X12937Y6295D01*
X12899Y6203D01*
X12900Y6141D01*
X12962Y6079D01*
X13325Y6079D01*
X13325Y6087D01*
X13425Y6087D01*
X13425Y6079D01*
X13787Y6079D01*
X13850Y6141D01*
X13850Y6203D01*
X13812Y6295D01*
X13757Y6350D01*
X13807Y6360D01*
X13856Y6393D01*
X13889Y6442D01*
X13900Y6495D01*
X13900Y6500D01*
X13937Y6408D01*
X14008Y6338D01*
X14100Y6300D01*
X14199Y6299D01*
X14437Y6300D01*
X14500Y6362D01*
X14500Y6800D01*
X13962Y6800D01*
X13900Y6737D01*
X13900Y6962D01*
X13962Y6900D01*
X14500Y6900D01*
X14500Y6907D01*
X14600Y6907D01*
X14600Y6900D01*
X15137Y6900D01*
X15200Y6962D01*
X15200Y7199D01*
X15162Y7291D01*
X15103Y7350D01*
X15875Y7350D01*
X15875Y7063D01*
X15875Y7063D01*
G37*
G54D27*
X15875Y7063D02*
X15655Y6844D01*
X15595Y6755D01*
X15575Y6650D01*
X15575Y6163D01*
X15236Y5825D01*
X15200Y5825D01*
X15200Y6500D01*
X15200Y6737D01*
X15137Y6800D01*
X14600Y6800D01*
X14600Y6362D01*
X14662Y6300D01*
X14900Y6299D01*
X14999Y6300D01*
X15091Y6338D01*
X15162Y6408D01*
X15200Y6500D01*
X15200Y5825D01*
X15150Y5825D01*
X15150Y5889D01*
X15119Y5963D01*
X15063Y6019D01*
X14989Y6049D01*
X14910Y6050D01*
X14110Y6050D01*
X14036Y6019D01*
X13980Y5963D01*
X13950Y5889D01*
X13949Y5825D01*
X13837Y5825D01*
X13850Y5854D01*
X13850Y5916D01*
X13787Y5979D01*
X13425Y5979D01*
X13425Y5971D01*
X13325Y5971D01*
X13325Y5979D01*
X12962Y5979D01*
X12900Y5916D01*
X12899Y5854D01*
X12937Y5762D01*
X12996Y5704D01*
X12668Y5704D01*
X12700Y5779D01*
X12700Y5816D01*
X12637Y5879D01*
X12275Y5879D01*
X12275Y5871D01*
X12175Y5871D01*
X12175Y5879D01*
X12167Y5879D01*
X12167Y5979D01*
X12175Y5979D01*
X12175Y5987D01*
X12275Y5987D01*
X12275Y5979D01*
X12637Y5979D01*
X12700Y6041D01*
X12700Y6056D01*
X12762Y6081D01*
X12867Y6187D01*
X12924Y6325D01*
X12924Y6350D01*
X12992Y6350D01*
X12937Y6295D01*
X12899Y6203D01*
X12900Y6141D01*
X12962Y6079D01*
X13325Y6079D01*
X13325Y6087D01*
X13425Y6087D01*
X13425Y6079D01*
X13787Y6079D01*
X13850Y6141D01*
X13850Y6203D01*
X13812Y6295D01*
X13757Y6350D01*
X13807Y6360D01*
X13856Y6393D01*
X13889Y6442D01*
X13900Y6495D01*
X13900Y6500D01*
X13937Y6408D01*
X14008Y6338D01*
X14100Y6300D01*
X14199Y6299D01*
X14437Y6300D01*
X14500Y6362D01*
X14500Y6800D01*
X13962Y6800D01*
X13900Y6737D01*
X13900Y6962D01*
X13962Y6900D01*
X14500Y6900D01*
X14500Y6907D01*
X14600Y6907D01*
X14600Y6900D01*
X15137Y6900D01*
X15200Y6962D01*
X15200Y7199D01*
X15162Y7291D01*
X15103Y7350D01*
X15875Y7350D01*
X15875Y7063D01*
G54D10*
G36*
X18350Y2991D02*
X18329Y3011D01*
X17877Y3199D01*
X17657Y3199D01*
X17657Y3769D01*
X17657Y4064D01*
X17657Y4163D01*
X17619Y4255D01*
X17548Y4326D01*
X17457Y4364D01*
X17362Y4364D01*
X17300Y4301D01*
X17300Y3967D01*
X17595Y3967D01*
X17657Y4029D01*
X17657Y4064D01*
X17657Y3769D01*
X17657Y3804D01*
X17595Y3867D01*
X17300Y3867D01*
X17300Y3532D01*
X17362Y3470D01*
X17457Y3469D01*
X17548Y3507D01*
X17619Y3578D01*
X17657Y3670D01*
X17657Y3769D01*
X17657Y3199D01*
X17387Y3199D01*
X17200Y3122D01*
X17200Y3532D01*
X17200Y3867D01*
X17200Y3967D01*
X17200Y4301D01*
X17137Y4364D01*
X17042Y4364D01*
X16951Y4326D01*
X16880Y4255D01*
X16842Y4163D01*
X16842Y4064D01*
X16842Y4029D01*
X16905Y3967D01*
X17200Y3967D01*
X17200Y3867D01*
X16905Y3867D01*
X16842Y3804D01*
X16842Y3769D01*
X16842Y3670D01*
X16880Y3578D01*
X16951Y3507D01*
X17042Y3469D01*
X17137Y3470D01*
X17200Y3532D01*
X17200Y3122D01*
X16935Y3012D01*
X16588Y2666D01*
X16400Y2214D01*
X16400Y1724D01*
X16587Y1272D01*
X16609Y1250D01*
X14800Y1250D01*
X14800Y2154D01*
X14800Y2216D01*
X14737Y2279D01*
X14375Y2279D01*
X14375Y2016D01*
X14437Y1954D01*
X14500Y1954D01*
X14599Y1954D01*
X14691Y1992D01*
X14762Y2062D01*
X14800Y2154D01*
X14800Y1250D01*
X14275Y1250D01*
X14275Y2016D01*
X14275Y2279D01*
X13912Y2279D01*
X13850Y2216D01*
X13787Y2279D01*
X13425Y2279D01*
X13425Y2016D01*
X13487Y1954D01*
X13550Y1954D01*
X13649Y1954D01*
X13741Y1992D01*
X13812Y2062D01*
X13850Y2154D01*
X13887Y2062D01*
X13958Y1992D01*
X14050Y1954D01*
X14149Y1954D01*
X14212Y1954D01*
X14275Y2016D01*
X14275Y1250D01*
X13325Y1250D01*
X13325Y2016D01*
X13325Y2279D01*
X12962Y2279D01*
X12900Y2216D01*
X12899Y2154D01*
X12937Y2062D01*
X13008Y1992D01*
X13100Y1954D01*
X13199Y1954D01*
X13262Y1954D01*
X13325Y2016D01*
X13325Y1250D01*
X12700Y1250D01*
X12700Y2279D01*
X12700Y2316D01*
X12637Y2379D01*
X12275Y2379D01*
X12275Y2141D01*
X12337Y2079D01*
X12400Y2079D01*
X12499Y2079D01*
X12591Y2117D01*
X12662Y2187D01*
X12700Y2279D01*
X12700Y1250D01*
X11904Y1250D01*
X11881Y1254D01*
X11865Y1265D01*
X11854Y1281D01*
X11850Y1304D01*
X11850Y2125D01*
X11858Y2117D01*
X11950Y2079D01*
X12049Y2079D01*
X12112Y2079D01*
X12175Y2141D01*
X12175Y2379D01*
X12167Y2379D01*
X12167Y2479D01*
X12175Y2479D01*
X12175Y2487D01*
X12275Y2487D01*
X12275Y2479D01*
X12637Y2479D01*
X12700Y2541D01*
X12700Y2578D01*
X12668Y2654D01*
X12996Y2654D01*
X12937Y2595D01*
X12899Y2503D01*
X12900Y2441D01*
X12962Y2379D01*
X13325Y2379D01*
X13325Y2387D01*
X13425Y2387D01*
X13425Y2379D01*
X13787Y2379D01*
X13850Y2441D01*
X13912Y2379D01*
X14275Y2379D01*
X14275Y2387D01*
X14375Y2387D01*
X14375Y2379D01*
X14737Y2379D01*
X14800Y2441D01*
X14800Y2503D01*
X14762Y2595D01*
X14693Y2664D01*
X14719Y2690D01*
X14749Y2764D01*
X14750Y2843D01*
X14750Y3093D01*
X14725Y3154D01*
X15065Y3154D01*
X15087Y3132D01*
X15225Y3075D01*
X15374Y3074D01*
X15512Y3131D01*
X15617Y3237D01*
X15674Y3375D01*
X15675Y3524D01*
X15621Y3654D01*
X15665Y3654D01*
X15687Y3632D01*
X15825Y3575D01*
X15974Y3574D01*
X16112Y3631D01*
X16217Y3737D01*
X16274Y3875D01*
X16275Y4024D01*
X16218Y4162D01*
X16112Y4267D01*
X15974Y4324D01*
X15825Y4325D01*
X15687Y4268D01*
X15623Y4204D01*
X12607Y4204D01*
X12619Y4215D01*
X12649Y4289D01*
X12650Y4368D01*
X12650Y4568D01*
X12619Y4642D01*
X12582Y4679D01*
X12619Y4715D01*
X12649Y4789D01*
X12650Y4868D01*
X12650Y5068D01*
X12619Y5142D01*
X12607Y5154D01*
X13017Y5154D01*
X13036Y5134D01*
X13110Y5104D01*
X13189Y5104D01*
X13639Y5104D01*
X13713Y5134D01*
X13769Y5190D01*
X13799Y5264D01*
X13799Y5275D01*
X13949Y5275D01*
X13949Y5210D01*
X13980Y5136D01*
X14036Y5080D01*
X14110Y5050D01*
X14189Y5049D01*
X14989Y5049D01*
X15063Y5080D01*
X15119Y5136D01*
X15149Y5210D01*
X15150Y5275D01*
X15350Y5275D01*
X15455Y5295D01*
X15455Y5295D01*
X15544Y5355D01*
X16044Y5855D01*
X16101Y5941D01*
X16125Y5822D01*
X16130Y5796D01*
X16217Y5667D01*
X16475Y5409D01*
X16475Y4783D01*
X16505Y4629D01*
X16517Y4611D01*
X16517Y4546D01*
X16547Y4472D01*
X16604Y4416D01*
X16677Y4386D01*
X16757Y4385D01*
X16860Y4385D01*
X16875Y4383D01*
X16889Y4385D01*
X17072Y4385D01*
X17145Y4416D01*
X17201Y4472D01*
X17232Y4546D01*
X17232Y4611D01*
X17244Y4629D01*
X17250Y4657D01*
X17255Y4629D01*
X17267Y4611D01*
X17267Y4546D01*
X17297Y4472D01*
X17354Y4416D01*
X17427Y4386D01*
X17507Y4385D01*
X17610Y4385D01*
X17625Y4383D01*
X17639Y4385D01*
X17822Y4385D01*
X17895Y4416D01*
X17951Y4472D01*
X17982Y4546D01*
X17982Y4611D01*
X17994Y4629D01*
X18025Y4783D01*
X18025Y5884D01*
X18166Y6025D01*
X18266Y6264D01*
X18266Y6523D01*
X18167Y6762D01*
X17984Y6945D01*
X17746Y7044D01*
X17487Y7044D01*
X17430Y7021D01*
X17531Y7122D01*
X17744Y7122D01*
X17983Y7221D01*
X18166Y7403D01*
X18266Y7642D01*
X18266Y7901D01*
X18167Y8140D01*
X17984Y8323D01*
X17746Y8422D01*
X17487Y8422D01*
X17248Y8323D01*
X17065Y8141D01*
X16966Y7902D01*
X16966Y7688D01*
X16425Y7146D01*
X16425Y9775D01*
X16966Y9234D01*
X16966Y9021D01*
X17064Y8782D01*
X17247Y8599D01*
X17486Y8500D01*
X17744Y8500D01*
X17983Y8599D01*
X18166Y8781D01*
X18266Y9020D01*
X18266Y9279D01*
X18167Y9518D01*
X17984Y9701D01*
X17746Y9800D01*
X17531Y9800D01*
X17430Y9901D01*
X17486Y9878D01*
X17744Y9878D01*
X17983Y9976D01*
X18166Y10159D01*
X18266Y10398D01*
X18266Y10657D01*
X18266Y14439D01*
X18266Y15817D01*
X18167Y16056D01*
X17984Y16239D01*
X17746Y16338D01*
X17487Y16339D01*
X17248Y16240D01*
X17065Y16057D01*
X16966Y15818D01*
X16966Y15560D01*
X17064Y15321D01*
X17247Y15138D01*
X17486Y15039D01*
X17744Y15038D01*
X17983Y15137D01*
X18166Y15320D01*
X18266Y15559D01*
X18266Y15817D01*
X18266Y14439D01*
X18167Y14678D01*
X17984Y14861D01*
X17746Y14960D01*
X17487Y14961D01*
X17248Y14862D01*
X17065Y14679D01*
X16966Y14440D01*
X16966Y14182D01*
X17064Y13943D01*
X17247Y13760D01*
X17486Y13661D01*
X17744Y13660D01*
X17983Y13759D01*
X18166Y13942D01*
X18266Y14181D01*
X18266Y14439D01*
X18266Y10657D01*
X18167Y10896D01*
X18025Y11038D01*
X18025Y12167D01*
X17994Y12320D01*
X17982Y12338D01*
X17982Y12403D01*
X17952Y12477D01*
X17895Y12533D01*
X17822Y12563D01*
X17742Y12564D01*
X17657Y12564D01*
X17657Y12885D01*
X17657Y13180D01*
X17657Y13279D01*
X17619Y13371D01*
X17548Y13442D01*
X17457Y13480D01*
X17362Y13480D01*
X17300Y13417D01*
X17300Y13083D01*
X17595Y13083D01*
X17657Y13145D01*
X17657Y13180D01*
X17657Y12885D01*
X17657Y12920D01*
X17595Y12983D01*
X17300Y12983D01*
X17300Y12648D01*
X17362Y12586D01*
X17457Y12585D01*
X17548Y12623D01*
X17619Y12694D01*
X17657Y12786D01*
X17657Y12885D01*
X17657Y12564D01*
X17639Y12564D01*
X17625Y12567D01*
X17610Y12564D01*
X17427Y12564D01*
X17354Y12533D01*
X17298Y12477D01*
X17267Y12403D01*
X17267Y12338D01*
X17255Y12320D01*
X17250Y12292D01*
X17244Y12320D01*
X17232Y12338D01*
X17232Y12403D01*
X17202Y12477D01*
X17200Y12479D01*
X17200Y12648D01*
X17200Y12983D01*
X17200Y13083D01*
X17200Y13417D01*
X17137Y13480D01*
X17042Y13480D01*
X16951Y13442D01*
X16880Y13371D01*
X16842Y13279D01*
X16842Y13180D01*
X16842Y13145D01*
X16905Y13083D01*
X17200Y13083D01*
X17200Y12983D01*
X16905Y12983D01*
X16842Y12920D01*
X16842Y12885D01*
X16842Y12786D01*
X16880Y12694D01*
X16951Y12623D01*
X17042Y12585D01*
X17137Y12586D01*
X17200Y12648D01*
X17200Y12479D01*
X17145Y12533D01*
X17072Y12563D01*
X16992Y12564D01*
X16889Y12564D01*
X16875Y12567D01*
X16860Y12564D01*
X16677Y12564D01*
X16604Y12533D01*
X16548Y12477D01*
X16517Y12403D01*
X16517Y12338D01*
X16505Y12320D01*
X16475Y12167D01*
X16475Y11540D01*
X16425Y11490D01*
X16425Y11600D01*
X16425Y11650D01*
X16425Y14800D01*
X16404Y14905D01*
X16404Y14905D01*
X16344Y14994D01*
X16325Y15013D01*
X16325Y15074D01*
X16268Y15212D01*
X16162Y15317D01*
X16024Y15374D01*
X15875Y15375D01*
X15737Y15318D01*
X15632Y15212D01*
X15575Y15074D01*
X15574Y14925D01*
X15631Y14787D01*
X15719Y14700D01*
X13904Y14700D01*
X13881Y14704D01*
X13865Y14715D01*
X13854Y14731D01*
X13850Y14754D01*
X13850Y18395D01*
X13854Y18418D01*
X13865Y18434D01*
X13881Y18445D01*
X13904Y18450D01*
X16708Y18450D01*
X16588Y18329D01*
X16400Y17877D01*
X16400Y17387D01*
X16587Y16935D01*
X16933Y16588D01*
X17385Y16400D01*
X17875Y16400D01*
X18327Y16587D01*
X18350Y16609D01*
X18350Y2991D01*
X18350Y2991D01*
G37*
G54D27*
X18350Y2991D02*
X18329Y3011D01*
X17877Y3199D01*
X17657Y3199D01*
X17657Y3769D01*
X17657Y4064D01*
X17657Y4163D01*
X17619Y4255D01*
X17548Y4326D01*
X17457Y4364D01*
X17362Y4364D01*
X17300Y4301D01*
X17300Y3967D01*
X17595Y3967D01*
X17657Y4029D01*
X17657Y4064D01*
X17657Y3769D01*
X17657Y3804D01*
X17595Y3867D01*
X17300Y3867D01*
X17300Y3532D01*
X17362Y3470D01*
X17457Y3469D01*
X17548Y3507D01*
X17619Y3578D01*
X17657Y3670D01*
X17657Y3769D01*
X17657Y3199D01*
X17387Y3199D01*
X17200Y3122D01*
X17200Y3532D01*
X17200Y3867D01*
X17200Y3967D01*
X17200Y4301D01*
X17137Y4364D01*
X17042Y4364D01*
X16951Y4326D01*
X16880Y4255D01*
X16842Y4163D01*
X16842Y4064D01*
X16842Y4029D01*
X16905Y3967D01*
X17200Y3967D01*
X17200Y3867D01*
X16905Y3867D01*
X16842Y3804D01*
X16842Y3769D01*
X16842Y3670D01*
X16880Y3578D01*
X16951Y3507D01*
X17042Y3469D01*
X17137Y3470D01*
X17200Y3532D01*
X17200Y3122D01*
X16935Y3012D01*
X16588Y2666D01*
X16400Y2214D01*
X16400Y1724D01*
X16587Y1272D01*
X16609Y1250D01*
X14800Y1250D01*
X14800Y2154D01*
X14800Y2216D01*
X14737Y2279D01*
X14375Y2279D01*
X14375Y2016D01*
X14437Y1954D01*
X14500Y1954D01*
X14599Y1954D01*
X14691Y1992D01*
X14762Y2062D01*
X14800Y2154D01*
X14800Y1250D01*
X14275Y1250D01*
X14275Y2016D01*
X14275Y2279D01*
X13912Y2279D01*
X13850Y2216D01*
X13787Y2279D01*
X13425Y2279D01*
X13425Y2016D01*
X13487Y1954D01*
X13550Y1954D01*
X13649Y1954D01*
X13741Y1992D01*
X13812Y2062D01*
X13850Y2154D01*
X13887Y2062D01*
X13958Y1992D01*
X14050Y1954D01*
X14149Y1954D01*
X14212Y1954D01*
X14275Y2016D01*
X14275Y1250D01*
X13325Y1250D01*
X13325Y2016D01*
X13325Y2279D01*
X12962Y2279D01*
X12900Y2216D01*
X12899Y2154D01*
X12937Y2062D01*
X13008Y1992D01*
X13100Y1954D01*
X13199Y1954D01*
X13262Y1954D01*
X13325Y2016D01*
X13325Y1250D01*
X12700Y1250D01*
X12700Y2279D01*
X12700Y2316D01*
X12637Y2379D01*
X12275Y2379D01*
X12275Y2141D01*
X12337Y2079D01*
X12400Y2079D01*
X12499Y2079D01*
X12591Y2117D01*
X12662Y2187D01*
X12700Y2279D01*
X12700Y1250D01*
X11904Y1250D01*
X11881Y1254D01*
X11865Y1265D01*
X11854Y1281D01*
X11850Y1304D01*
X11850Y2125D01*
X11858Y2117D01*
X11950Y2079D01*
X12049Y2079D01*
X12112Y2079D01*
X12175Y2141D01*
X12175Y2379D01*
X12167Y2379D01*
X12167Y2479D01*
X12175Y2479D01*
X12175Y2487D01*
X12275Y2487D01*
X12275Y2479D01*
X12637Y2479D01*
X12700Y2541D01*
X12700Y2578D01*
X12668Y2654D01*
X12996Y2654D01*
X12937Y2595D01*
X12899Y2503D01*
X12900Y2441D01*
X12962Y2379D01*
X13325Y2379D01*
X13325Y2387D01*
X13425Y2387D01*
X13425Y2379D01*
X13787Y2379D01*
X13850Y2441D01*
X13912Y2379D01*
X14275Y2379D01*
X14275Y2387D01*
X14375Y2387D01*
X14375Y2379D01*
X14737Y2379D01*
X14800Y2441D01*
X14800Y2503D01*
X14762Y2595D01*
X14693Y2664D01*
X14719Y2690D01*
X14749Y2764D01*
X14750Y2843D01*
X14750Y3093D01*
X14725Y3154D01*
X15065Y3154D01*
X15087Y3132D01*
X15225Y3075D01*
X15374Y3074D01*
X15512Y3131D01*
X15617Y3237D01*
X15674Y3375D01*
X15675Y3524D01*
X15621Y3654D01*
X15665Y3654D01*
X15687Y3632D01*
X15825Y3575D01*
X15974Y3574D01*
X16112Y3631D01*
X16217Y3737D01*
X16274Y3875D01*
X16275Y4024D01*
X16218Y4162D01*
X16112Y4267D01*
X15974Y4324D01*
X15825Y4325D01*
X15687Y4268D01*
X15623Y4204D01*
X12607Y4204D01*
X12619Y4215D01*
X12649Y4289D01*
X12650Y4368D01*
X12650Y4568D01*
X12619Y4642D01*
X12582Y4679D01*
X12619Y4715D01*
X12649Y4789D01*
X12650Y4868D01*
X12650Y5068D01*
X12619Y5142D01*
X12607Y5154D01*
X13017Y5154D01*
X13036Y5134D01*
X13110Y5104D01*
X13189Y5104D01*
X13639Y5104D01*
X13713Y5134D01*
X13769Y5190D01*
X13799Y5264D01*
X13799Y5275D01*
X13949Y5275D01*
X13949Y5210D01*
X13980Y5136D01*
X14036Y5080D01*
X14110Y5050D01*
X14189Y5049D01*
X14989Y5049D01*
X15063Y5080D01*
X15119Y5136D01*
X15149Y5210D01*
X15150Y5275D01*
X15350Y5275D01*
X15455Y5295D01*
X15455Y5295D01*
X15544Y5355D01*
X16044Y5855D01*
X16101Y5941D01*
X16125Y5822D01*
X16130Y5796D01*
X16217Y5667D01*
X16475Y5409D01*
X16475Y4783D01*
X16505Y4629D01*
X16517Y4611D01*
X16517Y4546D01*
X16547Y4472D01*
X16604Y4416D01*
X16677Y4386D01*
X16757Y4385D01*
X16860Y4385D01*
X16875Y4383D01*
X16889Y4385D01*
X17072Y4385D01*
X17145Y4416D01*
X17201Y4472D01*
X17232Y4546D01*
X17232Y4611D01*
X17244Y4629D01*
X17250Y4657D01*
X17255Y4629D01*
X17267Y4611D01*
X17267Y4546D01*
X17297Y4472D01*
X17354Y4416D01*
X17427Y4386D01*
X17507Y4385D01*
X17610Y4385D01*
X17625Y4383D01*
X17639Y4385D01*
X17822Y4385D01*
X17895Y4416D01*
X17951Y4472D01*
X17982Y4546D01*
X17982Y4611D01*
X17994Y4629D01*
X18025Y4783D01*
X18025Y5884D01*
X18166Y6025D01*
X18266Y6264D01*
X18266Y6523D01*
X18167Y6762D01*
X17984Y6945D01*
X17746Y7044D01*
X17487Y7044D01*
X17430Y7021D01*
X17531Y7122D01*
X17744Y7122D01*
X17983Y7221D01*
X18166Y7403D01*
X18266Y7642D01*
X18266Y7901D01*
X18167Y8140D01*
X17984Y8323D01*
X17746Y8422D01*
X17487Y8422D01*
X17248Y8323D01*
X17065Y8141D01*
X16966Y7902D01*
X16966Y7688D01*
X16425Y7146D01*
X16425Y9775D01*
X16966Y9234D01*
X16966Y9021D01*
X17064Y8782D01*
X17247Y8599D01*
X17486Y8500D01*
X17744Y8500D01*
X17983Y8599D01*
X18166Y8781D01*
X18266Y9020D01*
X18266Y9279D01*
X18167Y9518D01*
X17984Y9701D01*
X17746Y9800D01*
X17531Y9800D01*
X17430Y9901D01*
X17486Y9878D01*
X17744Y9878D01*
X17983Y9976D01*
X18166Y10159D01*
X18266Y10398D01*
X18266Y10657D01*
X18266Y14439D01*
X18266Y15817D01*
X18167Y16056D01*
X17984Y16239D01*
X17746Y16338D01*
X17487Y16339D01*
X17248Y16240D01*
X17065Y16057D01*
X16966Y15818D01*
X16966Y15560D01*
X17064Y15321D01*
X17247Y15138D01*
X17486Y15039D01*
X17744Y15038D01*
X17983Y15137D01*
X18166Y15320D01*
X18266Y15559D01*
X18266Y15817D01*
X18266Y14439D01*
X18167Y14678D01*
X17984Y14861D01*
X17746Y14960D01*
X17487Y14961D01*
X17248Y14862D01*
X17065Y14679D01*
X16966Y14440D01*
X16966Y14182D01*
X17064Y13943D01*
X17247Y13760D01*
X17486Y13661D01*
X17744Y13660D01*
X17983Y13759D01*
X18166Y13942D01*
X18266Y14181D01*
X18266Y14439D01*
X18266Y10657D01*
X18167Y10896D01*
X18025Y11038D01*
X18025Y12167D01*
X17994Y12320D01*
X17982Y12338D01*
X17982Y12403D01*
X17952Y12477D01*
X17895Y12533D01*
X17822Y12563D01*
X17742Y12564D01*
X17657Y12564D01*
X17657Y12885D01*
X17657Y13180D01*
X17657Y13279D01*
X17619Y13371D01*
X17548Y13442D01*
X17457Y13480D01*
X17362Y13480D01*
X17300Y13417D01*
X17300Y13083D01*
X17595Y13083D01*
X17657Y13145D01*
X17657Y13180D01*
X17657Y12885D01*
X17657Y12920D01*
X17595Y12983D01*
X17300Y12983D01*
X17300Y12648D01*
X17362Y12586D01*
X17457Y12585D01*
X17548Y12623D01*
X17619Y12694D01*
X17657Y12786D01*
X17657Y12885D01*
X17657Y12564D01*
X17639Y12564D01*
X17625Y12567D01*
X17610Y12564D01*
X17427Y12564D01*
X17354Y12533D01*
X17298Y12477D01*
X17267Y12403D01*
X17267Y12338D01*
X17255Y12320D01*
X17250Y12292D01*
X17244Y12320D01*
X17232Y12338D01*
X17232Y12403D01*
X17202Y12477D01*
X17200Y12479D01*
X17200Y12648D01*
X17200Y12983D01*
X17200Y13083D01*
X17200Y13417D01*
X17137Y13480D01*
X17042Y13480D01*
X16951Y13442D01*
X16880Y13371D01*
X16842Y13279D01*
X16842Y13180D01*
X16842Y13145D01*
X16905Y13083D01*
X17200Y13083D01*
X17200Y12983D01*
X16905Y12983D01*
X16842Y12920D01*
X16842Y12885D01*
X16842Y12786D01*
X16880Y12694D01*
X16951Y12623D01*
X17042Y12585D01*
X17137Y12586D01*
X17200Y12648D01*
X17200Y12479D01*
X17145Y12533D01*
X17072Y12563D01*
X16992Y12564D01*
X16889Y12564D01*
X16875Y12567D01*
X16860Y12564D01*
X16677Y12564D01*
X16604Y12533D01*
X16548Y12477D01*
X16517Y12403D01*
X16517Y12338D01*
X16505Y12320D01*
X16475Y12167D01*
X16475Y11540D01*
X16425Y11490D01*
X16425Y11600D01*
X16425Y11650D01*
X16425Y14800D01*
X16404Y14905D01*
X16404Y14905D01*
X16344Y14994D01*
X16325Y15013D01*
X16325Y15074D01*
X16268Y15212D01*
X16162Y15317D01*
X16024Y15374D01*
X15875Y15375D01*
X15737Y15318D01*
X15632Y15212D01*
X15575Y15074D01*
X15574Y14925D01*
X15631Y14787D01*
X15719Y14700D01*
X13904Y14700D01*
X13881Y14704D01*
X13865Y14715D01*
X13854Y14731D01*
X13850Y14754D01*
X13850Y18395D01*
X13854Y18418D01*
X13865Y18434D01*
X13881Y18445D01*
X13904Y18450D01*
X16708Y18450D01*
X16588Y18329D01*
X16400Y17877D01*
X16400Y17387D01*
X16587Y16935D01*
X16933Y16588D01*
X17385Y16400D01*
X17875Y16400D01*
X18327Y16587D01*
X18350Y16609D01*
X18350Y2991D01*
M02*
