G04 (created by PCBNEW (2013-07-07 BZR 4022)-stable) date 19.12.2014 22:13:32*
%MOIN*%
G04 Gerber Fmt 3.4, Leading zero omitted, Abs format*
%FSLAX34Y34*%
G01*
G70*
G90*
G04 APERTURE LIST*
%ADD10C,0.00590551*%
%ADD11C,0.011811*%
%ADD12C,0.0031*%
%ADD13C,0.008*%
%ADD14C,0.005*%
%ADD15C,0.0039*%
%ADD16C,0.006*%
%ADD17C,0.0047*%
%ADD18C,0.0043*%
%ADD19C,0.0045*%
%ADD20C,0.01*%
%ADD21C,0.06*%
%ADD22C,0.1063*%
%ADD23R,0.0315X0.0394*%
%ADD24R,0.045X0.02*%
%ADD25R,0.08X0.06*%
%ADD26R,0.055X0.035*%
%ADD27R,0.035X0.055*%
%ADD28R,0.045X0.025*%
%ADD29R,0.025X0.045*%
%ADD30R,0.125984X0.0590551*%
%ADD31C,0.09*%
%ADD32R,0.0314961X0.011811*%
%ADD33R,0.011811X0.0314961*%
%ADD34R,0.0138X0.0551*%
%ADD35C,0.110236*%
%ADD36C,0.035*%
G04 APERTURE END LIST*
G54D10*
G54D11*
X13565Y17789D02*
X13228Y17789D01*
X13397Y17789D02*
X13397Y17198D01*
X13340Y17282D01*
X13284Y17339D01*
X13228Y17367D01*
X13790Y17254D02*
X13818Y17226D01*
X13875Y17198D01*
X14015Y17198D01*
X14071Y17226D01*
X14100Y17254D01*
X14128Y17310D01*
X14128Y17367D01*
X14100Y17451D01*
X13762Y17789D01*
X14128Y17789D01*
X14803Y17170D02*
X14296Y17929D01*
X15309Y17789D02*
X14971Y17789D01*
X15140Y17789D02*
X15140Y17198D01*
X15084Y17282D01*
X15028Y17339D01*
X14971Y17367D01*
X15815Y17395D02*
X15815Y17789D01*
X15674Y17170D02*
X15534Y17592D01*
X15899Y17592D01*
X3271Y18360D02*
X3356Y18389D01*
X3496Y18389D01*
X3553Y18360D01*
X3581Y18332D01*
X3609Y18276D01*
X3609Y18220D01*
X3581Y18164D01*
X3553Y18135D01*
X3496Y18107D01*
X3384Y18079D01*
X3328Y18051D01*
X3300Y18023D01*
X3271Y17967D01*
X3271Y17910D01*
X3300Y17854D01*
X3328Y17826D01*
X3384Y17798D01*
X3525Y17798D01*
X3609Y17826D01*
X4284Y17770D02*
X3778Y18529D01*
X4481Y18389D02*
X4481Y17798D01*
X4818Y18389D01*
X4818Y17798D01*
X5099Y18332D02*
X5128Y18360D01*
X5099Y18389D01*
X5071Y18360D01*
X5099Y18332D01*
X5099Y18389D01*
X5099Y18023D02*
X5128Y18051D01*
X5099Y18079D01*
X5071Y18051D01*
X5099Y18023D01*
X5099Y18079D01*
G54D12*
X16849Y4488D02*
G75*
G03X16849Y4488I-62J0D01*
G74*
G01*
X17750Y4150D02*
X17750Y4550D01*
X16725Y4150D02*
X16725Y4550D01*
X17750Y4550D02*
X16725Y4550D01*
X16725Y4150D02*
X17750Y4150D01*
X17775Y12462D02*
G75*
G03X17775Y12462I-62J0D01*
G74*
G01*
X16750Y12800D02*
X16750Y12400D01*
X17775Y12800D02*
X17775Y12400D01*
X16750Y12400D02*
X17775Y12400D01*
X17775Y12800D02*
X16750Y12800D01*
G54D13*
X8675Y2029D02*
X11825Y2029D01*
X11825Y6329D02*
X8675Y6329D01*
X11825Y2029D02*
X11825Y6329D01*
X8675Y6329D02*
X8675Y2029D01*
X10425Y2029D02*
X10425Y2329D01*
X10425Y2329D02*
X10025Y2329D01*
X10025Y2329D02*
X10025Y2029D01*
G54D14*
X15000Y5200D02*
X14100Y5200D01*
X14100Y5200D02*
X14100Y5850D01*
X15000Y6550D02*
X15000Y7200D01*
X15000Y7200D02*
X14100Y7200D01*
X14100Y7200D02*
X14100Y6550D01*
X15000Y5850D02*
X15000Y5200D01*
X6425Y5079D02*
X5525Y5079D01*
X5525Y5079D02*
X5525Y5729D01*
X6425Y6429D02*
X6425Y7079D01*
X6425Y7079D02*
X5525Y7079D01*
X5525Y7079D02*
X5525Y6429D01*
X6425Y5729D02*
X6425Y5079D01*
G54D15*
X10899Y9689D02*
G75*
G03X10899Y9689I-50J0D01*
G74*
G01*
X10849Y9239D02*
X10849Y9639D01*
X10849Y9639D02*
X10249Y9639D01*
X10249Y9639D02*
X10249Y9239D01*
X10249Y8839D02*
X10249Y8439D01*
X10249Y8439D02*
X10849Y8439D01*
X10849Y8439D02*
X10849Y8839D01*
X10299Y9739D02*
G75*
G03X10299Y9739I-50J0D01*
G74*
G01*
X10249Y10189D02*
X10249Y9789D01*
X10249Y9789D02*
X10849Y9789D01*
X10849Y9789D02*
X10849Y10189D01*
X10849Y10589D02*
X10849Y10989D01*
X10849Y10989D02*
X10249Y10989D01*
X10249Y10989D02*
X10249Y10589D01*
X14849Y9839D02*
G75*
G03X14849Y9839I-50J0D01*
G74*
G01*
X14799Y9389D02*
X14799Y9789D01*
X14799Y9789D02*
X14199Y9789D01*
X14199Y9789D02*
X14199Y9389D01*
X14199Y8989D02*
X14199Y8589D01*
X14199Y8589D02*
X14799Y8589D01*
X14799Y8589D02*
X14799Y8989D01*
X14199Y9939D02*
G75*
G03X14199Y9939I-50J0D01*
G74*
G01*
X14149Y10389D02*
X14149Y9989D01*
X14149Y9989D02*
X14749Y9989D01*
X14749Y9989D02*
X14749Y10389D01*
X14749Y10789D02*
X14749Y11189D01*
X14749Y11189D02*
X14149Y11189D01*
X14149Y11189D02*
X14149Y10789D01*
X10074Y15714D02*
G75*
G03X10074Y15714I-50J0D01*
G74*
G01*
X10474Y15714D02*
X10074Y15714D01*
X10074Y15714D02*
X10074Y15114D01*
X10074Y15114D02*
X10474Y15114D01*
X10874Y15114D02*
X11274Y15114D01*
X11274Y15114D02*
X11274Y15714D01*
X11274Y15714D02*
X10874Y15714D01*
X12724Y15114D02*
G75*
G03X12724Y15114I-50J0D01*
G74*
G01*
X12224Y15114D02*
X12624Y15114D01*
X12624Y15114D02*
X12624Y15714D01*
X12624Y15714D02*
X12224Y15714D01*
X11824Y15714D02*
X11424Y15714D01*
X11424Y15714D02*
X11424Y15114D01*
X11424Y15114D02*
X11824Y15114D01*
X7699Y15139D02*
G75*
G03X7699Y15139I-50J0D01*
G74*
G01*
X7649Y15589D02*
X7649Y15189D01*
X7649Y15189D02*
X8249Y15189D01*
X8249Y15189D02*
X8249Y15589D01*
X8249Y15989D02*
X8249Y16389D01*
X8249Y16389D02*
X7649Y16389D01*
X7649Y16389D02*
X7649Y15989D01*
X3400Y3950D02*
G75*
G03X3400Y3950I-50J0D01*
G74*
G01*
X3800Y3950D02*
X3400Y3950D01*
X3400Y3950D02*
X3400Y3350D01*
X3400Y3350D02*
X3800Y3350D01*
X4200Y3350D02*
X4600Y3350D01*
X4600Y3350D02*
X4600Y3950D01*
X4600Y3950D02*
X4200Y3950D01*
G54D14*
X5350Y16150D02*
X5350Y15250D01*
X5350Y15250D02*
X5850Y15250D01*
X5850Y15250D02*
X5850Y16150D01*
X5850Y16150D02*
X5350Y16150D01*
X13949Y10039D02*
X13949Y10939D01*
X13949Y10939D02*
X13449Y10939D01*
X13449Y10939D02*
X13449Y10039D01*
X13449Y10039D02*
X13949Y10039D01*
X9499Y9589D02*
X9499Y8689D01*
X9499Y8689D02*
X9999Y8689D01*
X9999Y8689D02*
X9999Y9589D01*
X9999Y9589D02*
X9499Y9589D01*
X9999Y9839D02*
X9999Y10739D01*
X9999Y10739D02*
X9499Y10739D01*
X9499Y10739D02*
X9499Y9839D01*
X9499Y9839D02*
X9999Y9839D01*
X11499Y7989D02*
X12399Y7989D01*
X12399Y7989D02*
X12399Y8489D01*
X12399Y8489D02*
X11499Y8489D01*
X11499Y8489D02*
X11499Y7989D01*
X11649Y10039D02*
X11649Y10939D01*
X11649Y10939D02*
X11149Y10939D01*
X11149Y10939D02*
X11149Y10039D01*
X11149Y10039D02*
X11649Y10039D01*
X6549Y8739D02*
X7449Y8739D01*
X7449Y8739D02*
X7449Y9239D01*
X7449Y9239D02*
X6549Y9239D01*
X6549Y9239D02*
X6549Y8739D01*
X6549Y9589D02*
X7449Y9589D01*
X7449Y9589D02*
X7449Y10089D01*
X7449Y10089D02*
X6549Y10089D01*
X6549Y10089D02*
X6549Y9589D01*
X12624Y14814D02*
X11724Y14814D01*
X11724Y14814D02*
X11724Y14314D01*
X11724Y14314D02*
X12624Y14314D01*
X12624Y14314D02*
X12624Y14814D01*
X10074Y14314D02*
X10974Y14314D01*
X10974Y14314D02*
X10974Y14814D01*
X10974Y14814D02*
X10074Y14814D01*
X10074Y14814D02*
X10074Y14314D01*
X12100Y18050D02*
X12100Y17150D01*
X12100Y17150D02*
X12600Y17150D01*
X12600Y17150D02*
X12600Y18050D01*
X12600Y18050D02*
X12100Y18050D01*
X5249Y10289D02*
X5249Y9389D01*
X5249Y9389D02*
X5749Y9389D01*
X5749Y9389D02*
X5749Y10289D01*
X5749Y10289D02*
X5249Y10289D01*
X3649Y12689D02*
X3649Y13589D01*
X3649Y13589D02*
X3149Y13589D01*
X3149Y13589D02*
X3149Y12689D01*
X3149Y12689D02*
X3649Y12689D01*
X4449Y12689D02*
X4449Y13589D01*
X4449Y13589D02*
X3949Y13589D01*
X3949Y13589D02*
X3949Y12689D01*
X3949Y12689D02*
X4449Y12689D01*
X2350Y16100D02*
X2350Y15200D01*
X2350Y15200D02*
X2850Y15200D01*
X2850Y15200D02*
X2850Y16100D01*
X2850Y16100D02*
X2350Y16100D01*
X7325Y5279D02*
X7325Y6179D01*
X7325Y6179D02*
X6825Y6179D01*
X6825Y6179D02*
X6825Y5279D01*
X6825Y5279D02*
X7325Y5279D01*
X13625Y5279D02*
X13625Y6179D01*
X13625Y6179D02*
X13125Y6179D01*
X13125Y6179D02*
X13125Y5279D01*
X13125Y5279D02*
X13625Y5279D01*
X13125Y3079D02*
X13125Y2179D01*
X13125Y2179D02*
X13625Y2179D01*
X13625Y2179D02*
X13625Y3079D01*
X13625Y3079D02*
X13125Y3079D01*
X14075Y3079D02*
X14075Y2179D01*
X14075Y2179D02*
X14575Y2179D01*
X14575Y2179D02*
X14575Y3079D01*
X14575Y3079D02*
X14075Y3079D01*
X5900Y3100D02*
X5900Y2200D01*
X5900Y2200D02*
X6400Y2200D01*
X6400Y2200D02*
X6400Y3100D01*
X6400Y3100D02*
X5900Y3100D01*
X6850Y3100D02*
X6850Y2200D01*
X6850Y2200D02*
X7350Y2200D01*
X7350Y2200D02*
X7350Y3100D01*
X7350Y3100D02*
X6850Y3100D01*
X6699Y15239D02*
X6699Y16139D01*
X6699Y16139D02*
X6199Y16139D01*
X6199Y16139D02*
X6199Y15239D01*
X6199Y15239D02*
X6699Y15239D01*
X7399Y15239D02*
X7399Y16139D01*
X7399Y16139D02*
X6899Y16139D01*
X6899Y16139D02*
X6899Y15239D01*
X6899Y15239D02*
X7399Y15239D01*
X5650Y3500D02*
X5650Y4400D01*
X5650Y4400D02*
X5150Y4400D01*
X5150Y4400D02*
X5150Y3500D01*
X5150Y3500D02*
X5650Y3500D01*
X2049Y10289D02*
X2049Y9389D01*
X2049Y9389D02*
X2549Y9389D01*
X2549Y9389D02*
X2549Y10289D01*
X2549Y10289D02*
X2049Y10289D01*
X13449Y9739D02*
X13449Y8839D01*
X13449Y8839D02*
X13949Y8839D01*
X13949Y8839D02*
X13949Y9739D01*
X13949Y9739D02*
X13449Y9739D01*
X12299Y11539D02*
X13199Y11539D01*
X13199Y11539D02*
X13199Y12039D01*
X13199Y12039D02*
X12299Y12039D01*
X12299Y12039D02*
X12299Y11539D01*
X7400Y11050D02*
X8300Y11050D01*
X8300Y11050D02*
X8300Y11550D01*
X8300Y11550D02*
X7400Y11550D01*
X7400Y11550D02*
X7400Y11050D01*
X9649Y13889D02*
X9649Y14789D01*
X9649Y14789D02*
X9149Y14789D01*
X9149Y14789D02*
X9149Y13889D01*
X9149Y13889D02*
X9649Y13889D01*
X9649Y11789D02*
X9649Y12689D01*
X9649Y12689D02*
X9149Y12689D01*
X9149Y12689D02*
X9149Y11789D01*
X9149Y11789D02*
X9649Y11789D01*
G54D10*
X2970Y5943D02*
X2970Y5156D01*
X2970Y5156D02*
X4229Y5156D01*
X4229Y5156D02*
X4229Y5943D01*
X4229Y5943D02*
X2970Y5943D01*
X10951Y13527D02*
X10951Y12700D01*
X10951Y12700D02*
X11896Y12700D01*
X11896Y12700D02*
X11896Y13527D01*
X11896Y13527D02*
X10951Y13527D01*
G54D16*
X11668Y13337D02*
G75*
G03X11668Y13337I-100J0D01*
G74*
G01*
G54D10*
X12762Y10261D02*
X11935Y10261D01*
X11935Y10261D02*
X11935Y9316D01*
X11935Y9316D02*
X12762Y9316D01*
X12762Y9316D02*
X12762Y10261D01*
G54D16*
X12672Y9645D02*
G75*
G03X12672Y9645I-100J0D01*
G74*
G01*
G54D10*
X8812Y10111D02*
X7985Y10111D01*
X7985Y10111D02*
X7985Y9166D01*
X7985Y9166D02*
X8812Y9166D01*
X8812Y9166D02*
X8812Y10111D01*
G54D16*
X8722Y9495D02*
G75*
G03X8722Y9495I-100J0D01*
G74*
G01*
G54D13*
X8099Y11789D02*
G75*
G03X8099Y11789I-100J0D01*
G74*
G01*
X8083Y14305D02*
X8083Y12573D01*
X8083Y12573D02*
X6115Y12573D01*
X6115Y12573D02*
X6115Y14305D01*
X6115Y14305D02*
X8083Y14305D01*
G54D17*
X18271Y4807D02*
X17971Y4807D01*
X17971Y4735D01*
X17985Y4692D01*
X18014Y4664D01*
X18042Y4650D01*
X18100Y4635D01*
X18142Y4635D01*
X18200Y4650D01*
X18228Y4664D01*
X18257Y4692D01*
X18271Y4735D01*
X18271Y4807D01*
X18271Y4350D02*
X18271Y4521D01*
X18271Y4435D02*
X17971Y4435D01*
X18014Y4464D01*
X18042Y4492D01*
X18057Y4521D01*
X17971Y4164D02*
X17971Y4135D01*
X17985Y4107D01*
X18000Y4092D01*
X18028Y4078D01*
X18085Y4064D01*
X18157Y4064D01*
X18214Y4078D01*
X18242Y4092D01*
X18257Y4107D01*
X18271Y4135D01*
X18271Y4164D01*
X18257Y4192D01*
X18242Y4207D01*
X18214Y4221D01*
X18157Y4235D01*
X18085Y4235D01*
X18028Y4221D01*
X18000Y4207D01*
X17985Y4192D01*
X17971Y4164D01*
X17971Y3792D02*
X17971Y3935D01*
X18114Y3950D01*
X18100Y3935D01*
X18085Y3907D01*
X18085Y3835D01*
X18100Y3807D01*
X18114Y3792D01*
X18142Y3778D01*
X18214Y3778D01*
X18242Y3792D01*
X18257Y3807D01*
X18271Y3835D01*
X18271Y3907D01*
X18257Y3935D01*
X18242Y3950D01*
X16421Y13107D02*
X16121Y13107D01*
X16121Y13035D01*
X16135Y12992D01*
X16164Y12964D01*
X16192Y12950D01*
X16250Y12935D01*
X16292Y12935D01*
X16350Y12950D01*
X16378Y12964D01*
X16407Y12992D01*
X16421Y13035D01*
X16421Y13107D01*
X16421Y12650D02*
X16421Y12821D01*
X16421Y12735D02*
X16121Y12735D01*
X16164Y12764D01*
X16192Y12792D01*
X16207Y12821D01*
X16121Y12464D02*
X16121Y12435D01*
X16135Y12407D01*
X16150Y12392D01*
X16178Y12378D01*
X16235Y12364D01*
X16307Y12364D01*
X16364Y12378D01*
X16392Y12392D01*
X16407Y12407D01*
X16421Y12435D01*
X16421Y12464D01*
X16407Y12492D01*
X16392Y12507D01*
X16364Y12521D01*
X16307Y12535D01*
X16235Y12535D01*
X16178Y12521D01*
X16150Y12507D01*
X16135Y12492D01*
X16121Y12464D01*
X16221Y12107D02*
X16421Y12107D01*
X16107Y12178D02*
X16321Y12250D01*
X16321Y12064D01*
G54D14*
X11107Y1747D02*
X11107Y1342D01*
X11083Y1295D01*
X11059Y1271D01*
X11011Y1247D01*
X10916Y1247D01*
X10869Y1271D01*
X10845Y1295D01*
X10821Y1342D01*
X10821Y1747D01*
X10321Y1247D02*
X10607Y1247D01*
X10464Y1247D02*
X10464Y1747D01*
X10511Y1676D01*
X10559Y1628D01*
X10607Y1604D01*
X10011Y1747D02*
X9964Y1747D01*
X9916Y1723D01*
X9892Y1700D01*
X9869Y1652D01*
X9845Y1557D01*
X9845Y1438D01*
X9869Y1342D01*
X9892Y1295D01*
X9916Y1271D01*
X9964Y1247D01*
X10011Y1247D01*
X10059Y1271D01*
X10083Y1295D01*
X10107Y1342D01*
X10130Y1438D01*
X10130Y1557D01*
X10107Y1652D01*
X10083Y1700D01*
X10059Y1723D01*
X10011Y1747D01*
X9416Y1580D02*
X9416Y1247D01*
X9535Y1771D02*
X9654Y1414D01*
X9345Y1414D01*
X15442Y6535D02*
X15457Y6550D01*
X15471Y6592D01*
X15471Y6621D01*
X15457Y6664D01*
X15428Y6692D01*
X15400Y6707D01*
X15342Y6721D01*
X15300Y6721D01*
X15242Y6707D01*
X15214Y6692D01*
X15185Y6664D01*
X15171Y6621D01*
X15171Y6592D01*
X15185Y6550D01*
X15200Y6535D01*
X15471Y6250D02*
X15471Y6421D01*
X15471Y6335D02*
X15171Y6335D01*
X15214Y6364D01*
X15242Y6392D01*
X15257Y6421D01*
X15471Y5964D02*
X15471Y6135D01*
X15471Y6050D02*
X15171Y6050D01*
X15214Y6078D01*
X15242Y6107D01*
X15257Y6135D01*
X15471Y5821D02*
X15471Y5764D01*
X15457Y5735D01*
X15442Y5721D01*
X15400Y5692D01*
X15342Y5678D01*
X15228Y5678D01*
X15200Y5692D01*
X15185Y5707D01*
X15171Y5735D01*
X15171Y5792D01*
X15185Y5821D01*
X15200Y5835D01*
X15228Y5850D01*
X15300Y5850D01*
X15328Y5835D01*
X15342Y5821D01*
X15357Y5792D01*
X15357Y5735D01*
X15342Y5707D01*
X15328Y5692D01*
X15300Y5678D01*
X5342Y6385D02*
X5357Y6400D01*
X5371Y6442D01*
X5371Y6471D01*
X5357Y6514D01*
X5328Y6542D01*
X5300Y6557D01*
X5242Y6571D01*
X5200Y6571D01*
X5142Y6557D01*
X5114Y6542D01*
X5085Y6514D01*
X5071Y6471D01*
X5071Y6442D01*
X5085Y6400D01*
X5100Y6385D01*
X5371Y6100D02*
X5371Y6271D01*
X5371Y6185D02*
X5071Y6185D01*
X5114Y6214D01*
X5142Y6242D01*
X5157Y6271D01*
X5371Y5814D02*
X5371Y5985D01*
X5371Y5900D02*
X5071Y5900D01*
X5114Y5928D01*
X5142Y5957D01*
X5157Y5985D01*
X5171Y5557D02*
X5371Y5557D01*
X5057Y5628D02*
X5271Y5700D01*
X5271Y5514D01*
G54D18*
X11160Y9270D02*
X11170Y9279D01*
X11179Y9307D01*
X11179Y9326D01*
X11170Y9354D01*
X11151Y9373D01*
X11132Y9383D01*
X11095Y9392D01*
X11067Y9392D01*
X11029Y9383D01*
X11010Y9373D01*
X10992Y9354D01*
X10982Y9326D01*
X10982Y9307D01*
X10992Y9279D01*
X11001Y9270D01*
X11179Y9082D02*
X11179Y9195D01*
X11179Y9139D02*
X10982Y9139D01*
X11010Y9157D01*
X11029Y9176D01*
X11039Y9195D01*
X11001Y9007D02*
X10992Y8998D01*
X10982Y8979D01*
X10982Y8932D01*
X10992Y8913D01*
X11001Y8904D01*
X11020Y8895D01*
X11039Y8895D01*
X11067Y8904D01*
X11179Y9017D01*
X11179Y8895D01*
X10982Y8829D02*
X10982Y8707D01*
X11057Y8773D01*
X11057Y8745D01*
X11067Y8726D01*
X11076Y8716D01*
X11095Y8707D01*
X11142Y8707D01*
X11160Y8716D01*
X11170Y8726D01*
X11179Y8745D01*
X11179Y8801D01*
X11170Y8820D01*
X11160Y8829D01*
X10420Y11289D02*
X10429Y11279D01*
X10457Y11270D01*
X10476Y11270D01*
X10504Y11279D01*
X10523Y11298D01*
X10533Y11317D01*
X10542Y11354D01*
X10542Y11382D01*
X10533Y11420D01*
X10523Y11439D01*
X10504Y11457D01*
X10476Y11467D01*
X10457Y11467D01*
X10429Y11457D01*
X10420Y11448D01*
X10232Y11270D02*
X10345Y11270D01*
X10289Y11270D02*
X10289Y11467D01*
X10307Y11439D01*
X10326Y11420D01*
X10345Y11410D01*
X10157Y11448D02*
X10148Y11457D01*
X10129Y11467D01*
X10082Y11467D01*
X10063Y11457D01*
X10054Y11448D01*
X10045Y11429D01*
X10045Y11410D01*
X10054Y11382D01*
X10167Y11270D01*
X10045Y11270D01*
X9876Y11467D02*
X9913Y11467D01*
X9932Y11457D01*
X9942Y11448D01*
X9960Y11420D01*
X9970Y11382D01*
X9970Y11307D01*
X9960Y11289D01*
X9951Y11279D01*
X9932Y11270D01*
X9895Y11270D01*
X9876Y11279D01*
X9866Y11289D01*
X9857Y11307D01*
X9857Y11354D01*
X9866Y11373D01*
X9876Y11382D01*
X9895Y11392D01*
X9932Y11392D01*
X9951Y11382D01*
X9960Y11373D01*
X9970Y11354D01*
X15110Y9420D02*
X15120Y9429D01*
X15129Y9457D01*
X15129Y9476D01*
X15120Y9504D01*
X15101Y9523D01*
X15082Y9533D01*
X15045Y9542D01*
X15017Y9542D01*
X14979Y9533D01*
X14960Y9523D01*
X14942Y9504D01*
X14932Y9476D01*
X14932Y9457D01*
X14942Y9429D01*
X14951Y9420D01*
X15129Y9232D02*
X15129Y9345D01*
X15129Y9289D02*
X14932Y9289D01*
X14960Y9307D01*
X14979Y9326D01*
X14989Y9345D01*
X15129Y9045D02*
X15129Y9157D01*
X15129Y9101D02*
X14932Y9101D01*
X14960Y9120D01*
X14979Y9139D01*
X14989Y9157D01*
X14932Y8866D02*
X14932Y8960D01*
X15026Y8970D01*
X15017Y8960D01*
X15007Y8942D01*
X15007Y8895D01*
X15017Y8876D01*
X15026Y8866D01*
X15045Y8857D01*
X15092Y8857D01*
X15110Y8866D01*
X15120Y8876D01*
X15129Y8895D01*
X15129Y8942D01*
X15120Y8960D01*
X15110Y8970D01*
X15110Y10820D02*
X15120Y10829D01*
X15129Y10857D01*
X15129Y10876D01*
X15120Y10904D01*
X15101Y10923D01*
X15082Y10933D01*
X15045Y10942D01*
X15017Y10942D01*
X14979Y10933D01*
X14960Y10923D01*
X14942Y10904D01*
X14932Y10876D01*
X14932Y10857D01*
X14942Y10829D01*
X14951Y10820D01*
X15129Y10632D02*
X15129Y10745D01*
X15129Y10689D02*
X14932Y10689D01*
X14960Y10707D01*
X14979Y10726D01*
X14989Y10745D01*
X14951Y10557D02*
X14942Y10548D01*
X14932Y10529D01*
X14932Y10482D01*
X14942Y10463D01*
X14951Y10454D01*
X14970Y10445D01*
X14989Y10445D01*
X15017Y10454D01*
X15129Y10567D01*
X15129Y10445D01*
X14951Y10370D02*
X14942Y10360D01*
X14932Y10342D01*
X14932Y10295D01*
X14942Y10276D01*
X14951Y10266D01*
X14970Y10257D01*
X14989Y10257D01*
X15017Y10266D01*
X15129Y10379D01*
X15129Y10257D01*
X9810Y15620D02*
X9820Y15629D01*
X9829Y15657D01*
X9829Y15676D01*
X9820Y15704D01*
X9801Y15723D01*
X9782Y15733D01*
X9745Y15742D01*
X9717Y15742D01*
X9679Y15733D01*
X9660Y15723D01*
X9642Y15704D01*
X9632Y15676D01*
X9632Y15657D01*
X9642Y15629D01*
X9651Y15620D01*
X9829Y15432D02*
X9829Y15545D01*
X9829Y15489D02*
X9632Y15489D01*
X9660Y15507D01*
X9679Y15526D01*
X9689Y15545D01*
X9829Y15245D02*
X9829Y15357D01*
X9829Y15301D02*
X9632Y15301D01*
X9660Y15320D01*
X9679Y15339D01*
X9689Y15357D01*
X9651Y15170D02*
X9642Y15160D01*
X9632Y15142D01*
X9632Y15095D01*
X9642Y15076D01*
X9651Y15066D01*
X9670Y15057D01*
X9689Y15057D01*
X9717Y15066D01*
X9829Y15179D01*
X9829Y15057D01*
X13110Y15570D02*
X13120Y15579D01*
X13129Y15607D01*
X13129Y15626D01*
X13120Y15654D01*
X13101Y15673D01*
X13082Y15683D01*
X13045Y15692D01*
X13017Y15692D01*
X12979Y15683D01*
X12960Y15673D01*
X12942Y15654D01*
X12932Y15626D01*
X12932Y15607D01*
X12942Y15579D01*
X12951Y15570D01*
X13129Y15382D02*
X13129Y15495D01*
X13129Y15439D02*
X12932Y15439D01*
X12960Y15457D01*
X12979Y15476D01*
X12989Y15495D01*
X12932Y15260D02*
X12932Y15242D01*
X12942Y15223D01*
X12951Y15213D01*
X12970Y15204D01*
X13007Y15195D01*
X13054Y15195D01*
X13092Y15204D01*
X13110Y15213D01*
X13120Y15223D01*
X13129Y15242D01*
X13129Y15260D01*
X13120Y15279D01*
X13110Y15289D01*
X13092Y15298D01*
X13054Y15307D01*
X13007Y15307D01*
X12970Y15298D01*
X12951Y15289D01*
X12942Y15279D01*
X12932Y15260D01*
X12932Y15129D02*
X12932Y14998D01*
X13129Y15082D01*
X8610Y16020D02*
X8620Y16029D01*
X8629Y16057D01*
X8629Y16076D01*
X8620Y16104D01*
X8601Y16123D01*
X8582Y16133D01*
X8545Y16142D01*
X8517Y16142D01*
X8479Y16133D01*
X8460Y16123D01*
X8442Y16104D01*
X8432Y16076D01*
X8432Y16057D01*
X8442Y16029D01*
X8451Y16020D01*
X8629Y15832D02*
X8629Y15945D01*
X8629Y15889D02*
X8432Y15889D01*
X8460Y15907D01*
X8479Y15926D01*
X8489Y15945D01*
X8432Y15710D02*
X8432Y15692D01*
X8442Y15673D01*
X8451Y15663D01*
X8470Y15654D01*
X8507Y15645D01*
X8554Y15645D01*
X8592Y15654D01*
X8610Y15663D01*
X8620Y15673D01*
X8629Y15692D01*
X8629Y15710D01*
X8620Y15729D01*
X8610Y15739D01*
X8592Y15748D01*
X8554Y15757D01*
X8507Y15757D01*
X8470Y15748D01*
X8451Y15739D01*
X8442Y15729D01*
X8432Y15710D01*
X8432Y15466D02*
X8432Y15560D01*
X8526Y15570D01*
X8517Y15560D01*
X8507Y15542D01*
X8507Y15495D01*
X8517Y15476D01*
X8526Y15466D01*
X8545Y15457D01*
X8592Y15457D01*
X8610Y15466D01*
X8620Y15476D01*
X8629Y15495D01*
X8629Y15542D01*
X8620Y15560D01*
X8610Y15570D01*
X4351Y3073D02*
X4417Y3073D01*
X4417Y2970D02*
X4417Y3167D01*
X4323Y3167D01*
X4182Y3073D02*
X4154Y3064D01*
X4145Y3054D01*
X4136Y3035D01*
X4136Y3007D01*
X4145Y2989D01*
X4154Y2979D01*
X4173Y2970D01*
X4248Y2970D01*
X4248Y3167D01*
X4182Y3167D01*
X4164Y3157D01*
X4154Y3148D01*
X4145Y3129D01*
X4145Y3110D01*
X4154Y3092D01*
X4164Y3082D01*
X4182Y3073D01*
X4248Y3073D01*
X3948Y2970D02*
X4060Y2970D01*
X4004Y2970D02*
X4004Y3167D01*
X4023Y3139D01*
X4042Y3120D01*
X4060Y3110D01*
X3826Y3167D02*
X3807Y3167D01*
X3788Y3157D01*
X3779Y3148D01*
X3770Y3129D01*
X3760Y3092D01*
X3760Y3045D01*
X3770Y3007D01*
X3779Y2989D01*
X3788Y2979D01*
X3807Y2970D01*
X3826Y2970D01*
X3845Y2979D01*
X3854Y2989D01*
X3863Y3007D01*
X3873Y3045D01*
X3873Y3092D01*
X3863Y3129D01*
X3854Y3148D01*
X3845Y3157D01*
X3826Y3167D01*
X3573Y2970D02*
X3685Y2970D01*
X3629Y2970D02*
X3629Y3167D01*
X3648Y3139D01*
X3666Y3120D01*
X3685Y3110D01*
G54D19*
X5180Y15901D02*
X5085Y15961D01*
X5180Y16004D02*
X4980Y16004D01*
X4980Y15935D01*
X4990Y15918D01*
X5000Y15910D01*
X5019Y15901D01*
X5047Y15901D01*
X5066Y15910D01*
X5076Y15918D01*
X5085Y15935D01*
X5085Y16004D01*
X5180Y15730D02*
X5180Y15832D01*
X5180Y15781D02*
X4980Y15781D01*
X5009Y15798D01*
X5028Y15815D01*
X5038Y15832D01*
X4980Y15618D02*
X4980Y15601D01*
X4990Y15584D01*
X5000Y15575D01*
X5019Y15567D01*
X5057Y15558D01*
X5104Y15558D01*
X5142Y15567D01*
X5161Y15575D01*
X5171Y15584D01*
X5180Y15601D01*
X5180Y15618D01*
X5171Y15635D01*
X5161Y15644D01*
X5142Y15652D01*
X5104Y15661D01*
X5057Y15661D01*
X5019Y15652D01*
X5000Y15644D01*
X4990Y15635D01*
X4980Y15618D01*
X4980Y15395D02*
X4980Y15481D01*
X5076Y15489D01*
X5066Y15481D01*
X5057Y15464D01*
X5057Y15421D01*
X5066Y15404D01*
X5076Y15395D01*
X5095Y15387D01*
X5142Y15387D01*
X5161Y15395D01*
X5171Y15404D01*
X5180Y15421D01*
X5180Y15464D01*
X5171Y15481D01*
X5161Y15489D01*
X13311Y10701D02*
X13321Y10710D01*
X13330Y10735D01*
X13330Y10752D01*
X13321Y10778D01*
X13302Y10795D01*
X13283Y10804D01*
X13245Y10812D01*
X13216Y10812D01*
X13178Y10804D01*
X13159Y10795D01*
X13140Y10778D01*
X13130Y10752D01*
X13130Y10735D01*
X13140Y10710D01*
X13150Y10701D01*
X13330Y10530D02*
X13330Y10632D01*
X13330Y10581D02*
X13130Y10581D01*
X13159Y10598D01*
X13178Y10615D01*
X13188Y10632D01*
X13150Y10461D02*
X13140Y10452D01*
X13130Y10435D01*
X13130Y10392D01*
X13140Y10375D01*
X13150Y10367D01*
X13169Y10358D01*
X13188Y10358D01*
X13216Y10367D01*
X13330Y10470D01*
X13330Y10358D01*
X13330Y10187D02*
X13330Y10289D01*
X13330Y10238D02*
X13130Y10238D01*
X13159Y10255D01*
X13178Y10272D01*
X13188Y10289D01*
X9311Y9351D02*
X9321Y9360D01*
X9330Y9385D01*
X9330Y9402D01*
X9321Y9428D01*
X9302Y9445D01*
X9283Y9454D01*
X9245Y9462D01*
X9216Y9462D01*
X9178Y9454D01*
X9159Y9445D01*
X9140Y9428D01*
X9130Y9402D01*
X9130Y9385D01*
X9140Y9360D01*
X9150Y9351D01*
X9330Y9180D02*
X9330Y9282D01*
X9330Y9231D02*
X9130Y9231D01*
X9159Y9248D01*
X9178Y9265D01*
X9188Y9282D01*
X9150Y9111D02*
X9140Y9102D01*
X9130Y9085D01*
X9130Y9042D01*
X9140Y9025D01*
X9150Y9017D01*
X9169Y9008D01*
X9188Y9008D01*
X9216Y9017D01*
X9330Y9120D01*
X9330Y9008D01*
X9197Y8854D02*
X9330Y8854D01*
X9121Y8897D02*
X9264Y8939D01*
X9264Y8828D01*
X9311Y10501D02*
X9321Y10510D01*
X9330Y10535D01*
X9330Y10552D01*
X9321Y10578D01*
X9302Y10595D01*
X9283Y10604D01*
X9245Y10612D01*
X9216Y10612D01*
X9178Y10604D01*
X9159Y10595D01*
X9140Y10578D01*
X9130Y10552D01*
X9130Y10535D01*
X9140Y10510D01*
X9150Y10501D01*
X9330Y10330D02*
X9330Y10432D01*
X9330Y10381D02*
X9130Y10381D01*
X9159Y10398D01*
X9178Y10415D01*
X9188Y10432D01*
X9150Y10261D02*
X9140Y10252D01*
X9130Y10235D01*
X9130Y10192D01*
X9140Y10175D01*
X9150Y10167D01*
X9169Y10158D01*
X9188Y10158D01*
X9216Y10167D01*
X9330Y10270D01*
X9330Y10158D01*
X9130Y9995D02*
X9130Y10081D01*
X9226Y10089D01*
X9216Y10081D01*
X9207Y10064D01*
X9207Y10021D01*
X9216Y10004D01*
X9226Y9995D01*
X9245Y9987D01*
X9292Y9987D01*
X9311Y9995D01*
X9321Y10004D01*
X9330Y10021D01*
X9330Y10064D01*
X9321Y10081D01*
X9311Y10089D01*
X12151Y7669D02*
X12211Y7764D01*
X12254Y7669D02*
X12254Y7869D01*
X12185Y7869D01*
X12168Y7859D01*
X12160Y7850D01*
X12151Y7830D01*
X12151Y7802D01*
X12160Y7783D01*
X12168Y7773D01*
X12185Y7764D01*
X12254Y7764D01*
X11980Y7669D02*
X12082Y7669D01*
X12031Y7669D02*
X12031Y7869D01*
X12048Y7840D01*
X12065Y7821D01*
X12082Y7811D01*
X11868Y7869D02*
X11851Y7869D01*
X11834Y7859D01*
X11825Y7850D01*
X11817Y7830D01*
X11808Y7792D01*
X11808Y7745D01*
X11817Y7707D01*
X11825Y7688D01*
X11834Y7678D01*
X11851Y7669D01*
X11868Y7669D01*
X11885Y7678D01*
X11894Y7688D01*
X11902Y7707D01*
X11911Y7745D01*
X11911Y7792D01*
X11902Y7830D01*
X11894Y7850D01*
X11885Y7859D01*
X11868Y7869D01*
X11654Y7869D02*
X11688Y7869D01*
X11705Y7859D01*
X11714Y7850D01*
X11731Y7821D01*
X11739Y7783D01*
X11739Y7707D01*
X11731Y7688D01*
X11722Y7678D01*
X11705Y7669D01*
X11671Y7669D01*
X11654Y7678D01*
X11645Y7688D01*
X11637Y7707D01*
X11637Y7754D01*
X11645Y7773D01*
X11654Y7783D01*
X11671Y7792D01*
X11705Y7792D01*
X11722Y7783D01*
X11731Y7773D01*
X11739Y7754D01*
X11901Y11269D02*
X11961Y11364D01*
X12004Y11269D02*
X12004Y11469D01*
X11935Y11469D01*
X11918Y11459D01*
X11910Y11450D01*
X11901Y11430D01*
X11901Y11402D01*
X11910Y11383D01*
X11918Y11373D01*
X11935Y11364D01*
X12004Y11364D01*
X11730Y11269D02*
X11832Y11269D01*
X11781Y11269D02*
X11781Y11469D01*
X11798Y11440D01*
X11815Y11421D01*
X11832Y11411D01*
X11558Y11269D02*
X11661Y11269D01*
X11610Y11269D02*
X11610Y11469D01*
X11627Y11440D01*
X11644Y11421D01*
X11661Y11411D01*
X11387Y11269D02*
X11489Y11269D01*
X11438Y11269D02*
X11438Y11469D01*
X11455Y11440D01*
X11472Y11421D01*
X11489Y11411D01*
X7201Y8369D02*
X7261Y8464D01*
X7304Y8369D02*
X7304Y8569D01*
X7235Y8569D01*
X7218Y8559D01*
X7210Y8550D01*
X7201Y8530D01*
X7201Y8502D01*
X7210Y8483D01*
X7218Y8473D01*
X7235Y8464D01*
X7304Y8464D01*
X7030Y8369D02*
X7132Y8369D01*
X7081Y8369D02*
X7081Y8569D01*
X7098Y8540D01*
X7115Y8521D01*
X7132Y8511D01*
X6858Y8369D02*
X6961Y8369D01*
X6910Y8369D02*
X6910Y8569D01*
X6927Y8540D01*
X6944Y8521D01*
X6961Y8511D01*
X6789Y8550D02*
X6781Y8559D01*
X6764Y8569D01*
X6721Y8569D01*
X6704Y8559D01*
X6695Y8550D01*
X6687Y8530D01*
X6687Y8511D01*
X6695Y8483D01*
X6798Y8369D01*
X6687Y8369D01*
X7201Y10219D02*
X7261Y10314D01*
X7304Y10219D02*
X7304Y10419D01*
X7235Y10419D01*
X7218Y10409D01*
X7210Y10400D01*
X7201Y10380D01*
X7201Y10352D01*
X7210Y10333D01*
X7218Y10323D01*
X7235Y10314D01*
X7304Y10314D01*
X7030Y10219D02*
X7132Y10219D01*
X7081Y10219D02*
X7081Y10419D01*
X7098Y10390D01*
X7115Y10371D01*
X7132Y10361D01*
X6961Y10400D02*
X6952Y10409D01*
X6935Y10419D01*
X6892Y10419D01*
X6875Y10409D01*
X6867Y10400D01*
X6858Y10380D01*
X6858Y10361D01*
X6867Y10333D01*
X6970Y10219D01*
X6858Y10219D01*
X6747Y10419D02*
X6729Y10419D01*
X6712Y10409D01*
X6704Y10400D01*
X6695Y10380D01*
X6687Y10342D01*
X6687Y10295D01*
X6695Y10257D01*
X6704Y10238D01*
X6712Y10228D01*
X6729Y10219D01*
X6747Y10219D01*
X6764Y10228D01*
X6772Y10238D01*
X6781Y10257D01*
X6789Y10295D01*
X6789Y10342D01*
X6781Y10380D01*
X6772Y10400D01*
X6764Y10409D01*
X6747Y10419D01*
X12351Y13988D02*
X12360Y13978D01*
X12385Y13969D01*
X12402Y13969D01*
X12428Y13978D01*
X12445Y13997D01*
X12454Y14016D01*
X12462Y14054D01*
X12462Y14083D01*
X12454Y14121D01*
X12445Y14140D01*
X12428Y14159D01*
X12402Y14169D01*
X12385Y14169D01*
X12360Y14159D01*
X12351Y14150D01*
X12180Y13969D02*
X12282Y13969D01*
X12231Y13969D02*
X12231Y14169D01*
X12248Y14140D01*
X12265Y14121D01*
X12282Y14111D01*
X12068Y14169D02*
X12051Y14169D01*
X12034Y14159D01*
X12025Y14150D01*
X12017Y14130D01*
X12008Y14092D01*
X12008Y14045D01*
X12017Y14007D01*
X12025Y13988D01*
X12034Y13978D01*
X12051Y13969D01*
X12068Y13969D01*
X12085Y13978D01*
X12094Y13988D01*
X12102Y14007D01*
X12111Y14045D01*
X12111Y14092D01*
X12102Y14130D01*
X12094Y14150D01*
X12085Y14159D01*
X12068Y14169D01*
X11905Y14083D02*
X11922Y14092D01*
X11931Y14102D01*
X11939Y14121D01*
X11939Y14130D01*
X11931Y14150D01*
X11922Y14159D01*
X11905Y14169D01*
X11871Y14169D01*
X11854Y14159D01*
X11845Y14150D01*
X11837Y14130D01*
X11837Y14121D01*
X11845Y14102D01*
X11854Y14092D01*
X11871Y14083D01*
X11905Y14083D01*
X11922Y14073D01*
X11931Y14064D01*
X11939Y14045D01*
X11939Y14007D01*
X11931Y13988D01*
X11922Y13978D01*
X11905Y13969D01*
X11871Y13969D01*
X11854Y13978D01*
X11845Y13988D01*
X11837Y14007D01*
X11837Y14045D01*
X11845Y14064D01*
X11854Y14073D01*
X11871Y14083D01*
X10701Y13988D02*
X10710Y13978D01*
X10735Y13969D01*
X10752Y13969D01*
X10778Y13978D01*
X10795Y13997D01*
X10804Y14016D01*
X10812Y14054D01*
X10812Y14083D01*
X10804Y14121D01*
X10795Y14140D01*
X10778Y14159D01*
X10752Y14169D01*
X10735Y14169D01*
X10710Y14159D01*
X10701Y14150D01*
X10530Y13969D02*
X10632Y13969D01*
X10581Y13969D02*
X10581Y14169D01*
X10598Y14140D01*
X10615Y14121D01*
X10632Y14111D01*
X10418Y14169D02*
X10401Y14169D01*
X10384Y14159D01*
X10375Y14150D01*
X10367Y14130D01*
X10358Y14092D01*
X10358Y14045D01*
X10367Y14007D01*
X10375Y13988D01*
X10384Y13978D01*
X10401Y13969D01*
X10418Y13969D01*
X10435Y13978D01*
X10444Y13988D01*
X10452Y14007D01*
X10461Y14045D01*
X10461Y14092D01*
X10452Y14130D01*
X10444Y14150D01*
X10435Y14159D01*
X10418Y14169D01*
X10272Y13969D02*
X10238Y13969D01*
X10221Y13978D01*
X10212Y13988D01*
X10195Y14016D01*
X10187Y14054D01*
X10187Y14130D01*
X10195Y14150D01*
X10204Y14159D01*
X10221Y14169D01*
X10255Y14169D01*
X10272Y14159D01*
X10281Y14150D01*
X10289Y14130D01*
X10289Y14083D01*
X10281Y14064D01*
X10272Y14054D01*
X10255Y14045D01*
X10221Y14045D01*
X10204Y14054D01*
X10195Y14064D01*
X10187Y14083D01*
X12930Y17801D02*
X12835Y17861D01*
X12930Y17904D02*
X12730Y17904D01*
X12730Y17835D01*
X12740Y17818D01*
X12750Y17810D01*
X12769Y17801D01*
X12797Y17801D01*
X12816Y17810D01*
X12826Y17818D01*
X12835Y17835D01*
X12835Y17904D01*
X12930Y17630D02*
X12930Y17732D01*
X12930Y17681D02*
X12730Y17681D01*
X12759Y17698D01*
X12778Y17715D01*
X12788Y17732D01*
X12730Y17518D02*
X12730Y17501D01*
X12740Y17484D01*
X12750Y17475D01*
X12769Y17467D01*
X12807Y17458D01*
X12854Y17458D01*
X12892Y17467D01*
X12911Y17475D01*
X12921Y17484D01*
X12930Y17501D01*
X12930Y17518D01*
X12921Y17535D01*
X12911Y17544D01*
X12892Y17552D01*
X12854Y17561D01*
X12807Y17561D01*
X12769Y17552D01*
X12750Y17544D01*
X12740Y17535D01*
X12730Y17518D01*
X12797Y17304D02*
X12930Y17304D01*
X12721Y17347D02*
X12864Y17389D01*
X12864Y17278D01*
X6111Y10051D02*
X6121Y10060D01*
X6130Y10085D01*
X6130Y10102D01*
X6121Y10128D01*
X6102Y10145D01*
X6083Y10154D01*
X6045Y10162D01*
X6016Y10162D01*
X5978Y10154D01*
X5959Y10145D01*
X5940Y10128D01*
X5930Y10102D01*
X5930Y10085D01*
X5940Y10060D01*
X5950Y10051D01*
X6130Y9880D02*
X6130Y9982D01*
X6130Y9931D02*
X5930Y9931D01*
X5959Y9948D01*
X5978Y9965D01*
X5988Y9982D01*
X5930Y9768D02*
X5930Y9751D01*
X5940Y9734D01*
X5950Y9725D01*
X5969Y9717D01*
X6007Y9708D01*
X6054Y9708D01*
X6092Y9717D01*
X6111Y9725D01*
X6121Y9734D01*
X6130Y9751D01*
X6130Y9768D01*
X6121Y9785D01*
X6111Y9794D01*
X6092Y9802D01*
X6054Y9811D01*
X6007Y9811D01*
X5969Y9802D01*
X5950Y9794D01*
X5940Y9785D01*
X5930Y9768D01*
X6130Y9537D02*
X6130Y9639D01*
X6130Y9588D02*
X5930Y9588D01*
X5959Y9605D01*
X5978Y9622D01*
X5988Y9639D01*
X2980Y13351D02*
X2885Y13411D01*
X2980Y13454D02*
X2780Y13454D01*
X2780Y13385D01*
X2790Y13368D01*
X2800Y13360D01*
X2819Y13351D01*
X2847Y13351D01*
X2866Y13360D01*
X2876Y13368D01*
X2885Y13385D01*
X2885Y13454D01*
X2980Y13180D02*
X2980Y13282D01*
X2980Y13231D02*
X2780Y13231D01*
X2809Y13248D01*
X2828Y13265D01*
X2838Y13282D01*
X2780Y13068D02*
X2780Y13051D01*
X2790Y13034D01*
X2800Y13025D01*
X2819Y13017D01*
X2857Y13008D01*
X2904Y13008D01*
X2942Y13017D01*
X2961Y13025D01*
X2971Y13034D01*
X2980Y13051D01*
X2980Y13068D01*
X2971Y13085D01*
X2961Y13094D01*
X2942Y13102D01*
X2904Y13111D01*
X2857Y13111D01*
X2819Y13102D01*
X2800Y13094D01*
X2790Y13085D01*
X2780Y13068D01*
X2800Y12939D02*
X2790Y12931D01*
X2780Y12914D01*
X2780Y12871D01*
X2790Y12854D01*
X2800Y12845D01*
X2819Y12837D01*
X2838Y12837D01*
X2866Y12845D01*
X2980Y12948D01*
X2980Y12837D01*
X4830Y13401D02*
X4735Y13461D01*
X4830Y13504D02*
X4630Y13504D01*
X4630Y13435D01*
X4640Y13418D01*
X4650Y13410D01*
X4669Y13401D01*
X4697Y13401D01*
X4716Y13410D01*
X4726Y13418D01*
X4735Y13435D01*
X4735Y13504D01*
X4830Y13230D02*
X4830Y13332D01*
X4830Y13281D02*
X4630Y13281D01*
X4659Y13298D01*
X4678Y13315D01*
X4688Y13332D01*
X4630Y13118D02*
X4630Y13101D01*
X4640Y13084D01*
X4650Y13075D01*
X4669Y13067D01*
X4707Y13058D01*
X4754Y13058D01*
X4792Y13067D01*
X4811Y13075D01*
X4821Y13084D01*
X4830Y13101D01*
X4830Y13118D01*
X4821Y13135D01*
X4811Y13144D01*
X4792Y13152D01*
X4754Y13161D01*
X4707Y13161D01*
X4669Y13152D01*
X4650Y13144D01*
X4640Y13135D01*
X4630Y13118D01*
X4830Y12887D02*
X4830Y12989D01*
X4830Y12938D02*
X4630Y12938D01*
X4659Y12955D01*
X4678Y12972D01*
X4688Y12989D01*
X2180Y15851D02*
X2085Y15911D01*
X2180Y15954D02*
X1980Y15954D01*
X1980Y15885D01*
X1990Y15868D01*
X2000Y15860D01*
X2019Y15851D01*
X2047Y15851D01*
X2066Y15860D01*
X2076Y15868D01*
X2085Y15885D01*
X2085Y15954D01*
X2180Y15680D02*
X2180Y15782D01*
X2180Y15731D02*
X1980Y15731D01*
X2009Y15748D01*
X2028Y15765D01*
X2038Y15782D01*
X1980Y15568D02*
X1980Y15551D01*
X1990Y15534D01*
X2000Y15525D01*
X2019Y15517D01*
X2057Y15508D01*
X2104Y15508D01*
X2142Y15517D01*
X2161Y15525D01*
X2171Y15534D01*
X2180Y15551D01*
X2180Y15568D01*
X2171Y15585D01*
X2161Y15594D01*
X2142Y15602D01*
X2104Y15611D01*
X2057Y15611D01*
X2019Y15602D01*
X2000Y15594D01*
X1990Y15585D01*
X1980Y15568D01*
X1980Y15448D02*
X1980Y15337D01*
X2057Y15397D01*
X2057Y15371D01*
X2066Y15354D01*
X2076Y15345D01*
X2095Y15337D01*
X2142Y15337D01*
X2161Y15345D01*
X2171Y15354D01*
X2180Y15371D01*
X2180Y15422D01*
X2171Y15439D01*
X2161Y15448D01*
X7661Y5951D02*
X7671Y5960D01*
X7680Y5985D01*
X7680Y6002D01*
X7671Y6028D01*
X7652Y6045D01*
X7633Y6054D01*
X7595Y6062D01*
X7566Y6062D01*
X7528Y6054D01*
X7509Y6045D01*
X7490Y6028D01*
X7480Y6002D01*
X7480Y5985D01*
X7490Y5960D01*
X7500Y5951D01*
X7680Y5780D02*
X7680Y5882D01*
X7680Y5831D02*
X7480Y5831D01*
X7509Y5848D01*
X7528Y5865D01*
X7538Y5882D01*
X7680Y5608D02*
X7680Y5711D01*
X7680Y5660D02*
X7480Y5660D01*
X7509Y5677D01*
X7528Y5694D01*
X7538Y5711D01*
X7680Y5437D02*
X7680Y5539D01*
X7680Y5488D02*
X7480Y5488D01*
X7509Y5505D01*
X7528Y5522D01*
X7538Y5539D01*
X12911Y5951D02*
X12921Y5960D01*
X12930Y5985D01*
X12930Y6002D01*
X12921Y6028D01*
X12902Y6045D01*
X12883Y6054D01*
X12845Y6062D01*
X12816Y6062D01*
X12778Y6054D01*
X12759Y6045D01*
X12740Y6028D01*
X12730Y6002D01*
X12730Y5985D01*
X12740Y5960D01*
X12750Y5951D01*
X12930Y5780D02*
X12930Y5882D01*
X12930Y5831D02*
X12730Y5831D01*
X12759Y5848D01*
X12778Y5865D01*
X12788Y5882D01*
X12930Y5608D02*
X12930Y5711D01*
X12930Y5660D02*
X12730Y5660D01*
X12759Y5677D01*
X12778Y5694D01*
X12788Y5711D01*
X12730Y5454D02*
X12730Y5488D01*
X12740Y5505D01*
X12750Y5514D01*
X12778Y5531D01*
X12816Y5539D01*
X12892Y5539D01*
X12911Y5531D01*
X12921Y5522D01*
X12930Y5505D01*
X12930Y5471D01*
X12921Y5454D01*
X12911Y5445D01*
X12892Y5437D01*
X12845Y5437D01*
X12826Y5445D01*
X12816Y5454D01*
X12807Y5471D01*
X12807Y5505D01*
X12816Y5522D01*
X12826Y5531D01*
X12845Y5539D01*
X12911Y2851D02*
X12921Y2860D01*
X12930Y2885D01*
X12930Y2902D01*
X12921Y2928D01*
X12902Y2945D01*
X12883Y2954D01*
X12845Y2962D01*
X12816Y2962D01*
X12778Y2954D01*
X12759Y2945D01*
X12740Y2928D01*
X12730Y2902D01*
X12730Y2885D01*
X12740Y2860D01*
X12750Y2851D01*
X12930Y2680D02*
X12930Y2782D01*
X12930Y2731D02*
X12730Y2731D01*
X12759Y2748D01*
X12778Y2765D01*
X12788Y2782D01*
X12930Y2508D02*
X12930Y2611D01*
X12930Y2560D02*
X12730Y2560D01*
X12759Y2577D01*
X12778Y2594D01*
X12788Y2611D01*
X12730Y2448D02*
X12730Y2328D01*
X12930Y2405D01*
X14911Y2851D02*
X14921Y2860D01*
X14930Y2885D01*
X14930Y2902D01*
X14921Y2928D01*
X14902Y2945D01*
X14883Y2954D01*
X14845Y2962D01*
X14816Y2962D01*
X14778Y2954D01*
X14759Y2945D01*
X14740Y2928D01*
X14730Y2902D01*
X14730Y2885D01*
X14740Y2860D01*
X14750Y2851D01*
X14930Y2680D02*
X14930Y2782D01*
X14930Y2731D02*
X14730Y2731D01*
X14759Y2748D01*
X14778Y2765D01*
X14788Y2782D01*
X14750Y2611D02*
X14740Y2602D01*
X14730Y2585D01*
X14730Y2542D01*
X14740Y2525D01*
X14750Y2517D01*
X14769Y2508D01*
X14788Y2508D01*
X14816Y2517D01*
X14930Y2620D01*
X14930Y2508D01*
X14730Y2397D02*
X14730Y2379D01*
X14740Y2362D01*
X14750Y2354D01*
X14769Y2345D01*
X14807Y2337D01*
X14854Y2337D01*
X14892Y2345D01*
X14911Y2354D01*
X14921Y2362D01*
X14930Y2379D01*
X14930Y2397D01*
X14921Y2414D01*
X14911Y2422D01*
X14892Y2431D01*
X14854Y2439D01*
X14807Y2439D01*
X14769Y2431D01*
X14750Y2422D01*
X14740Y2414D01*
X14730Y2397D01*
X5761Y2851D02*
X5771Y2860D01*
X5780Y2885D01*
X5780Y2902D01*
X5771Y2928D01*
X5752Y2945D01*
X5733Y2954D01*
X5695Y2962D01*
X5666Y2962D01*
X5628Y2954D01*
X5609Y2945D01*
X5590Y2928D01*
X5580Y2902D01*
X5580Y2885D01*
X5590Y2860D01*
X5600Y2851D01*
X5780Y2680D02*
X5780Y2782D01*
X5780Y2731D02*
X5580Y2731D01*
X5609Y2748D01*
X5628Y2765D01*
X5638Y2782D01*
X5780Y2508D02*
X5780Y2611D01*
X5780Y2560D02*
X5580Y2560D01*
X5609Y2577D01*
X5628Y2594D01*
X5638Y2611D01*
X5580Y2397D02*
X5580Y2379D01*
X5590Y2362D01*
X5600Y2354D01*
X5619Y2345D01*
X5657Y2337D01*
X5704Y2337D01*
X5742Y2345D01*
X5761Y2354D01*
X5771Y2362D01*
X5780Y2379D01*
X5780Y2397D01*
X5771Y2414D01*
X5761Y2422D01*
X5742Y2431D01*
X5704Y2439D01*
X5657Y2439D01*
X5619Y2431D01*
X5600Y2422D01*
X5590Y2414D01*
X5580Y2397D01*
X7301Y3288D02*
X7310Y3278D01*
X7335Y3269D01*
X7352Y3269D01*
X7378Y3278D01*
X7395Y3297D01*
X7404Y3316D01*
X7412Y3354D01*
X7412Y3383D01*
X7404Y3421D01*
X7395Y3440D01*
X7378Y3459D01*
X7352Y3469D01*
X7335Y3469D01*
X7310Y3459D01*
X7301Y3450D01*
X7130Y3269D02*
X7232Y3269D01*
X7181Y3269D02*
X7181Y3469D01*
X7198Y3440D01*
X7215Y3421D01*
X7232Y3411D01*
X6958Y3269D02*
X7061Y3269D01*
X7010Y3269D02*
X7010Y3469D01*
X7027Y3440D01*
X7044Y3421D01*
X7061Y3411D01*
X6898Y3469D02*
X6787Y3469D01*
X6847Y3392D01*
X6821Y3392D01*
X6804Y3383D01*
X6795Y3373D01*
X6787Y3354D01*
X6787Y3307D01*
X6795Y3288D01*
X6804Y3278D01*
X6821Y3269D01*
X6872Y3269D01*
X6889Y3278D01*
X6898Y3288D01*
X6651Y16838D02*
X6660Y16828D01*
X6685Y16819D01*
X6702Y16819D01*
X6728Y16828D01*
X6745Y16847D01*
X6754Y16866D01*
X6762Y16904D01*
X6762Y16933D01*
X6754Y16971D01*
X6745Y16990D01*
X6728Y17009D01*
X6702Y17019D01*
X6685Y17019D01*
X6660Y17009D01*
X6651Y17000D01*
X6480Y16819D02*
X6582Y16819D01*
X6531Y16819D02*
X6531Y17019D01*
X6548Y16990D01*
X6565Y16971D01*
X6582Y16961D01*
X6368Y17019D02*
X6351Y17019D01*
X6334Y17009D01*
X6325Y17000D01*
X6317Y16980D01*
X6308Y16942D01*
X6308Y16895D01*
X6317Y16857D01*
X6325Y16838D01*
X6334Y16828D01*
X6351Y16819D01*
X6368Y16819D01*
X6385Y16828D01*
X6394Y16838D01*
X6402Y16857D01*
X6411Y16895D01*
X6411Y16942D01*
X6402Y16980D01*
X6394Y17000D01*
X6385Y17009D01*
X6368Y17019D01*
X6154Y16952D02*
X6154Y16819D01*
X6197Y17028D02*
X6239Y16885D01*
X6128Y16885D01*
X7451Y16838D02*
X7460Y16828D01*
X7485Y16819D01*
X7502Y16819D01*
X7528Y16828D01*
X7545Y16847D01*
X7554Y16866D01*
X7562Y16904D01*
X7562Y16933D01*
X7554Y16971D01*
X7545Y16990D01*
X7528Y17009D01*
X7502Y17019D01*
X7485Y17019D01*
X7460Y17009D01*
X7451Y17000D01*
X7280Y16819D02*
X7382Y16819D01*
X7331Y16819D02*
X7331Y17019D01*
X7348Y16990D01*
X7365Y16971D01*
X7382Y16961D01*
X7168Y17019D02*
X7151Y17019D01*
X7134Y17009D01*
X7125Y17000D01*
X7117Y16980D01*
X7108Y16942D01*
X7108Y16895D01*
X7117Y16857D01*
X7125Y16838D01*
X7134Y16828D01*
X7151Y16819D01*
X7168Y16819D01*
X7185Y16828D01*
X7194Y16838D01*
X7202Y16857D01*
X7211Y16895D01*
X7211Y16942D01*
X7202Y16980D01*
X7194Y17000D01*
X7185Y17009D01*
X7168Y17019D01*
X7048Y17019D02*
X6937Y17019D01*
X6997Y16942D01*
X6971Y16942D01*
X6954Y16933D01*
X6945Y16923D01*
X6937Y16904D01*
X6937Y16857D01*
X6945Y16838D01*
X6954Y16828D01*
X6971Y16819D01*
X7022Y16819D01*
X7039Y16828D01*
X7048Y16838D01*
X6011Y4151D02*
X6021Y4160D01*
X6030Y4185D01*
X6030Y4202D01*
X6021Y4228D01*
X6002Y4245D01*
X5983Y4254D01*
X5945Y4262D01*
X5916Y4262D01*
X5878Y4254D01*
X5859Y4245D01*
X5840Y4228D01*
X5830Y4202D01*
X5830Y4185D01*
X5840Y4160D01*
X5850Y4151D01*
X6030Y3980D02*
X6030Y4082D01*
X6030Y4031D02*
X5830Y4031D01*
X5859Y4048D01*
X5878Y4065D01*
X5888Y4082D01*
X5830Y3868D02*
X5830Y3851D01*
X5840Y3834D01*
X5850Y3825D01*
X5869Y3817D01*
X5907Y3808D01*
X5954Y3808D01*
X5992Y3817D01*
X6011Y3825D01*
X6021Y3834D01*
X6030Y3851D01*
X6030Y3868D01*
X6021Y3885D01*
X6011Y3894D01*
X5992Y3902D01*
X5954Y3911D01*
X5907Y3911D01*
X5869Y3902D01*
X5850Y3894D01*
X5840Y3885D01*
X5830Y3868D01*
X5830Y3654D02*
X5830Y3688D01*
X5840Y3705D01*
X5850Y3714D01*
X5878Y3731D01*
X5916Y3739D01*
X5992Y3739D01*
X6011Y3731D01*
X6021Y3722D01*
X6030Y3705D01*
X6030Y3671D01*
X6021Y3654D01*
X6011Y3645D01*
X5992Y3637D01*
X5945Y3637D01*
X5926Y3645D01*
X5916Y3654D01*
X5907Y3671D01*
X5907Y3705D01*
X5916Y3722D01*
X5926Y3731D01*
X5945Y3739D01*
X1811Y10051D02*
X1821Y10060D01*
X1830Y10085D01*
X1830Y10102D01*
X1821Y10128D01*
X1802Y10145D01*
X1783Y10154D01*
X1745Y10162D01*
X1716Y10162D01*
X1678Y10154D01*
X1659Y10145D01*
X1640Y10128D01*
X1630Y10102D01*
X1630Y10085D01*
X1640Y10060D01*
X1650Y10051D01*
X1830Y9880D02*
X1830Y9982D01*
X1830Y9931D02*
X1630Y9931D01*
X1659Y9948D01*
X1678Y9965D01*
X1688Y9982D01*
X1630Y9768D02*
X1630Y9751D01*
X1640Y9734D01*
X1650Y9725D01*
X1669Y9717D01*
X1707Y9708D01*
X1754Y9708D01*
X1792Y9717D01*
X1811Y9725D01*
X1821Y9734D01*
X1830Y9751D01*
X1830Y9768D01*
X1821Y9785D01*
X1811Y9794D01*
X1792Y9802D01*
X1754Y9811D01*
X1707Y9811D01*
X1669Y9802D01*
X1650Y9794D01*
X1640Y9785D01*
X1630Y9768D01*
X1650Y9639D02*
X1640Y9631D01*
X1630Y9614D01*
X1630Y9571D01*
X1640Y9554D01*
X1650Y9545D01*
X1669Y9537D01*
X1688Y9537D01*
X1716Y9545D01*
X1830Y9648D01*
X1830Y9537D01*
X13311Y9501D02*
X13321Y9510D01*
X13330Y9535D01*
X13330Y9552D01*
X13321Y9578D01*
X13302Y9595D01*
X13283Y9604D01*
X13245Y9612D01*
X13216Y9612D01*
X13178Y9604D01*
X13159Y9595D01*
X13140Y9578D01*
X13130Y9552D01*
X13130Y9535D01*
X13140Y9510D01*
X13150Y9501D01*
X13330Y9330D02*
X13330Y9432D01*
X13330Y9381D02*
X13130Y9381D01*
X13159Y9398D01*
X13178Y9415D01*
X13188Y9432D01*
X13330Y9158D02*
X13330Y9261D01*
X13330Y9210D02*
X13130Y9210D01*
X13159Y9227D01*
X13178Y9244D01*
X13188Y9261D01*
X13216Y9055D02*
X13207Y9072D01*
X13197Y9081D01*
X13178Y9089D01*
X13169Y9089D01*
X13150Y9081D01*
X13140Y9072D01*
X13130Y9055D01*
X13130Y9021D01*
X13140Y9004D01*
X13150Y8995D01*
X13169Y8987D01*
X13178Y8987D01*
X13197Y8995D01*
X13207Y9004D01*
X13216Y9021D01*
X13216Y9055D01*
X13226Y9072D01*
X13235Y9081D01*
X13254Y9089D01*
X13292Y9089D01*
X13311Y9081D01*
X13321Y9072D01*
X13330Y9055D01*
X13330Y9021D01*
X13321Y9004D01*
X13311Y8995D01*
X13292Y8987D01*
X13254Y8987D01*
X13235Y8995D01*
X13226Y9004D01*
X13216Y9021D01*
X12951Y11169D02*
X13011Y11264D01*
X13054Y11169D02*
X13054Y11369D01*
X12985Y11369D01*
X12968Y11359D01*
X12960Y11350D01*
X12951Y11330D01*
X12951Y11302D01*
X12960Y11283D01*
X12968Y11273D01*
X12985Y11264D01*
X13054Y11264D01*
X12780Y11169D02*
X12882Y11169D01*
X12831Y11169D02*
X12831Y11369D01*
X12848Y11340D01*
X12865Y11321D01*
X12882Y11311D01*
X12668Y11369D02*
X12651Y11369D01*
X12634Y11359D01*
X12625Y11350D01*
X12617Y11330D01*
X12608Y11292D01*
X12608Y11245D01*
X12617Y11207D01*
X12625Y11188D01*
X12634Y11178D01*
X12651Y11169D01*
X12668Y11169D01*
X12685Y11178D01*
X12694Y11188D01*
X12702Y11207D01*
X12711Y11245D01*
X12711Y11292D01*
X12702Y11330D01*
X12694Y11350D01*
X12685Y11359D01*
X12668Y11369D01*
X12548Y11369D02*
X12428Y11369D01*
X12505Y11169D01*
X8051Y10719D02*
X8111Y10814D01*
X8154Y10719D02*
X8154Y10919D01*
X8085Y10919D01*
X8068Y10909D01*
X8060Y10900D01*
X8051Y10880D01*
X8051Y10852D01*
X8060Y10833D01*
X8068Y10823D01*
X8085Y10814D01*
X8154Y10814D01*
X7880Y10719D02*
X7982Y10719D01*
X7931Y10719D02*
X7931Y10919D01*
X7948Y10890D01*
X7965Y10871D01*
X7982Y10861D01*
X7768Y10919D02*
X7751Y10919D01*
X7734Y10909D01*
X7725Y10900D01*
X7717Y10880D01*
X7708Y10842D01*
X7708Y10795D01*
X7717Y10757D01*
X7725Y10738D01*
X7734Y10728D01*
X7751Y10719D01*
X7768Y10719D01*
X7785Y10728D01*
X7794Y10738D01*
X7802Y10757D01*
X7811Y10795D01*
X7811Y10842D01*
X7802Y10880D01*
X7794Y10900D01*
X7785Y10909D01*
X7768Y10919D01*
X7605Y10833D02*
X7622Y10842D01*
X7631Y10852D01*
X7639Y10871D01*
X7639Y10880D01*
X7631Y10900D01*
X7622Y10909D01*
X7605Y10919D01*
X7571Y10919D01*
X7554Y10909D01*
X7545Y10900D01*
X7537Y10880D01*
X7537Y10871D01*
X7545Y10852D01*
X7554Y10842D01*
X7571Y10833D01*
X7605Y10833D01*
X7622Y10823D01*
X7631Y10814D01*
X7639Y10795D01*
X7639Y10757D01*
X7631Y10738D01*
X7622Y10728D01*
X7605Y10719D01*
X7571Y10719D01*
X7554Y10728D01*
X7545Y10738D01*
X7537Y10757D01*
X7537Y10795D01*
X7545Y10814D01*
X7554Y10823D01*
X7571Y10833D01*
X8980Y14551D02*
X8885Y14611D01*
X8980Y14654D02*
X8780Y14654D01*
X8780Y14585D01*
X8790Y14568D01*
X8800Y14560D01*
X8819Y14551D01*
X8847Y14551D01*
X8866Y14560D01*
X8876Y14568D01*
X8885Y14585D01*
X8885Y14654D01*
X8980Y14380D02*
X8980Y14482D01*
X8980Y14431D02*
X8780Y14431D01*
X8809Y14448D01*
X8828Y14465D01*
X8838Y14482D01*
X8780Y14268D02*
X8780Y14251D01*
X8790Y14234D01*
X8800Y14225D01*
X8819Y14217D01*
X8857Y14208D01*
X8904Y14208D01*
X8942Y14217D01*
X8961Y14225D01*
X8971Y14234D01*
X8980Y14251D01*
X8980Y14268D01*
X8971Y14285D01*
X8961Y14294D01*
X8942Y14302D01*
X8904Y14311D01*
X8857Y14311D01*
X8819Y14302D01*
X8800Y14294D01*
X8790Y14285D01*
X8780Y14268D01*
X8980Y14122D02*
X8980Y14088D01*
X8971Y14071D01*
X8961Y14062D01*
X8933Y14045D01*
X8895Y14037D01*
X8819Y14037D01*
X8800Y14045D01*
X8790Y14054D01*
X8780Y14071D01*
X8780Y14105D01*
X8790Y14122D01*
X8800Y14131D01*
X8819Y14139D01*
X8866Y14139D01*
X8885Y14131D01*
X8895Y14122D01*
X8904Y14105D01*
X8904Y14071D01*
X8895Y14054D01*
X8885Y14045D01*
X8866Y14037D01*
X8980Y12451D02*
X8885Y12511D01*
X8980Y12554D02*
X8780Y12554D01*
X8780Y12485D01*
X8790Y12468D01*
X8800Y12460D01*
X8819Y12451D01*
X8847Y12451D01*
X8866Y12460D01*
X8876Y12468D01*
X8885Y12485D01*
X8885Y12554D01*
X8980Y12280D02*
X8980Y12382D01*
X8980Y12331D02*
X8780Y12331D01*
X8809Y12348D01*
X8828Y12365D01*
X8838Y12382D01*
X8980Y12108D02*
X8980Y12211D01*
X8980Y12160D02*
X8780Y12160D01*
X8809Y12177D01*
X8828Y12194D01*
X8838Y12211D01*
X8780Y11997D02*
X8780Y11979D01*
X8790Y11962D01*
X8800Y11954D01*
X8819Y11945D01*
X8857Y11937D01*
X8904Y11937D01*
X8942Y11945D01*
X8961Y11954D01*
X8971Y11962D01*
X8980Y11979D01*
X8980Y11997D01*
X8971Y12014D01*
X8961Y12022D01*
X8942Y12031D01*
X8904Y12039D01*
X8857Y12039D01*
X8819Y12031D01*
X8800Y12022D01*
X8790Y12014D01*
X8780Y11997D01*
G54D10*
X2215Y6431D02*
X2215Y6206D01*
X2609Y6318D02*
X2215Y6318D01*
X2609Y6074D02*
X2215Y6074D01*
X2403Y6074D02*
X2403Y5849D01*
X2609Y5849D02*
X2215Y5849D01*
X2609Y5456D02*
X2609Y5681D01*
X2609Y5568D02*
X2215Y5568D01*
X2271Y5606D01*
X2309Y5643D01*
X2328Y5681D01*
X2215Y5212D02*
X2215Y5175D01*
X2234Y5137D01*
X2253Y5118D01*
X2290Y5100D01*
X2365Y5081D01*
X2459Y5081D01*
X2534Y5100D01*
X2571Y5118D01*
X2590Y5137D01*
X2609Y5175D01*
X2609Y5212D01*
X2590Y5250D01*
X2571Y5268D01*
X2534Y5287D01*
X2459Y5306D01*
X2365Y5306D01*
X2290Y5287D01*
X2253Y5268D01*
X2234Y5250D01*
X2215Y5212D01*
X2609Y4706D02*
X2609Y4931D01*
X2609Y4818D02*
X2215Y4818D01*
X2271Y4856D01*
X2309Y4893D01*
X2328Y4931D01*
G54D16*
X13835Y12988D02*
X13835Y12664D01*
X13816Y12626D01*
X13797Y12607D01*
X13759Y12588D01*
X13683Y12588D01*
X13645Y12607D01*
X13626Y12626D01*
X13607Y12664D01*
X13607Y12988D01*
X13207Y12588D02*
X13435Y12588D01*
X13321Y12588D02*
X13321Y12988D01*
X13359Y12930D01*
X13397Y12892D01*
X13435Y12873D01*
X12959Y12988D02*
X12921Y12988D01*
X12883Y12969D01*
X12864Y12950D01*
X12845Y12911D01*
X12826Y12835D01*
X12826Y12740D01*
X12845Y12664D01*
X12864Y12626D01*
X12883Y12607D01*
X12921Y12588D01*
X12959Y12588D01*
X12997Y12607D01*
X13016Y12626D01*
X13035Y12664D01*
X13054Y12740D01*
X13054Y12835D01*
X13035Y12911D01*
X13016Y12950D01*
X12997Y12969D01*
X12959Y12988D01*
X12673Y12950D02*
X12654Y12969D01*
X12616Y12988D01*
X12521Y12988D01*
X12483Y12969D01*
X12464Y12950D01*
X12445Y12911D01*
X12445Y12873D01*
X12464Y12816D01*
X12692Y12588D01*
X12445Y12588D01*
X13985Y8438D02*
X13985Y8114D01*
X13966Y8076D01*
X13947Y8057D01*
X13909Y8038D01*
X13833Y8038D01*
X13795Y8057D01*
X13776Y8076D01*
X13757Y8114D01*
X13757Y8438D01*
X13357Y8038D02*
X13585Y8038D01*
X13471Y8038D02*
X13471Y8438D01*
X13509Y8380D01*
X13547Y8342D01*
X13585Y8323D01*
X13109Y8438D02*
X13071Y8438D01*
X13033Y8419D01*
X13014Y8400D01*
X12995Y8361D01*
X12976Y8285D01*
X12976Y8190D01*
X12995Y8114D01*
X13014Y8076D01*
X13033Y8057D01*
X13071Y8038D01*
X13109Y8038D01*
X13147Y8057D01*
X13166Y8076D01*
X13185Y8114D01*
X13204Y8190D01*
X13204Y8285D01*
X13185Y8361D01*
X13166Y8400D01*
X13147Y8419D01*
X13109Y8438D01*
X12842Y8438D02*
X12595Y8438D01*
X12728Y8285D01*
X12671Y8285D01*
X12633Y8266D01*
X12614Y8247D01*
X12595Y8209D01*
X12595Y8114D01*
X12614Y8076D01*
X12633Y8057D01*
X12671Y8038D01*
X12785Y8038D01*
X12823Y8057D01*
X12842Y8076D01*
X9135Y8588D02*
X9135Y8264D01*
X9116Y8226D01*
X9097Y8207D01*
X9059Y8188D01*
X8983Y8188D01*
X8945Y8207D01*
X8926Y8226D01*
X8907Y8264D01*
X8907Y8588D01*
X8507Y8188D02*
X8735Y8188D01*
X8621Y8188D02*
X8621Y8588D01*
X8659Y8530D01*
X8697Y8492D01*
X8735Y8473D01*
X8259Y8588D02*
X8221Y8588D01*
X8183Y8569D01*
X8164Y8550D01*
X8145Y8511D01*
X8126Y8435D01*
X8126Y8340D01*
X8145Y8264D01*
X8164Y8226D01*
X8183Y8207D01*
X8221Y8188D01*
X8259Y8188D01*
X8297Y8207D01*
X8316Y8226D01*
X8335Y8264D01*
X8354Y8340D01*
X8354Y8435D01*
X8335Y8511D01*
X8316Y8550D01*
X8297Y8569D01*
X8259Y8588D01*
X7764Y8588D02*
X7954Y8588D01*
X7973Y8397D01*
X7954Y8416D01*
X7916Y8435D01*
X7821Y8435D01*
X7783Y8416D01*
X7764Y8397D01*
X7745Y8359D01*
X7745Y8264D01*
X7764Y8226D01*
X7783Y8207D01*
X7821Y8188D01*
X7916Y8188D01*
X7954Y8207D01*
X7973Y8226D01*
X8321Y13964D02*
X8564Y13964D01*
X8592Y13950D01*
X8607Y13935D01*
X8621Y13907D01*
X8621Y13850D01*
X8607Y13821D01*
X8592Y13807D01*
X8564Y13792D01*
X8321Y13792D01*
X8621Y13492D02*
X8621Y13664D01*
X8621Y13578D02*
X8321Y13578D01*
X8364Y13607D01*
X8392Y13635D01*
X8407Y13664D01*
X8321Y13307D02*
X8321Y13278D01*
X8335Y13250D01*
X8350Y13235D01*
X8378Y13221D01*
X8435Y13207D01*
X8507Y13207D01*
X8564Y13221D01*
X8592Y13235D01*
X8607Y13250D01*
X8621Y13278D01*
X8621Y13307D01*
X8607Y13335D01*
X8592Y13350D01*
X8564Y13364D01*
X8507Y13378D01*
X8435Y13378D01*
X8378Y13364D01*
X8350Y13350D01*
X8335Y13335D01*
X8321Y13307D01*
X8621Y12921D02*
X8621Y13092D01*
X8621Y13007D02*
X8321Y13007D01*
X8364Y13035D01*
X8392Y13064D01*
X8407Y13092D01*
G54D10*
G36*
X11150Y17304D02*
X11137Y17242D01*
X11105Y17194D01*
X11057Y17162D01*
X10995Y17150D01*
X5604Y17150D01*
X5542Y17162D01*
X5494Y17194D01*
X5462Y17242D01*
X5450Y17304D01*
X5450Y19045D01*
X5462Y19107D01*
X5494Y19155D01*
X5542Y19187D01*
X5604Y19200D01*
X10995Y19200D01*
X11057Y19187D01*
X11105Y19155D01*
X11137Y19107D01*
X11150Y19045D01*
X11150Y17304D01*
X11150Y17304D01*
G37*
G54D20*
X11150Y17304D02*
X11137Y17242D01*
X11105Y17194D01*
X11057Y17162D01*
X10995Y17150D01*
X5604Y17150D01*
X5542Y17162D01*
X5494Y17194D01*
X5462Y17242D01*
X5450Y17304D01*
X5450Y19045D01*
X5462Y19107D01*
X5494Y19155D01*
X5542Y19187D01*
X5604Y19200D01*
X10995Y19200D01*
X11057Y19187D01*
X11105Y19155D01*
X11137Y19107D01*
X11150Y19045D01*
X11150Y17304D01*
%LPC*%
G54D21*
X4149Y9339D03*
X4149Y10339D03*
X3362Y10339D03*
X3362Y9339D03*
G54D22*
X2299Y7477D03*
X2299Y12201D03*
G54D23*
X17250Y3917D03*
X17625Y4783D03*
X16875Y4783D03*
X17250Y13033D03*
X16875Y12167D03*
X17625Y12167D03*
G54D24*
X8225Y2429D03*
X8225Y2929D03*
X8225Y3429D03*
X8225Y3929D03*
X8225Y4429D03*
X8225Y4929D03*
X8225Y5429D03*
X8225Y5929D03*
X12225Y5929D03*
X12225Y5429D03*
X12225Y4929D03*
X12225Y4429D03*
X12225Y3929D03*
X12225Y3429D03*
X12225Y2929D03*
X12225Y2429D03*
G54D25*
X14550Y5550D03*
X14550Y6850D03*
X5975Y5429D03*
X5975Y6729D03*
G54D26*
X10549Y9414D03*
X10549Y8664D03*
X10549Y10014D03*
X10549Y10764D03*
X14499Y9564D03*
X14499Y8814D03*
X14449Y10214D03*
X14449Y10964D03*
G54D27*
X10299Y15414D03*
X11049Y15414D03*
X12399Y15414D03*
X11649Y15414D03*
G54D26*
X7949Y15414D03*
X7949Y16164D03*
G54D27*
X3625Y3650D03*
X4375Y3650D03*
G54D28*
X5600Y16000D03*
X5600Y15400D03*
X13699Y10189D03*
X13699Y10789D03*
X9749Y9439D03*
X9749Y8839D03*
X9749Y9989D03*
X9749Y10589D03*
G54D29*
X11649Y8239D03*
X12249Y8239D03*
G54D28*
X11399Y10189D03*
X11399Y10789D03*
G54D29*
X6699Y8989D03*
X7299Y8989D03*
X6699Y9839D03*
X7299Y9839D03*
X12474Y14564D03*
X11874Y14564D03*
X10224Y14564D03*
X10824Y14564D03*
G54D28*
X12350Y17900D03*
X12350Y17300D03*
X5499Y10139D03*
X5499Y9539D03*
X3399Y12839D03*
X3399Y13439D03*
X4199Y12839D03*
X4199Y13439D03*
X2600Y15950D03*
X2600Y15350D03*
X7075Y5429D03*
X7075Y6029D03*
X13375Y5429D03*
X13375Y6029D03*
X13375Y2929D03*
X13375Y2329D03*
X14325Y2929D03*
X14325Y2329D03*
X6150Y2950D03*
X6150Y2350D03*
X7100Y2950D03*
X7100Y2350D03*
X6449Y15389D03*
X6449Y15989D03*
X7149Y15389D03*
X7149Y15989D03*
X5400Y3650D03*
X5400Y4250D03*
X2299Y10139D03*
X2299Y9539D03*
X13699Y9589D03*
X13699Y8989D03*
G54D29*
X12449Y11789D03*
X13049Y11789D03*
X7550Y11300D03*
X8150Y11300D03*
G54D28*
X9399Y14039D03*
X9399Y14639D03*
X9399Y11939D03*
X9399Y12539D03*
G54D30*
X3600Y6376D03*
X3600Y4723D03*
G54D31*
X17616Y14311D03*
X17616Y15688D03*
X17616Y9150D03*
X17616Y10528D03*
X17616Y6394D03*
X17616Y7772D03*
G54D32*
X12034Y13409D03*
X12034Y13212D03*
X12034Y13015D03*
X12034Y12819D03*
X10813Y12819D03*
X10813Y13015D03*
X10813Y13212D03*
X10813Y13409D03*
G54D33*
X12644Y9179D03*
X12447Y9179D03*
X12250Y9179D03*
X12053Y9179D03*
X12053Y10399D03*
X12250Y10399D03*
X12447Y10399D03*
X12644Y10399D03*
X8694Y9029D03*
X8497Y9029D03*
X8300Y9029D03*
X8103Y9029D03*
X8103Y10249D03*
X8300Y10249D03*
X8497Y10249D03*
X8694Y10249D03*
G54D34*
X6203Y14571D03*
X6459Y14571D03*
X6715Y14571D03*
X6971Y14571D03*
X7227Y14571D03*
X7483Y14571D03*
X7739Y14571D03*
X7995Y14571D03*
X7995Y12307D03*
X7739Y12307D03*
X7483Y12307D03*
X7227Y12307D03*
X6971Y12307D03*
X6715Y12307D03*
X6459Y12307D03*
X6203Y12307D03*
G54D35*
X1968Y1968D03*
X17631Y1968D03*
X1968Y17631D03*
X17631Y17631D03*
G54D36*
X12550Y6400D03*
X11400Y16250D03*
X5850Y13900D03*
X9000Y10950D03*
X7700Y13050D03*
X13850Y11850D03*
X10000Y13600D03*
X4500Y2050D03*
X11500Y17150D03*
X12400Y16300D03*
X12950Y9900D03*
X8700Y7450D03*
X7050Y4850D03*
X8650Y15000D03*
X4900Y13850D03*
X5700Y13350D03*
X6750Y13100D03*
X11350Y14550D03*
X11150Y9700D03*
X10950Y11350D03*
X5500Y8550D03*
X4800Y8550D03*
X11400Y12350D03*
X6300Y7400D03*
X9100Y5950D03*
X6550Y11350D03*
X5000Y11350D03*
X5850Y11350D03*
X7950Y16800D03*
X6450Y16500D03*
X7150Y16600D03*
X14750Y11650D03*
X6100Y8550D03*
X8200Y1600D03*
X7100Y1600D03*
X6150Y1600D03*
X14400Y1700D03*
X13400Y1650D03*
X12250Y1650D03*
X11150Y1500D03*
X11150Y2350D03*
X15950Y4900D03*
X15950Y5350D03*
X15950Y3000D03*
X16550Y13550D03*
X3350Y16000D03*
X11500Y17750D03*
X4750Y15400D03*
X11400Y4400D03*
X11050Y4950D03*
X15900Y3950D03*
X15300Y3450D03*
X15950Y15000D03*
M02*
