G04 (created by PCBNEW (2013-07-07 BZR 4022)-stable) date 18.12.2014 21:06:21*
%MOIN*%
G04 Gerber Fmt 3.4, Leading zero omitted, Abs format*
%FSLAX34Y34*%
G01*
G70*
G90*
G04 APERTURE LIST*
%ADD10C,0.00590551*%
%ADD11C,0.06*%
%ADD12C,0.1063*%
%ADD13R,0.025X0.045*%
%ADD14R,0.045X0.025*%
%ADD15C,0.09*%
%ADD16R,0.0590551X0.0590551*%
%ADD17C,0.035*%
%ADD18C,0.01*%
%ADD19C,0.015*%
G04 APERTURE END LIST*
G54D10*
G54D11*
X4149Y9339D03*
X4149Y10339D03*
X3362Y10339D03*
X3362Y9339D03*
G54D12*
X2299Y7477D03*
X2299Y12201D03*
G54D13*
X14050Y6400D03*
X14650Y6400D03*
X14050Y15700D03*
X14650Y15700D03*
X14050Y14300D03*
X14650Y14300D03*
G54D14*
X14050Y4550D03*
X14050Y3950D03*
G54D13*
X14050Y7700D03*
X14650Y7700D03*
X14050Y9150D03*
X14650Y9150D03*
X14050Y10550D03*
X14650Y10550D03*
G54D15*
X17616Y14311D03*
X17616Y15688D03*
X17616Y9150D03*
X17616Y10528D03*
X17616Y6394D03*
X17616Y7772D03*
G54D16*
X4100Y17742D03*
X4100Y16757D03*
X8650Y16757D03*
X8650Y17742D03*
X10350Y16757D03*
X10350Y17742D03*
G54D17*
X12550Y6400D03*
X11400Y16250D03*
X5850Y13900D03*
X9000Y10950D03*
X7700Y13050D03*
X13850Y11850D03*
X10000Y13600D03*
X4500Y2050D03*
X11500Y17150D03*
X12400Y16300D03*
X12950Y9900D03*
X8700Y7450D03*
X7050Y4850D03*
X8650Y15000D03*
X4900Y13850D03*
X5700Y13350D03*
X6750Y13100D03*
X11350Y14550D03*
X11150Y9700D03*
X10950Y11350D03*
X5500Y8550D03*
X4800Y8550D03*
X11400Y12350D03*
X6300Y7400D03*
X9100Y5950D03*
X6550Y11350D03*
X5000Y11350D03*
X5850Y11350D03*
X7950Y16800D03*
X6450Y16500D03*
X7150Y16600D03*
X14750Y11650D03*
X6100Y8550D03*
X8200Y1600D03*
X7100Y1600D03*
X6150Y1600D03*
X14400Y1700D03*
X13400Y1650D03*
X12250Y1650D03*
X11150Y1500D03*
X11150Y2350D03*
X15950Y4900D03*
X15950Y5350D03*
X15950Y3000D03*
X16550Y13550D03*
X3350Y16000D03*
X11500Y17750D03*
X4750Y15400D03*
X11400Y4400D03*
X11050Y4950D03*
X15900Y3950D03*
X15300Y3450D03*
X15950Y15000D03*
G54D18*
X12250Y6000D02*
X12250Y6100D01*
X12250Y6100D02*
X12550Y6400D01*
G54D19*
X5850Y13900D02*
X9050Y13900D01*
X9050Y13900D02*
X11400Y16250D01*
X6150Y13600D02*
X7500Y13600D01*
X7500Y13600D02*
X7700Y13600D01*
X5850Y13900D02*
X6150Y13600D01*
X9000Y10950D02*
X9000Y11750D01*
X9000Y11750D02*
X7700Y13050D01*
X7700Y13050D02*
X7700Y13600D01*
X12100Y13600D02*
X10000Y13600D01*
X13850Y11850D02*
X12100Y13600D01*
X7700Y13600D02*
X10000Y13600D01*
X4500Y2050D02*
X7050Y4600D01*
X7050Y4600D02*
X7050Y4850D01*
X11550Y17150D02*
X11500Y17150D01*
X12400Y16300D02*
X11550Y17150D01*
X10500Y7450D02*
X12950Y9900D01*
X10500Y7450D02*
X8700Y7450D01*
X7050Y6350D02*
X8150Y7450D01*
X7050Y4850D02*
X7050Y6350D01*
X8150Y7450D02*
X8700Y7450D01*
X17616Y6394D02*
X14655Y6394D01*
X14655Y6394D02*
X14650Y6400D01*
X14650Y7700D02*
X17543Y7700D01*
X17543Y7700D02*
X17616Y7772D01*
X17616Y9150D02*
X14650Y9150D01*
X14650Y9150D02*
X14650Y9150D01*
X14650Y10550D02*
X17594Y10550D01*
X17594Y10550D02*
X17616Y10528D01*
X8650Y15000D02*
X8650Y16757D01*
X4900Y13850D02*
X5500Y14450D01*
X8900Y14450D02*
X10350Y15900D01*
X10350Y15900D02*
X10350Y16757D01*
X5500Y14450D02*
X8900Y14450D01*
X4800Y8550D02*
X5500Y8550D01*
X5750Y1600D02*
X3550Y1600D01*
G54D18*
X3550Y1600D02*
X3550Y2650D01*
X2750Y3450D02*
X1700Y3450D01*
X3550Y2650D02*
X2750Y3450D01*
G54D19*
X5850Y11350D02*
X5000Y11350D01*
X8200Y1600D02*
X7100Y1600D01*
X7100Y1600D02*
X6150Y1600D01*
X1700Y3450D02*
X1700Y5450D01*
X3362Y7112D02*
X3362Y9339D01*
X1700Y5450D02*
X3362Y7112D01*
X6150Y1600D02*
X5750Y1600D01*
G54D18*
X12250Y1650D02*
X13400Y1650D01*
X11150Y1500D02*
X11150Y2350D01*
X11150Y2350D02*
X11150Y1950D01*
G54D19*
X15950Y5350D02*
X15950Y4900D01*
X15400Y13550D02*
X16550Y13550D01*
X14050Y13850D02*
X14350Y13550D01*
X14350Y13550D02*
X15400Y13550D01*
X14050Y14300D02*
X14050Y13850D01*
X4100Y16750D02*
X4100Y16757D01*
X3350Y16000D02*
X4100Y16750D01*
X11492Y17742D02*
X10350Y17742D01*
X11500Y17750D02*
X11492Y17742D01*
X8650Y17742D02*
X5842Y17742D01*
X4750Y16650D02*
X4750Y15400D01*
X5842Y17742D02*
X4750Y16650D01*
X17616Y14311D02*
X14661Y14311D01*
X14661Y14311D02*
X14650Y14300D01*
X14650Y15700D02*
X17605Y15700D01*
X17605Y15700D02*
X17616Y15688D01*
X11400Y4500D02*
X11400Y4400D01*
X14050Y9150D02*
X14050Y8850D01*
X14050Y8850D02*
X11400Y6200D01*
X11400Y4500D02*
X11400Y6200D01*
X11050Y5100D02*
X11050Y4950D01*
X14050Y10550D02*
X14050Y9850D01*
X14050Y9850D02*
X11050Y6850D01*
X11050Y5100D02*
X11050Y6850D01*
X14050Y4550D02*
X15300Y4550D01*
X15300Y4550D02*
X15900Y3950D01*
X14050Y6400D02*
X14050Y4550D01*
X14050Y3950D02*
X14800Y3950D01*
X14800Y3950D02*
X15300Y3450D01*
X14050Y7700D02*
X13750Y7700D01*
X13350Y3950D02*
X14050Y3950D01*
X13250Y4050D02*
X13350Y3950D01*
X13250Y7200D02*
X13250Y4050D01*
X13750Y7700D02*
X13250Y7200D01*
X14050Y15700D02*
X14050Y15250D01*
X14300Y15000D02*
X15950Y15000D01*
X14050Y15250D02*
X14300Y15000D01*
G54D10*
G36*
X15050Y11604D02*
X15037Y11542D01*
X15005Y11494D01*
X14957Y11462D01*
X14895Y11450D01*
X14225Y11450D01*
X14225Y11924D01*
X14168Y12062D01*
X14062Y12167D01*
X13924Y12224D01*
X13863Y12224D01*
X12294Y13794D01*
X12205Y13854D01*
X12100Y13875D01*
X10255Y13875D01*
X10212Y13917D01*
X10074Y13974D01*
X9925Y13975D01*
X9787Y13918D01*
X9744Y13875D01*
X9413Y13875D01*
X11413Y15874D01*
X11474Y15874D01*
X11612Y15931D01*
X11717Y16037D01*
X11774Y16175D01*
X11775Y16324D01*
X11718Y16462D01*
X11612Y16567D01*
X11474Y16624D01*
X11325Y16625D01*
X11187Y16568D01*
X11082Y16462D01*
X11025Y16324D01*
X11025Y16263D01*
X10616Y15854D01*
X10624Y15900D01*
X10625Y15900D01*
X10625Y16262D01*
X10684Y16262D01*
X10758Y16292D01*
X10814Y16349D01*
X10845Y16422D01*
X10845Y16502D01*
X10845Y17092D01*
X10814Y17166D01*
X10758Y17222D01*
X10692Y17250D01*
X10758Y17277D01*
X10814Y17333D01*
X10845Y17406D01*
X10845Y17467D01*
X11252Y17467D01*
X11269Y17449D01*
X11182Y17362D01*
X11125Y17224D01*
X11124Y17075D01*
X11181Y16937D01*
X11287Y16832D01*
X11425Y16775D01*
X11536Y16774D01*
X12024Y16286D01*
X12024Y16225D01*
X12081Y16087D01*
X12187Y15982D01*
X12325Y15925D01*
X12474Y15924D01*
X12612Y15981D01*
X12717Y16087D01*
X12774Y16225D01*
X12775Y16374D01*
X12718Y16512D01*
X12612Y16617D01*
X12474Y16674D01*
X12413Y16674D01*
X11875Y17213D01*
X11875Y17224D01*
X11818Y17362D01*
X11730Y17450D01*
X11817Y17537D01*
X11874Y17675D01*
X11875Y17824D01*
X11818Y17962D01*
X11712Y18067D01*
X11574Y18124D01*
X11425Y18125D01*
X11287Y18068D01*
X11236Y18017D01*
X10845Y18017D01*
X10845Y18077D01*
X10814Y18150D01*
X10758Y18206D01*
X10685Y18237D01*
X10605Y18237D01*
X10015Y18237D01*
X9941Y18207D01*
X9885Y18150D01*
X9854Y18077D01*
X9854Y17997D01*
X9854Y17407D01*
X9885Y17333D01*
X9941Y17277D01*
X10007Y17249D01*
X9941Y17222D01*
X9885Y17166D01*
X9854Y17093D01*
X9854Y17013D01*
X9854Y16422D01*
X9885Y16349D01*
X9941Y16293D01*
X10014Y16262D01*
X10075Y16262D01*
X10075Y16013D01*
X9024Y14963D01*
X9025Y15074D01*
X8968Y15212D01*
X8925Y15255D01*
X8925Y16262D01*
X8984Y16262D01*
X9058Y16292D01*
X9114Y16349D01*
X9145Y16422D01*
X9145Y16502D01*
X9145Y17092D01*
X9114Y17166D01*
X9058Y17222D01*
X8992Y17250D01*
X9058Y17277D01*
X9114Y17333D01*
X9145Y17406D01*
X9145Y17486D01*
X9145Y18077D01*
X9114Y18150D01*
X9058Y18206D01*
X8985Y18237D01*
X8905Y18237D01*
X8315Y18237D01*
X8241Y18207D01*
X8185Y18150D01*
X8154Y18077D01*
X8154Y18017D01*
X5842Y18017D01*
X5736Y17996D01*
X5647Y17936D01*
X4595Y16884D01*
X4595Y17092D01*
X4564Y17166D01*
X4508Y17222D01*
X4507Y17222D01*
X4537Y17235D01*
X4607Y17305D01*
X4645Y17397D01*
X4645Y18086D01*
X4607Y18178D01*
X4537Y18249D01*
X4445Y18287D01*
X4345Y18287D01*
X4212Y18287D01*
X4150Y18224D01*
X4150Y17792D01*
X4582Y17792D01*
X4645Y17854D01*
X4645Y18086D01*
X4645Y17397D01*
X4645Y17629D01*
X4582Y17692D01*
X4150Y17692D01*
X4150Y17684D01*
X4050Y17684D01*
X4050Y17692D01*
X4050Y17792D01*
X4050Y18224D01*
X3987Y18287D01*
X3854Y18287D01*
X3754Y18287D01*
X3662Y18249D01*
X3592Y18178D01*
X3554Y18086D01*
X3554Y17854D01*
X3617Y17792D01*
X4050Y17792D01*
X4050Y17692D01*
X3617Y17692D01*
X3554Y17629D01*
X3554Y17397D01*
X3592Y17305D01*
X3662Y17235D01*
X3691Y17222D01*
X3691Y17222D01*
X3635Y17166D01*
X3604Y17093D01*
X3604Y17013D01*
X3604Y16643D01*
X3336Y16375D01*
X3275Y16375D01*
X3137Y16318D01*
X3032Y16212D01*
X2975Y16074D01*
X2974Y15925D01*
X3031Y15787D01*
X3137Y15682D01*
X3275Y15625D01*
X3424Y15624D01*
X3562Y15681D01*
X3667Y15787D01*
X3724Y15925D01*
X3724Y15986D01*
X4001Y16262D01*
X4434Y16262D01*
X4475Y16279D01*
X4475Y15655D01*
X4432Y15612D01*
X4375Y15474D01*
X4374Y15325D01*
X4431Y15187D01*
X4537Y15082D01*
X4675Y15025D01*
X4824Y15024D01*
X4962Y15081D01*
X5067Y15187D01*
X5124Y15325D01*
X5125Y15474D01*
X5068Y15612D01*
X5025Y15655D01*
X5025Y16536D01*
X5956Y17467D01*
X8154Y17467D01*
X8154Y17407D01*
X8185Y17333D01*
X8241Y17277D01*
X8307Y17249D01*
X8241Y17222D01*
X8185Y17166D01*
X8154Y17093D01*
X8154Y17013D01*
X8154Y16422D01*
X8185Y16349D01*
X8241Y16293D01*
X8314Y16262D01*
X8375Y16262D01*
X8375Y15255D01*
X8332Y15212D01*
X8275Y15074D01*
X8274Y14925D01*
X8331Y14787D01*
X8394Y14725D01*
X5500Y14725D01*
X5394Y14704D01*
X5305Y14644D01*
X4886Y14225D01*
X4825Y14225D01*
X4687Y14168D01*
X4582Y14062D01*
X4525Y13924D01*
X4524Y13775D01*
X4581Y13637D01*
X4687Y13532D01*
X4825Y13475D01*
X4974Y13474D01*
X5112Y13531D01*
X5217Y13637D01*
X5274Y13775D01*
X5274Y13836D01*
X5518Y14079D01*
X5475Y13974D01*
X5474Y13825D01*
X5531Y13687D01*
X5637Y13582D01*
X5775Y13525D01*
X5836Y13525D01*
X5955Y13405D01*
X5955Y13405D01*
X6015Y13365D01*
X6044Y13345D01*
X6044Y13345D01*
X6149Y13325D01*
X6150Y13325D01*
X7425Y13325D01*
X7425Y13305D01*
X7382Y13262D01*
X7325Y13124D01*
X7324Y12975D01*
X7381Y12837D01*
X7487Y12732D01*
X7625Y12675D01*
X7686Y12675D01*
X8725Y11636D01*
X8725Y11205D01*
X8682Y11162D01*
X8625Y11024D01*
X8624Y10875D01*
X8681Y10737D01*
X8787Y10632D01*
X8925Y10575D01*
X9074Y10574D01*
X9212Y10631D01*
X9317Y10737D01*
X9374Y10875D01*
X9375Y11024D01*
X9318Y11162D01*
X9275Y11205D01*
X9275Y11750D01*
X9254Y11855D01*
X9254Y11855D01*
X9194Y11944D01*
X8075Y13063D01*
X8075Y13124D01*
X8018Y13262D01*
X7975Y13305D01*
X7975Y13325D01*
X9744Y13325D01*
X9787Y13282D01*
X9925Y13225D01*
X10074Y13224D01*
X10212Y13281D01*
X10255Y13325D01*
X11986Y13325D01*
X13474Y11836D01*
X13474Y11775D01*
X13531Y11637D01*
X13637Y11532D01*
X13775Y11475D01*
X13924Y11474D01*
X14062Y11531D01*
X14167Y11637D01*
X14224Y11775D01*
X14225Y11924D01*
X14225Y11450D01*
X13227Y11450D01*
X13136Y11431D01*
X13059Y11380D01*
X12814Y11135D01*
X9969Y8290D01*
X9918Y8213D01*
X9900Y8122D01*
X9900Y7725D01*
X8955Y7725D01*
X8912Y7767D01*
X8774Y7824D01*
X8625Y7825D01*
X8487Y7768D01*
X8444Y7725D01*
X8150Y7725D01*
X8044Y7704D01*
X8015Y7684D01*
X7955Y7644D01*
X6855Y6544D01*
X6795Y6455D01*
X6775Y6350D01*
X6775Y5105D01*
X6732Y5062D01*
X6675Y4924D01*
X6674Y4775D01*
X6722Y4661D01*
X4649Y2588D01*
X4649Y9438D01*
X4649Y10438D01*
X4573Y10622D01*
X4432Y10763D01*
X4249Y10839D01*
X4050Y10839D01*
X3866Y10763D01*
X3755Y10652D01*
X3645Y10763D01*
X3462Y10839D01*
X3263Y10839D01*
X3079Y10763D01*
X3030Y10715D01*
X3030Y12346D01*
X2919Y12615D01*
X2714Y12821D01*
X2445Y12932D01*
X2154Y12932D01*
X1885Y12821D01*
X1679Y12616D01*
X1567Y12347D01*
X1567Y12056D01*
X1678Y11787D01*
X1884Y11581D01*
X2153Y11469D01*
X2444Y11469D01*
X2713Y11580D01*
X2918Y11786D01*
X3030Y12055D01*
X3030Y12346D01*
X3030Y10715D01*
X2938Y10622D01*
X2862Y10439D01*
X2862Y10240D01*
X2938Y10056D01*
X3078Y9915D01*
X3191Y9869D01*
X3074Y9820D01*
X3047Y9725D01*
X3362Y9410D01*
X3677Y9725D01*
X3650Y9820D01*
X3524Y9865D01*
X3645Y9915D01*
X3755Y10025D01*
X3865Y9915D01*
X4049Y9839D01*
X4248Y9839D01*
X4432Y9915D01*
X4572Y10055D01*
X4649Y10239D01*
X4649Y10438D01*
X4649Y9438D01*
X4573Y9622D01*
X4432Y9763D01*
X4249Y9839D01*
X4050Y9839D01*
X3866Y9763D01*
X3755Y9652D01*
X3748Y9654D01*
X3432Y9339D01*
X3748Y9024D01*
X3755Y9026D01*
X3865Y8915D01*
X4049Y8839D01*
X4248Y8839D01*
X4432Y8915D01*
X4572Y9055D01*
X4649Y9239D01*
X4649Y9438D01*
X4649Y2588D01*
X4486Y2425D01*
X4425Y2425D01*
X4287Y2368D01*
X4182Y2262D01*
X4125Y2124D01*
X4124Y1975D01*
X4181Y1837D01*
X4287Y1732D01*
X4425Y1675D01*
X4574Y1674D01*
X4712Y1731D01*
X4817Y1837D01*
X4874Y1975D01*
X4874Y2036D01*
X7244Y4405D01*
X7304Y4494D01*
X7304Y4494D01*
X7323Y4593D01*
X7367Y4637D01*
X7424Y4775D01*
X7425Y4924D01*
X7368Y5062D01*
X7325Y5105D01*
X7325Y6236D01*
X8263Y7175D01*
X8444Y7175D01*
X8487Y7132D01*
X8625Y7075D01*
X8774Y7074D01*
X8912Y7131D01*
X8955Y7175D01*
X9900Y7175D01*
X9900Y1404D01*
X9887Y1342D01*
X9855Y1294D01*
X9807Y1262D01*
X9745Y1250D01*
X3677Y1250D01*
X3677Y8953D01*
X3362Y9268D01*
X3291Y9197D01*
X3291Y9339D01*
X2976Y9654D01*
X2880Y9627D01*
X2807Y9421D01*
X2818Y9202D01*
X2880Y9051D01*
X2976Y9024D01*
X3291Y9339D01*
X3291Y9197D01*
X3047Y8953D01*
X3074Y8858D01*
X3280Y8784D01*
X3498Y8795D01*
X3650Y8858D01*
X3677Y8953D01*
X3677Y1250D01*
X2991Y1250D01*
X3011Y1270D01*
X3199Y1722D01*
X3199Y2212D01*
X3030Y2621D01*
X3030Y7622D01*
X2919Y7891D01*
X2714Y8097D01*
X2445Y8208D01*
X2154Y8208D01*
X1885Y8097D01*
X1679Y7892D01*
X1567Y7623D01*
X1567Y7332D01*
X1678Y7063D01*
X1884Y6857D01*
X2153Y6745D01*
X2444Y6745D01*
X2713Y6856D01*
X2918Y7062D01*
X3030Y7331D01*
X3030Y7622D01*
X3030Y2621D01*
X3012Y2664D01*
X2666Y3011D01*
X2214Y3199D01*
X1724Y3199D01*
X1272Y3012D01*
X1150Y2890D01*
X1150Y16708D01*
X1270Y16588D01*
X1722Y16400D01*
X2212Y16400D01*
X2664Y16587D01*
X3011Y16933D01*
X3199Y17385D01*
X3199Y17875D01*
X3012Y18327D01*
X2890Y18450D01*
X12795Y18450D01*
X12857Y18437D01*
X12905Y18405D01*
X12937Y18357D01*
X12950Y18295D01*
X12950Y13727D01*
X12968Y13636D01*
X13019Y13559D01*
X14009Y12569D01*
X14086Y12518D01*
X14177Y12500D01*
X14895Y12500D01*
X14957Y12487D01*
X15005Y12455D01*
X15037Y12407D01*
X15050Y12345D01*
X15050Y11604D01*
X15050Y11604D01*
G37*
G54D18*
X15050Y11604D02*
X15037Y11542D01*
X15005Y11494D01*
X14957Y11462D01*
X14895Y11450D01*
X14225Y11450D01*
X14225Y11924D01*
X14168Y12062D01*
X14062Y12167D01*
X13924Y12224D01*
X13863Y12224D01*
X12294Y13794D01*
X12205Y13854D01*
X12100Y13875D01*
X10255Y13875D01*
X10212Y13917D01*
X10074Y13974D01*
X9925Y13975D01*
X9787Y13918D01*
X9744Y13875D01*
X9413Y13875D01*
X11413Y15874D01*
X11474Y15874D01*
X11612Y15931D01*
X11717Y16037D01*
X11774Y16175D01*
X11775Y16324D01*
X11718Y16462D01*
X11612Y16567D01*
X11474Y16624D01*
X11325Y16625D01*
X11187Y16568D01*
X11082Y16462D01*
X11025Y16324D01*
X11025Y16263D01*
X10616Y15854D01*
X10624Y15900D01*
X10625Y15900D01*
X10625Y16262D01*
X10684Y16262D01*
X10758Y16292D01*
X10814Y16349D01*
X10845Y16422D01*
X10845Y16502D01*
X10845Y17092D01*
X10814Y17166D01*
X10758Y17222D01*
X10692Y17250D01*
X10758Y17277D01*
X10814Y17333D01*
X10845Y17406D01*
X10845Y17467D01*
X11252Y17467D01*
X11269Y17449D01*
X11182Y17362D01*
X11125Y17224D01*
X11124Y17075D01*
X11181Y16937D01*
X11287Y16832D01*
X11425Y16775D01*
X11536Y16774D01*
X12024Y16286D01*
X12024Y16225D01*
X12081Y16087D01*
X12187Y15982D01*
X12325Y15925D01*
X12474Y15924D01*
X12612Y15981D01*
X12717Y16087D01*
X12774Y16225D01*
X12775Y16374D01*
X12718Y16512D01*
X12612Y16617D01*
X12474Y16674D01*
X12413Y16674D01*
X11875Y17213D01*
X11875Y17224D01*
X11818Y17362D01*
X11730Y17450D01*
X11817Y17537D01*
X11874Y17675D01*
X11875Y17824D01*
X11818Y17962D01*
X11712Y18067D01*
X11574Y18124D01*
X11425Y18125D01*
X11287Y18068D01*
X11236Y18017D01*
X10845Y18017D01*
X10845Y18077D01*
X10814Y18150D01*
X10758Y18206D01*
X10685Y18237D01*
X10605Y18237D01*
X10015Y18237D01*
X9941Y18207D01*
X9885Y18150D01*
X9854Y18077D01*
X9854Y17997D01*
X9854Y17407D01*
X9885Y17333D01*
X9941Y17277D01*
X10007Y17249D01*
X9941Y17222D01*
X9885Y17166D01*
X9854Y17093D01*
X9854Y17013D01*
X9854Y16422D01*
X9885Y16349D01*
X9941Y16293D01*
X10014Y16262D01*
X10075Y16262D01*
X10075Y16013D01*
X9024Y14963D01*
X9025Y15074D01*
X8968Y15212D01*
X8925Y15255D01*
X8925Y16262D01*
X8984Y16262D01*
X9058Y16292D01*
X9114Y16349D01*
X9145Y16422D01*
X9145Y16502D01*
X9145Y17092D01*
X9114Y17166D01*
X9058Y17222D01*
X8992Y17250D01*
X9058Y17277D01*
X9114Y17333D01*
X9145Y17406D01*
X9145Y17486D01*
X9145Y18077D01*
X9114Y18150D01*
X9058Y18206D01*
X8985Y18237D01*
X8905Y18237D01*
X8315Y18237D01*
X8241Y18207D01*
X8185Y18150D01*
X8154Y18077D01*
X8154Y18017D01*
X5842Y18017D01*
X5736Y17996D01*
X5647Y17936D01*
X4595Y16884D01*
X4595Y17092D01*
X4564Y17166D01*
X4508Y17222D01*
X4507Y17222D01*
X4537Y17235D01*
X4607Y17305D01*
X4645Y17397D01*
X4645Y18086D01*
X4607Y18178D01*
X4537Y18249D01*
X4445Y18287D01*
X4345Y18287D01*
X4212Y18287D01*
X4150Y18224D01*
X4150Y17792D01*
X4582Y17792D01*
X4645Y17854D01*
X4645Y18086D01*
X4645Y17397D01*
X4645Y17629D01*
X4582Y17692D01*
X4150Y17692D01*
X4150Y17684D01*
X4050Y17684D01*
X4050Y17692D01*
X4050Y17792D01*
X4050Y18224D01*
X3987Y18287D01*
X3854Y18287D01*
X3754Y18287D01*
X3662Y18249D01*
X3592Y18178D01*
X3554Y18086D01*
X3554Y17854D01*
X3617Y17792D01*
X4050Y17792D01*
X4050Y17692D01*
X3617Y17692D01*
X3554Y17629D01*
X3554Y17397D01*
X3592Y17305D01*
X3662Y17235D01*
X3691Y17222D01*
X3691Y17222D01*
X3635Y17166D01*
X3604Y17093D01*
X3604Y17013D01*
X3604Y16643D01*
X3336Y16375D01*
X3275Y16375D01*
X3137Y16318D01*
X3032Y16212D01*
X2975Y16074D01*
X2974Y15925D01*
X3031Y15787D01*
X3137Y15682D01*
X3275Y15625D01*
X3424Y15624D01*
X3562Y15681D01*
X3667Y15787D01*
X3724Y15925D01*
X3724Y15986D01*
X4001Y16262D01*
X4434Y16262D01*
X4475Y16279D01*
X4475Y15655D01*
X4432Y15612D01*
X4375Y15474D01*
X4374Y15325D01*
X4431Y15187D01*
X4537Y15082D01*
X4675Y15025D01*
X4824Y15024D01*
X4962Y15081D01*
X5067Y15187D01*
X5124Y15325D01*
X5125Y15474D01*
X5068Y15612D01*
X5025Y15655D01*
X5025Y16536D01*
X5956Y17467D01*
X8154Y17467D01*
X8154Y17407D01*
X8185Y17333D01*
X8241Y17277D01*
X8307Y17249D01*
X8241Y17222D01*
X8185Y17166D01*
X8154Y17093D01*
X8154Y17013D01*
X8154Y16422D01*
X8185Y16349D01*
X8241Y16293D01*
X8314Y16262D01*
X8375Y16262D01*
X8375Y15255D01*
X8332Y15212D01*
X8275Y15074D01*
X8274Y14925D01*
X8331Y14787D01*
X8394Y14725D01*
X5500Y14725D01*
X5394Y14704D01*
X5305Y14644D01*
X4886Y14225D01*
X4825Y14225D01*
X4687Y14168D01*
X4582Y14062D01*
X4525Y13924D01*
X4524Y13775D01*
X4581Y13637D01*
X4687Y13532D01*
X4825Y13475D01*
X4974Y13474D01*
X5112Y13531D01*
X5217Y13637D01*
X5274Y13775D01*
X5274Y13836D01*
X5518Y14079D01*
X5475Y13974D01*
X5474Y13825D01*
X5531Y13687D01*
X5637Y13582D01*
X5775Y13525D01*
X5836Y13525D01*
X5955Y13405D01*
X5955Y13405D01*
X6015Y13365D01*
X6044Y13345D01*
X6044Y13345D01*
X6149Y13325D01*
X6150Y13325D01*
X7425Y13325D01*
X7425Y13305D01*
X7382Y13262D01*
X7325Y13124D01*
X7324Y12975D01*
X7381Y12837D01*
X7487Y12732D01*
X7625Y12675D01*
X7686Y12675D01*
X8725Y11636D01*
X8725Y11205D01*
X8682Y11162D01*
X8625Y11024D01*
X8624Y10875D01*
X8681Y10737D01*
X8787Y10632D01*
X8925Y10575D01*
X9074Y10574D01*
X9212Y10631D01*
X9317Y10737D01*
X9374Y10875D01*
X9375Y11024D01*
X9318Y11162D01*
X9275Y11205D01*
X9275Y11750D01*
X9254Y11855D01*
X9254Y11855D01*
X9194Y11944D01*
X8075Y13063D01*
X8075Y13124D01*
X8018Y13262D01*
X7975Y13305D01*
X7975Y13325D01*
X9744Y13325D01*
X9787Y13282D01*
X9925Y13225D01*
X10074Y13224D01*
X10212Y13281D01*
X10255Y13325D01*
X11986Y13325D01*
X13474Y11836D01*
X13474Y11775D01*
X13531Y11637D01*
X13637Y11532D01*
X13775Y11475D01*
X13924Y11474D01*
X14062Y11531D01*
X14167Y11637D01*
X14224Y11775D01*
X14225Y11924D01*
X14225Y11450D01*
X13227Y11450D01*
X13136Y11431D01*
X13059Y11380D01*
X12814Y11135D01*
X9969Y8290D01*
X9918Y8213D01*
X9900Y8122D01*
X9900Y7725D01*
X8955Y7725D01*
X8912Y7767D01*
X8774Y7824D01*
X8625Y7825D01*
X8487Y7768D01*
X8444Y7725D01*
X8150Y7725D01*
X8044Y7704D01*
X8015Y7684D01*
X7955Y7644D01*
X6855Y6544D01*
X6795Y6455D01*
X6775Y6350D01*
X6775Y5105D01*
X6732Y5062D01*
X6675Y4924D01*
X6674Y4775D01*
X6722Y4661D01*
X4649Y2588D01*
X4649Y9438D01*
X4649Y10438D01*
X4573Y10622D01*
X4432Y10763D01*
X4249Y10839D01*
X4050Y10839D01*
X3866Y10763D01*
X3755Y10652D01*
X3645Y10763D01*
X3462Y10839D01*
X3263Y10839D01*
X3079Y10763D01*
X3030Y10715D01*
X3030Y12346D01*
X2919Y12615D01*
X2714Y12821D01*
X2445Y12932D01*
X2154Y12932D01*
X1885Y12821D01*
X1679Y12616D01*
X1567Y12347D01*
X1567Y12056D01*
X1678Y11787D01*
X1884Y11581D01*
X2153Y11469D01*
X2444Y11469D01*
X2713Y11580D01*
X2918Y11786D01*
X3030Y12055D01*
X3030Y12346D01*
X3030Y10715D01*
X2938Y10622D01*
X2862Y10439D01*
X2862Y10240D01*
X2938Y10056D01*
X3078Y9915D01*
X3191Y9869D01*
X3074Y9820D01*
X3047Y9725D01*
X3362Y9410D01*
X3677Y9725D01*
X3650Y9820D01*
X3524Y9865D01*
X3645Y9915D01*
X3755Y10025D01*
X3865Y9915D01*
X4049Y9839D01*
X4248Y9839D01*
X4432Y9915D01*
X4572Y10055D01*
X4649Y10239D01*
X4649Y10438D01*
X4649Y9438D01*
X4573Y9622D01*
X4432Y9763D01*
X4249Y9839D01*
X4050Y9839D01*
X3866Y9763D01*
X3755Y9652D01*
X3748Y9654D01*
X3432Y9339D01*
X3748Y9024D01*
X3755Y9026D01*
X3865Y8915D01*
X4049Y8839D01*
X4248Y8839D01*
X4432Y8915D01*
X4572Y9055D01*
X4649Y9239D01*
X4649Y9438D01*
X4649Y2588D01*
X4486Y2425D01*
X4425Y2425D01*
X4287Y2368D01*
X4182Y2262D01*
X4125Y2124D01*
X4124Y1975D01*
X4181Y1837D01*
X4287Y1732D01*
X4425Y1675D01*
X4574Y1674D01*
X4712Y1731D01*
X4817Y1837D01*
X4874Y1975D01*
X4874Y2036D01*
X7244Y4405D01*
X7304Y4494D01*
X7304Y4494D01*
X7323Y4593D01*
X7367Y4637D01*
X7424Y4775D01*
X7425Y4924D01*
X7368Y5062D01*
X7325Y5105D01*
X7325Y6236D01*
X8263Y7175D01*
X8444Y7175D01*
X8487Y7132D01*
X8625Y7075D01*
X8774Y7074D01*
X8912Y7131D01*
X8955Y7175D01*
X9900Y7175D01*
X9900Y1404D01*
X9887Y1342D01*
X9855Y1294D01*
X9807Y1262D01*
X9745Y1250D01*
X3677Y1250D01*
X3677Y8953D01*
X3362Y9268D01*
X3291Y9197D01*
X3291Y9339D01*
X2976Y9654D01*
X2880Y9627D01*
X2807Y9421D01*
X2818Y9202D01*
X2880Y9051D01*
X2976Y9024D01*
X3291Y9339D01*
X3291Y9197D01*
X3047Y8953D01*
X3074Y8858D01*
X3280Y8784D01*
X3498Y8795D01*
X3650Y8858D01*
X3677Y8953D01*
X3677Y1250D01*
X2991Y1250D01*
X3011Y1270D01*
X3199Y1722D01*
X3199Y2212D01*
X3030Y2621D01*
X3030Y7622D01*
X2919Y7891D01*
X2714Y8097D01*
X2445Y8208D01*
X2154Y8208D01*
X1885Y8097D01*
X1679Y7892D01*
X1567Y7623D01*
X1567Y7332D01*
X1678Y7063D01*
X1884Y6857D01*
X2153Y6745D01*
X2444Y6745D01*
X2713Y6856D01*
X2918Y7062D01*
X3030Y7331D01*
X3030Y7622D01*
X3030Y2621D01*
X3012Y2664D01*
X2666Y3011D01*
X2214Y3199D01*
X1724Y3199D01*
X1272Y3012D01*
X1150Y2890D01*
X1150Y16708D01*
X1270Y16588D01*
X1722Y16400D01*
X2212Y16400D01*
X2664Y16587D01*
X3011Y16933D01*
X3199Y17385D01*
X3199Y17875D01*
X3012Y18327D01*
X2890Y18450D01*
X12795Y18450D01*
X12857Y18437D01*
X12905Y18405D01*
X12937Y18357D01*
X12950Y18295D01*
X12950Y13727D01*
X12968Y13636D01*
X13019Y13559D01*
X14009Y12569D01*
X14086Y12518D01*
X14177Y12500D01*
X14895Y12500D01*
X14957Y12487D01*
X15005Y12455D01*
X15037Y12407D01*
X15050Y12345D01*
X15050Y11604D01*
G54D10*
G36*
X18350Y2991D02*
X18329Y3011D01*
X18266Y3037D01*
X18266Y6523D01*
X18167Y6762D01*
X17984Y6945D01*
X17746Y7044D01*
X17487Y7044D01*
X17248Y6945D01*
X17065Y6763D01*
X17026Y6669D01*
X14973Y6669D01*
X14944Y6738D01*
X14888Y6794D01*
X14814Y6824D01*
X14735Y6825D01*
X14485Y6825D01*
X14411Y6794D01*
X14355Y6738D01*
X14350Y6725D01*
X14344Y6738D01*
X14288Y6794D01*
X14214Y6824D01*
X14135Y6825D01*
X13885Y6825D01*
X13811Y6794D01*
X13755Y6738D01*
X13725Y6664D01*
X13724Y6585D01*
X13724Y6135D01*
X13755Y6061D01*
X13775Y6042D01*
X13775Y4870D01*
X13711Y4844D01*
X13655Y4788D01*
X13625Y4714D01*
X13624Y4635D01*
X13624Y4385D01*
X13655Y4311D01*
X13711Y4255D01*
X13724Y4250D01*
X13711Y4244D01*
X13692Y4225D01*
X13525Y4225D01*
X13525Y7086D01*
X13778Y7339D01*
X13811Y7305D01*
X13885Y7275D01*
X13964Y7274D01*
X14214Y7274D01*
X14288Y7305D01*
X14344Y7361D01*
X14349Y7374D01*
X14355Y7361D01*
X14411Y7305D01*
X14485Y7275D01*
X14564Y7274D01*
X14814Y7274D01*
X14888Y7305D01*
X14944Y7361D01*
X14970Y7425D01*
X17056Y7425D01*
X17064Y7404D01*
X17247Y7221D01*
X17486Y7122D01*
X17744Y7122D01*
X17983Y7221D01*
X18166Y7403D01*
X18266Y7642D01*
X18266Y7901D01*
X18167Y8140D01*
X17984Y8323D01*
X17746Y8422D01*
X17487Y8422D01*
X17248Y8323D01*
X17065Y8141D01*
X16996Y7975D01*
X14970Y7975D01*
X14944Y8038D01*
X14888Y8094D01*
X14814Y8124D01*
X14735Y8125D01*
X14485Y8125D01*
X14411Y8094D01*
X14355Y8038D01*
X14350Y8025D01*
X14344Y8038D01*
X14288Y8094D01*
X14214Y8124D01*
X14135Y8125D01*
X13885Y8125D01*
X13811Y8094D01*
X13755Y8038D01*
X13727Y7970D01*
X13644Y7954D01*
X13555Y7894D01*
X13055Y7394D01*
X12995Y7305D01*
X12975Y7200D01*
X12975Y4050D01*
X12995Y3944D01*
X13055Y3855D01*
X13155Y3755D01*
X13244Y3695D01*
X13244Y3695D01*
X13350Y3675D01*
X13692Y3675D01*
X13711Y3655D01*
X13785Y3625D01*
X13864Y3624D01*
X14314Y3624D01*
X14388Y3655D01*
X14407Y3675D01*
X14686Y3675D01*
X14924Y3436D01*
X14924Y3375D01*
X14981Y3237D01*
X15087Y3132D01*
X15225Y3075D01*
X15374Y3074D01*
X15512Y3131D01*
X15617Y3237D01*
X15674Y3375D01*
X15675Y3524D01*
X15618Y3662D01*
X15512Y3767D01*
X15374Y3824D01*
X15313Y3824D01*
X14994Y4144D01*
X14905Y4204D01*
X14800Y4225D01*
X14407Y4225D01*
X14388Y4244D01*
X14375Y4249D01*
X14388Y4255D01*
X14407Y4275D01*
X15186Y4275D01*
X15524Y3936D01*
X15524Y3875D01*
X15581Y3737D01*
X15687Y3632D01*
X15825Y3575D01*
X15974Y3574D01*
X16112Y3631D01*
X16217Y3737D01*
X16274Y3875D01*
X16275Y4024D01*
X16218Y4162D01*
X16112Y4267D01*
X15974Y4324D01*
X15913Y4324D01*
X15494Y4744D01*
X15405Y4804D01*
X15300Y4825D01*
X14407Y4825D01*
X14388Y4844D01*
X14325Y4870D01*
X14325Y6042D01*
X14344Y6061D01*
X14349Y6074D01*
X14355Y6061D01*
X14411Y6005D01*
X14485Y5975D01*
X14564Y5974D01*
X14814Y5974D01*
X14888Y6005D01*
X14944Y6061D01*
X14968Y6119D01*
X17026Y6119D01*
X17064Y6026D01*
X17247Y5843D01*
X17486Y5744D01*
X17744Y5744D01*
X17983Y5843D01*
X18166Y6025D01*
X18266Y6264D01*
X18266Y6523D01*
X18266Y3037D01*
X17877Y3199D01*
X17387Y3199D01*
X16935Y3012D01*
X16588Y2666D01*
X16400Y2214D01*
X16400Y1724D01*
X16587Y1272D01*
X16609Y1250D01*
X12925Y1250D01*
X12925Y6474D01*
X12868Y6612D01*
X12762Y6717D01*
X12624Y6774D01*
X12475Y6775D01*
X12337Y6718D01*
X12232Y6612D01*
X12175Y6474D01*
X12174Y6378D01*
X12073Y6276D01*
X12019Y6195D01*
X12000Y6100D01*
X12000Y6000D01*
X12019Y5904D01*
X12073Y5823D01*
X12154Y5769D01*
X12250Y5750D01*
X12345Y5769D01*
X12426Y5823D01*
X12480Y5904D01*
X12499Y5995D01*
X12528Y6025D01*
X12624Y6024D01*
X12762Y6081D01*
X12867Y6187D01*
X12924Y6325D01*
X12925Y6474D01*
X12925Y1250D01*
X10704Y1250D01*
X10642Y1262D01*
X10594Y1294D01*
X10562Y1342D01*
X10550Y1404D01*
X10550Y6762D01*
X10562Y6824D01*
X10597Y6876D01*
X13580Y9859D01*
X13631Y9936D01*
X13650Y10027D01*
X13650Y10745D01*
X13662Y10807D01*
X13694Y10855D01*
X13742Y10887D01*
X13757Y10890D01*
X13755Y10888D01*
X13725Y10814D01*
X13724Y10735D01*
X13724Y10285D01*
X13755Y10211D01*
X13775Y10192D01*
X13775Y9963D01*
X10855Y7044D01*
X10795Y6955D01*
X10775Y6850D01*
X10775Y5205D01*
X10732Y5162D01*
X10675Y5024D01*
X10674Y4875D01*
X10731Y4737D01*
X10837Y4632D01*
X10975Y4575D01*
X11066Y4574D01*
X11025Y4474D01*
X11024Y4325D01*
X11081Y4187D01*
X11187Y4082D01*
X11325Y4025D01*
X11474Y4024D01*
X11612Y4081D01*
X11717Y4187D01*
X11774Y4325D01*
X11775Y4474D01*
X11718Y4612D01*
X11675Y4655D01*
X11675Y6086D01*
X14244Y8655D01*
X14304Y8744D01*
X14304Y8744D01*
X14310Y8777D01*
X14344Y8811D01*
X14349Y8824D01*
X14355Y8811D01*
X14411Y8755D01*
X14485Y8725D01*
X14564Y8724D01*
X14814Y8724D01*
X14888Y8755D01*
X14944Y8811D01*
X14970Y8875D01*
X17026Y8875D01*
X17064Y8782D01*
X17247Y8599D01*
X17486Y8500D01*
X17744Y8500D01*
X17983Y8599D01*
X18166Y8781D01*
X18266Y9020D01*
X18266Y9279D01*
X18167Y9518D01*
X17984Y9701D01*
X17746Y9800D01*
X17487Y9800D01*
X17248Y9701D01*
X17065Y9519D01*
X17026Y9425D01*
X14970Y9425D01*
X14944Y9488D01*
X14888Y9544D01*
X14814Y9574D01*
X14735Y9575D01*
X14485Y9575D01*
X14411Y9544D01*
X14355Y9488D01*
X14350Y9475D01*
X14344Y9488D01*
X14288Y9544D01*
X14214Y9574D01*
X14163Y9575D01*
X14244Y9655D01*
X14304Y9744D01*
X14304Y9744D01*
X14325Y9850D01*
X14325Y10192D01*
X14344Y10211D01*
X14349Y10224D01*
X14355Y10211D01*
X14411Y10155D01*
X14485Y10125D01*
X14564Y10124D01*
X14814Y10124D01*
X14888Y10155D01*
X14944Y10211D01*
X14970Y10275D01*
X17017Y10275D01*
X17064Y10160D01*
X17247Y9977D01*
X17486Y9878D01*
X17744Y9878D01*
X17983Y9976D01*
X18166Y10159D01*
X18266Y10398D01*
X18266Y10657D01*
X18167Y10896D01*
X17984Y11079D01*
X17746Y11178D01*
X17487Y11178D01*
X17248Y11079D01*
X17065Y10897D01*
X17035Y10825D01*
X14970Y10825D01*
X14944Y10888D01*
X14932Y10900D01*
X16054Y10900D01*
X16146Y10918D01*
X16227Y10972D01*
X16281Y11053D01*
X16300Y11145D01*
X16300Y14036D01*
X17026Y14036D01*
X17064Y13943D01*
X17247Y13760D01*
X17486Y13661D01*
X17744Y13660D01*
X17983Y13759D01*
X18166Y13942D01*
X18266Y14181D01*
X18266Y14439D01*
X18167Y14678D01*
X17984Y14861D01*
X17746Y14960D01*
X17487Y14961D01*
X17248Y14862D01*
X17065Y14679D01*
X17026Y14586D01*
X16649Y14586D01*
X17072Y14959D01*
X17122Y14989D01*
X17180Y15000D01*
X18195Y15000D01*
X18257Y14987D01*
X18305Y14955D01*
X18337Y14907D01*
X18350Y14845D01*
X18350Y2991D01*
X18350Y2991D01*
G37*
G54D18*
X18350Y2991D02*
X18329Y3011D01*
X18266Y3037D01*
X18266Y6523D01*
X18167Y6762D01*
X17984Y6945D01*
X17746Y7044D01*
X17487Y7044D01*
X17248Y6945D01*
X17065Y6763D01*
X17026Y6669D01*
X14973Y6669D01*
X14944Y6738D01*
X14888Y6794D01*
X14814Y6824D01*
X14735Y6825D01*
X14485Y6825D01*
X14411Y6794D01*
X14355Y6738D01*
X14350Y6725D01*
X14344Y6738D01*
X14288Y6794D01*
X14214Y6824D01*
X14135Y6825D01*
X13885Y6825D01*
X13811Y6794D01*
X13755Y6738D01*
X13725Y6664D01*
X13724Y6585D01*
X13724Y6135D01*
X13755Y6061D01*
X13775Y6042D01*
X13775Y4870D01*
X13711Y4844D01*
X13655Y4788D01*
X13625Y4714D01*
X13624Y4635D01*
X13624Y4385D01*
X13655Y4311D01*
X13711Y4255D01*
X13724Y4250D01*
X13711Y4244D01*
X13692Y4225D01*
X13525Y4225D01*
X13525Y7086D01*
X13778Y7339D01*
X13811Y7305D01*
X13885Y7275D01*
X13964Y7274D01*
X14214Y7274D01*
X14288Y7305D01*
X14344Y7361D01*
X14349Y7374D01*
X14355Y7361D01*
X14411Y7305D01*
X14485Y7275D01*
X14564Y7274D01*
X14814Y7274D01*
X14888Y7305D01*
X14944Y7361D01*
X14970Y7425D01*
X17056Y7425D01*
X17064Y7404D01*
X17247Y7221D01*
X17486Y7122D01*
X17744Y7122D01*
X17983Y7221D01*
X18166Y7403D01*
X18266Y7642D01*
X18266Y7901D01*
X18167Y8140D01*
X17984Y8323D01*
X17746Y8422D01*
X17487Y8422D01*
X17248Y8323D01*
X17065Y8141D01*
X16996Y7975D01*
X14970Y7975D01*
X14944Y8038D01*
X14888Y8094D01*
X14814Y8124D01*
X14735Y8125D01*
X14485Y8125D01*
X14411Y8094D01*
X14355Y8038D01*
X14350Y8025D01*
X14344Y8038D01*
X14288Y8094D01*
X14214Y8124D01*
X14135Y8125D01*
X13885Y8125D01*
X13811Y8094D01*
X13755Y8038D01*
X13727Y7970D01*
X13644Y7954D01*
X13555Y7894D01*
X13055Y7394D01*
X12995Y7305D01*
X12975Y7200D01*
X12975Y4050D01*
X12995Y3944D01*
X13055Y3855D01*
X13155Y3755D01*
X13244Y3695D01*
X13244Y3695D01*
X13350Y3675D01*
X13692Y3675D01*
X13711Y3655D01*
X13785Y3625D01*
X13864Y3624D01*
X14314Y3624D01*
X14388Y3655D01*
X14407Y3675D01*
X14686Y3675D01*
X14924Y3436D01*
X14924Y3375D01*
X14981Y3237D01*
X15087Y3132D01*
X15225Y3075D01*
X15374Y3074D01*
X15512Y3131D01*
X15617Y3237D01*
X15674Y3375D01*
X15675Y3524D01*
X15618Y3662D01*
X15512Y3767D01*
X15374Y3824D01*
X15313Y3824D01*
X14994Y4144D01*
X14905Y4204D01*
X14800Y4225D01*
X14407Y4225D01*
X14388Y4244D01*
X14375Y4249D01*
X14388Y4255D01*
X14407Y4275D01*
X15186Y4275D01*
X15524Y3936D01*
X15524Y3875D01*
X15581Y3737D01*
X15687Y3632D01*
X15825Y3575D01*
X15974Y3574D01*
X16112Y3631D01*
X16217Y3737D01*
X16274Y3875D01*
X16275Y4024D01*
X16218Y4162D01*
X16112Y4267D01*
X15974Y4324D01*
X15913Y4324D01*
X15494Y4744D01*
X15405Y4804D01*
X15300Y4825D01*
X14407Y4825D01*
X14388Y4844D01*
X14325Y4870D01*
X14325Y6042D01*
X14344Y6061D01*
X14349Y6074D01*
X14355Y6061D01*
X14411Y6005D01*
X14485Y5975D01*
X14564Y5974D01*
X14814Y5974D01*
X14888Y6005D01*
X14944Y6061D01*
X14968Y6119D01*
X17026Y6119D01*
X17064Y6026D01*
X17247Y5843D01*
X17486Y5744D01*
X17744Y5744D01*
X17983Y5843D01*
X18166Y6025D01*
X18266Y6264D01*
X18266Y6523D01*
X18266Y3037D01*
X17877Y3199D01*
X17387Y3199D01*
X16935Y3012D01*
X16588Y2666D01*
X16400Y2214D01*
X16400Y1724D01*
X16587Y1272D01*
X16609Y1250D01*
X12925Y1250D01*
X12925Y6474D01*
X12868Y6612D01*
X12762Y6717D01*
X12624Y6774D01*
X12475Y6775D01*
X12337Y6718D01*
X12232Y6612D01*
X12175Y6474D01*
X12174Y6378D01*
X12073Y6276D01*
X12019Y6195D01*
X12000Y6100D01*
X12000Y6000D01*
X12019Y5904D01*
X12073Y5823D01*
X12154Y5769D01*
X12250Y5750D01*
X12345Y5769D01*
X12426Y5823D01*
X12480Y5904D01*
X12499Y5995D01*
X12528Y6025D01*
X12624Y6024D01*
X12762Y6081D01*
X12867Y6187D01*
X12924Y6325D01*
X12925Y6474D01*
X12925Y1250D01*
X10704Y1250D01*
X10642Y1262D01*
X10594Y1294D01*
X10562Y1342D01*
X10550Y1404D01*
X10550Y6762D01*
X10562Y6824D01*
X10597Y6876D01*
X13580Y9859D01*
X13631Y9936D01*
X13650Y10027D01*
X13650Y10745D01*
X13662Y10807D01*
X13694Y10855D01*
X13742Y10887D01*
X13757Y10890D01*
X13755Y10888D01*
X13725Y10814D01*
X13724Y10735D01*
X13724Y10285D01*
X13755Y10211D01*
X13775Y10192D01*
X13775Y9963D01*
X10855Y7044D01*
X10795Y6955D01*
X10775Y6850D01*
X10775Y5205D01*
X10732Y5162D01*
X10675Y5024D01*
X10674Y4875D01*
X10731Y4737D01*
X10837Y4632D01*
X10975Y4575D01*
X11066Y4574D01*
X11025Y4474D01*
X11024Y4325D01*
X11081Y4187D01*
X11187Y4082D01*
X11325Y4025D01*
X11474Y4024D01*
X11612Y4081D01*
X11717Y4187D01*
X11774Y4325D01*
X11775Y4474D01*
X11718Y4612D01*
X11675Y4655D01*
X11675Y6086D01*
X14244Y8655D01*
X14304Y8744D01*
X14304Y8744D01*
X14310Y8777D01*
X14344Y8811D01*
X14349Y8824D01*
X14355Y8811D01*
X14411Y8755D01*
X14485Y8725D01*
X14564Y8724D01*
X14814Y8724D01*
X14888Y8755D01*
X14944Y8811D01*
X14970Y8875D01*
X17026Y8875D01*
X17064Y8782D01*
X17247Y8599D01*
X17486Y8500D01*
X17744Y8500D01*
X17983Y8599D01*
X18166Y8781D01*
X18266Y9020D01*
X18266Y9279D01*
X18167Y9518D01*
X17984Y9701D01*
X17746Y9800D01*
X17487Y9800D01*
X17248Y9701D01*
X17065Y9519D01*
X17026Y9425D01*
X14970Y9425D01*
X14944Y9488D01*
X14888Y9544D01*
X14814Y9574D01*
X14735Y9575D01*
X14485Y9575D01*
X14411Y9544D01*
X14355Y9488D01*
X14350Y9475D01*
X14344Y9488D01*
X14288Y9544D01*
X14214Y9574D01*
X14163Y9575D01*
X14244Y9655D01*
X14304Y9744D01*
X14304Y9744D01*
X14325Y9850D01*
X14325Y10192D01*
X14344Y10211D01*
X14349Y10224D01*
X14355Y10211D01*
X14411Y10155D01*
X14485Y10125D01*
X14564Y10124D01*
X14814Y10124D01*
X14888Y10155D01*
X14944Y10211D01*
X14970Y10275D01*
X17017Y10275D01*
X17064Y10160D01*
X17247Y9977D01*
X17486Y9878D01*
X17744Y9878D01*
X17983Y9976D01*
X18166Y10159D01*
X18266Y10398D01*
X18266Y10657D01*
X18167Y10896D01*
X17984Y11079D01*
X17746Y11178D01*
X17487Y11178D01*
X17248Y11079D01*
X17065Y10897D01*
X17035Y10825D01*
X14970Y10825D01*
X14944Y10888D01*
X14932Y10900D01*
X16054Y10900D01*
X16146Y10918D01*
X16227Y10972D01*
X16281Y11053D01*
X16300Y11145D01*
X16300Y14036D01*
X17026Y14036D01*
X17064Y13943D01*
X17247Y13760D01*
X17486Y13661D01*
X17744Y13660D01*
X17983Y13759D01*
X18166Y13942D01*
X18266Y14181D01*
X18266Y14439D01*
X18167Y14678D01*
X17984Y14861D01*
X17746Y14960D01*
X17487Y14961D01*
X17248Y14862D01*
X17065Y14679D01*
X17026Y14586D01*
X16649Y14586D01*
X17072Y14959D01*
X17122Y14989D01*
X17180Y15000D01*
X18195Y15000D01*
X18257Y14987D01*
X18305Y14955D01*
X18337Y14907D01*
X18350Y14845D01*
X18350Y2991D01*
M02*
