M48
INCH,TZ
T1C0.025
T2C0.032
T3C0.035
T4C0.091
T5C0.110
%
G90
G05
T1
X3350Y16000
X4500Y2050
X4750Y15400
X4800Y8550
X4900Y13850
X5000Y11350
X5500Y8550
X5700Y13350
X5850Y13900
X5850Y11350
X6100Y8550
X6150Y1600
X6300Y7400
X6450Y16500
X6550Y11350
X6750Y13100
X7050Y4850
X7100Y1600
X7150Y16600
X7700Y13050
X7950Y16800
X8200Y1600
X8650Y15000
X8700Y7450
X9000Y10950
X9100Y5950
X10000Y13600
X10950Y11350
X11050Y4950
X11150Y9700
X11150Y2350
X11150Y1500
X11350Y14550
X11400Y16250
X11400Y12350
X11400Y4400
X11500Y17750
X11500Y17150
X12250Y1650
X12400Y16300
X12550Y6400
X12950Y9900
X13400Y1650
X13850Y11850
X14400Y1700
X14750Y11650
X15300Y3450
X15900Y3950
X15950Y15000
X15950Y5350
X15950Y4900
X15950Y3000
X16550Y13550
T2
X3362Y10339
X3362Y9339
X4149Y10339
X4149Y9339
T3
X17616Y15689
X17616Y14311
X17616Y10528
X17616Y9150
X17616Y7772
X17616Y6394
T4
X2299Y7477
X2299Y12201
T5
X1969Y17631
X1969Y1969
X17631Y17631
X17631Y1969
T0
M30
